<?xml version="1.0" encoding="UTF-8" standalone="no"?>
<!-- Created with Inkscape (http://www.inkscape.org/) -->

<svg
   xmlns:dc="http://purl.org/dc/elements/1.1/"
   xmlns:cc="http://creativecommons.org/ns#"
   xmlns:rdf="http://www.w3.org/1999/02/22-rdf-syntax-ns#"
   xmlns:svg="http://www.w3.org/2000/svg"
   xmlns="http://www.w3.org/2000/svg"
   xmlns:sodipodi="http://sodipodi.sourceforge.net/DTD/sodipodi-0.dtd"
   xmlns:inkscape="http://www.inkscape.org/namespaces/inkscape"
   id="svg2"
   version="1.1"
   inkscape:version="0.91 r13725"
   width="444.80811"
   height="102.23875"
   xml:space="preserve"
   sodipodi:docname="logo.svg"><metadata
     id="metadata8"><rdf:RDF><cc:Work
         rdf:about=""><dc:format>image/svg+xml</dc:format><dc:type
           rdf:resource="http://purl.org/dc/dcmitype/StillImage" /><dc:title /></cc:Work></rdf:RDF></metadata><defs
     id="defs6"><clipPath
       clipPathUnits="userSpaceOnUse"
       id="clipPath3409"><rect
         style="fill:#ff0000"
         id="rect3411"
         width="216.48129"
         height="175.09512"
         x="-22.798874"
         y="-139.96886"
         transform="scale(1,-1)" /></clipPath></defs><sodipodi:namedview
     pagecolor="#479c58"
     bordercolor="#666666"
     borderopacity="1"
     objecttolerance="10"
     gridtolerance="10"
     guidetolerance="10"
     inkscape:pageopacity="1"
     inkscape:pageshadow="2"
     inkscape:window-width="1280"
     inkscape:window-height="695"
     id="namedview4"
     showgrid="false"
     fit-margin-top="0"
     fit-margin-left="0"
     fit-margin-right="0"
     fit-margin-bottom="0"
     inkscape:zoom="1.5787273"
     inkscape:cx="283.17818"
     inkscape:cy="12.59662"
     inkscape:window-x="0"
     inkscape:window-y="1"
     inkscape:window-maximized="1"
     inkscape:current-layer="g3129" /><g
     id="g10"
     inkscape:groupmode="layer"
     inkscape:label="ink_ext_XXXXXX"
     transform="matrix(1.25,0,0,-1.25,15.283512,163.30042)"><g
       id="g3129"
       transform="matrix(0.55943033,0,0,0.55943033,-0.06608545,52.689489)"><g
         id="g4344"
         transform="matrix(0.85358481,0,0,0.85358481,-3.1827314,18.589825)"
         clip-path="url(#clipPath3409)"
         style="fill:#4d4d4d"><g
           transform="matrix(1.2490528,0,0,1.2490528,-21.786961,-9.9022221)"
           style="fill:#4d4d4d;fill-opacity:1;stroke:none"
           id="g4216"><path
             d="m 25.580091,61.234484 c 0,-32.120991 26.131285,-58.2522775 58.253171,-58.2522775 32.121218,0 58.251598,26.1312865 58.251598,58.2522775 0,32.118081 -26.13038,58.249586 -58.251598,58.249586 -32.121886,0 -58.253171,-26.131505 -58.253171,-58.249586 z m 1.631023,0 c 0,31.220929 25.398746,56.621486 56.622148,56.621486 31.219938,0 56.621248,-25.400557 56.621248,-56.621486 0,-31.223402 -25.40131,-56.6256138 -56.621248,-56.6256138 -31.223402,0 -56.622148,25.4022118 -56.622148,56.6256138"
             style="fill:#4d4d4d;fill-opacity:1;fill-rule:nonzero;stroke:none"
             id="path14"
             inkscape:connector-curvature="0" /><path
             d="m 99.991432,26.199094 c -1.413868,-4.903138 -2.087368,-7.432199 0.120668,-12.485066 0.0219,-0.192222 0.23325,-0.817749 0,-0.900719 -2.441735,0.490112 -3.090408,0.699777 -5.382744,0.870081 -2.117671,0.36476 -5.636909,-0.22488 -7.991307,-0.203074 -1.839795,-0.06339 -3.703632,-0.125346 -5.630758,-0.361293 -0.577446,0.297891 -0.128938,0.94131 -0.08353,1.369363 0.212338,0.664889 0.232921,1.005608 0.298787,1.776502 0.299235,0.320146 0.66489,0.150744 1.026967,0.300577 1.240992,0.19087 2.291888,1.282813 2.58978,2.440388 0.386566,1.217843 -0.04104,2.567526 -0.598354,3.724989 -0.10747,0.342061 -0.577111,0.599362 -0.385338,0.94008 1.520099,2.847865 0.449075,5.738667 -0.06284,8.521116 -0.535512,1.972191 -1.349347,4.152706 -1.672063,6.231797 0.06552,0.213248 -0.212806,0.706824 0.25673,0.74831 l 0.173877,-0.04148 c 1.624541,-1.97219 6.283014,-6.141447 8.027538,-7.495603 1.744188,-1.354042 6.249802,-3.98229 9.182089,-4.688104 0.278206,-0.232479 0.235836,-0.428165 0.130499,-0.747863 z m -21.67532,-5.053762 c 0,0.257641 0.01431,0.362525 0.209658,0.446393 l 1.058276,0 c 0.940082,-0.03276 2.148644,-0.340274 3.028455,0.568273 0.505766,-0.01796 0.550271,-0.619377 0.684905,-1.083657 0.120091,-0.648676 0.08991,-1.061521 0.08991,-1.644557 -0.209657,-0.461709 -0.445495,-1.164954 -0.924201,-1.457702 -0.760049,-0.359394 -1.523566,-0.289505 -2.253085,0 -1.104236,0.651694 -1.908789,1.695658 -1.893918,3.17125 z m 1.800882,-5.403314 c -0.134532,-1.276776 -1.738487,-2.402367 -2.522465,-2.629477 -0.786775,-0.2241 -3.135019,-0.113611 -3.811538,0.118763 -0.673164,0.234144 -2.321634,3.452927 -2.129859,5.126334 0,1.378978 0.371244,3.568216 0.924201,3.745117 0.553852,0.173878 2.019382,0.08431 2.019382,0.08431 0.613673,0.04148 1.077173,-0.10479 1.616151,-0.168179 0.382652,-0.146268 0.113611,-0.627655 0.247675,-0.901057 0.173877,-0.712078 0.213118,-1.482972 0.65516,-2.19494 0.616806,-1.19425 1.750784,-1.906663 2.866761,-2.32465 0.251604,-0.230683 0.113611,-0.541664 0.134532,-0.856217 z m -9.140493,-2.211042 c -0.436775,-0.449073 -0.681886,-0.2394 -1.12481,-0.280895 -1.259219,0.341614 -2.004396,0.888867 -2.360883,2.315931 -0.460814,1.98874 -0.445495,4.175853 0,6.20742 l 0.203516,0.159019 c 0.885848,0.101745 2.226473,0.280894 2.59112,0.08075 0.362525,-0.200836 -0.392267,-3.779112 -0.392267,-3.779112 -0.02368,-0.708944 0.324169,-2.524812 0.646549,-3.467351 0.06898,-0.139789 0.792813,-0.867063 0.436775,-1.235739 z m 14.905437,42.446678 -0.04507,-1.220865 c -0.110046,-1.112956 -0.624522,-2.396775 -1.671617,-3.017943 -0.625526,0.14861 -0.401437,0.899824 -0.556868,1.411407 0.401438,1.112958 1.182845,2.034588 1.828835,3.018728 0.08655,0.06552 0.176011,0.107912 0.265575,0.06552 l 0.179134,-0.256861 z m 9.084583,9.85201 c -0.650018,-0.298784 -1.316919,-0.364312 -2.035484,-0.03276 -0.182594,0.248117 -0.774472,0.449073 -0.540766,0.813833 0.520638,0.843804 1.402125,1.54101 1.943789,2.3696 l 0.251162,0.134532 c 1.098531,1.325756 2.828293,2.435584 4.467593,3.432009 l 0.991075,0.431076 c 0.21535,0.21494 0.7199,0.663893 0.91727,0.200367 0.0363,-1.726647 -0.69452,-3.572577 -2.339081,-4.793445 -0.999794,-0.73914 -1.426952,-0.595336 -2.318053,-0.64957 L 95.845335,66.90671 C 95.737527,66.493976 95.378034,66.077667 94.966531,65.829534 Z M 91.406132,49.54178 c -0.299235,-0.173877 -2.88812,0.813276 -2.585867,0.538198 -0.613226,0.665225 0.389251,0.888866 -1.894363,1.744524 l -0.553404,-0.05636 c -0.07122,-0.06643 -0.272172,-0.168179 -0.477476,0.116629 -0.02186,0.343737 0.430288,0.293083 0.57353,0.721133 0.816854,1.839909 0.367781,3.26384 0.287829,5.169611 l 0.604058,1.562031 c 1.145832,1.381996 1.143149,1.579473 1.920642,2.330242 0.777494,1.092494 0.939632,1.17636 1.981361,2.073949 0.169974,0.146372 0.484855,0.263004 0.687476,0.09001 0.491903,-0.383547 0.51762,-0.634699 0.66176,-1.125146 0.245098,-1.82235 -0.856106,-3.069942 -2.183982,-4.054415 -0.942989,-0.813388 -1.839795,-2.076184 -1.63751,-3.31796 l 0.08163,-0.08387 c 0.430291,0.362524 0.97184,0.57476 1.153997,1.023388 0.718562,1.603962 2.651392,2.33382 3.733824,3.724654 0.470879,0.834744 0.182595,2.283167 0,3.246281 -0.0057,-0.02662 1.418787,0.673164 1.032109,0.421903 0.67663,-0.278211 0.592765,-0.763069 0.919059,-1.381551 0.634697,-1.607431 0.580129,-3.058537 -0.400542,-4.449256 L 92.61168,54.46973 c -0.04239,-1.714893 0.430736,-3.922467 -1.205546,-4.927965 z m 11.428918,25.616691 0.18561,0.236278 c 0.83698,0.398419 1.61884,0.70636 2.54874,0.975399 l 1.1152,0.290533 c 0.29565,0.269039 0.81763,0.487413 1.11686,0.10747 0.0174,-1.444494 -1.0623,-3.179962 -2.66011,-3.846977 -0.50185,-0.218323 -1.17233,-0.290403 -1.76857,-0.436776 -0.14983,0.128027 -0.63469,-0.14416 -0.78017,0.218323 0.093,0.723821 0.37136,1.806586 0.24242,2.455724 z m 10.75888,2.702489 c -0.057,-1.03871 -1.4425,-1.897037 -2.60029,-2.217625 -0.49358,-0.07728 -0.9487,-0.04814 -1.38558,-0.04814 -0.11351,0.08093 -0.24455,0.176948 -0.22756,0.287827 0.0756,0.493685 0.15298,0.780626 0.1892,1.226119 l 0.28694,0.209735 c 1.0226,0.206092 2.27355,0.427719 3.30007,0.700219 0.15319,-0.03279 0.34105,-0.01821 0.43722,-0.158212 z M 80.572107,57.102353 c 2.997367,5.373569 6.639051,10.040764 10.53479,14.83689 l 5.459227,6.20564 c 3.895406,4.155283 8.198736,8.415876 12.973836,11.709813 0.59757,0.344632 0.86047,1.047427 1.48074,0.553847 l 0.56179,-0.517625 c 0.37773,-0.428058 0.0489,-1.642441 -0.3377,-1.983924 -0.30796,-0.25111 -0.60708,-0.499305 -0.90285,-0.744742 0.92991,-0.921743 2.27355,-2.674542 3.37723,-3.808517 0.4853,-0.499722 0.33546,-1.017347 1.20208,-1.42136 0.43498,-0.204011 0.55687,-0.676175 0.29968,-1.082765 -0.76933,-0.984585 -2.05192,-0.834752 -3.06055,-1.092055 -3.74512,-0.834752 -6.77391,-1.906223 -10.917,-3.916429 -3.31751,-1.756702 -5.972371,-3.704066 -8.372614,-6.723239 -0.918165,-1.133874 -1.946807,-1.992212 -2.715578,-3.359788 -2.184541,-2.806489 -3.919448,-5.439097 -5.654913,-8.329452 -0.619378,-0.909442 -0.822446,-1.361088 -1.690849,-2.184429 -0.421454,-0.40099 -0.797957,0.436775 -1.061854,0.727287 -0.03008,0.03276 -0.04809,0.06854 -0.06854,0.101302 -0.09048,-0.01119 -0.182594,0.0062 -0.272174,0.06643 -0.233701,0.299234 -0.963562,0.428052 -0.834744,0.963117 z m 34.738283,20.049202 c -0.11965,-0.125685 -0.26838,-0.281217 -0.46966,-0.22743 -0.45399,0.317127 -0.28178,0.721115 -0.25384,1.104233 0.0928,0.09212 0.10734,0.146502 0.25384,0.146502 0.21583,0.03617 0.33659,-0.122822 0.41598,-0.236537 0.13531,-0.248508 0.14983,-0.529361 0.0537,-0.786664 z M 65.002337,15.571716 c -0.877573,-0.02108 -1.493372,0.457347 -1.900066,1.492589 -0.41016,1.316919 -0.5477,2.480083 -0.263785,3.835134 0.0899,0.17164 0.28436,0.282123 0.41016,0.22488 l 1.223883,0.416309 c 0.41016,0.167294 0.74473,0.224984 1.136997,0.131957 l 0.248482,-0.245568 c -0.01874,-0.715434 -0.195241,-1.241776 -0.212676,-1.902192 -0.072,-1.65898 -0.212233,-2.152561 0.266023,-3.731698 -0.176453,-0.415752 -0.529363,-0.21481 -0.908997,-0.221393 z m -3.653422,4.625709 c -0.19178,-0.34374 -0.164613,-0.574425 -0.251604,-0.988501 -0.104321,-0.187747 -0.639841,0.06688 -0.810257,0.171639 -0.66433,0.359059 -0.619825,0.177026 -0.811598,0.792812 -0.10747,0.412843 -0.09516,0.897701 0.589744,1.25676 0.427605,0.242418 1.28371,0.531934 1.561586,0 0.08689,-0.359059 -0.340721,-0.823453 -0.277876,-1.232718 z m 61.203015,35.298392 c -1.5409,3.554685 -3.27301,6.614897 -4.53994,10.190605 -0.89793,1.283708 -0.38243,2.653519 -0.48978,4.024214 -0.57812,2.14172 -1.47828,3.79064 -2.33371,5.866707 -0.23706,0.598475 0.42716,0.771805 0.6631,1.196819 0.3869,1.050576 0.10846,2.229491 -0.36454,3.234555 -0.1912,0.57698 0.49425,0.984585 0.36454,1.582929 -0.0234,0.920858 -0.83419,1.543688 -1.47716,2.03425 -0.9639,1.391175 -1.4123,2.121033 -2.61203,3.383374 l 0,0.236798 c 0.59813,0.532821 1.09238,1.453679 1.07113,2.246379 -0.23705,0.897698 -0.42827,1.732892 -1.2865,2.355281 -1.36802,0.771362 -2.75841,-0.428032 -3.84989,-1.050108 -0.3027,-0.212337 -0.4521,-0.428058 -0.88015,-0.386111 -0.27653,0.09914 -0.56481,0.201929 -0.85532,0.306276 -0.27955,-0.318922 -0.62676,-0.656607 -1.05268,-0.99377 l 1.33011,-0.539405 c 0.048,-0.03591 0.0663,-0.06245 0.0663,-0.10747 0,-0.02342 -0.009,-0.0661 -0.0148,-0.102265 -0.0932,-0.07989 -3.0799,-2.698117 -3.0799,-2.698117 -0.009,-0.0052 -5.381392,-5.316322 -5.381392,-5.316322 0,-0.0026 -1.542015,-1.565494 -1.542015,-1.565494 -0.0073,-0.0078 -4.782483,-5.510782 -4.782483,-5.510782 -2.498983,-2.896845 -6.187295,-7.650589 -8.407952,-11.129683 -1.155004,-1.592112 -2.306763,-3.36034 -3.380917,-5.032851 -0.116629,-0.185613 -0.335462,-0.170755 -0.681772,-0.128365 -0.23685,0.02662 -0.479266,0.05111 -0.697654,-0.02368 0.0062,0 0.0091,0 0.0091,0 l -0.04765,-0.01275 c 0.01197,0.0034 0.02672,0.0065 0.03846,0.01275 -1.214716,-0.134975 -2.097095,-0.538978 -3.042322,-1.394748 -1.226902,-1.445289 -1.843261,-3.195626 -1.843261,-5.08384 0,-1.297351 0.296104,-2.665371 0.89144,-4.039208 -0.251162,-0.735114 -0.828595,-1.38457 -1.346217,-1.958997 l -0.287381,-0.323274 -0.367779,-0.361632 c -0.2394,-0.228002 -0.51147,-0.484855 -0.709394,-0.736007 l -0.01796,-0.02368 -0.01171,-0.03097 c -0.02394,-0.08085 -0.03588,-0.232479 0.20094,-0.34687 l 0.05592,-0.02974 0.06328,0.01535 c 1.131296,0.268596 1.843261,1.119107 2.533871,1.941553 0,0 0.434201,0.498834 0.497044,0.574427 0.101875,0.01744 0.185743,-0.03924 0.335129,-0.165056 0.07773,-0.06552 0.167293,-0.127585 0.269489,-0.176896 0,-0.0229 0,-0.05558 0,-0.05558 0,0 -0.01535,-0.365991 -0.01796,-0.448961 -2.678565,-2.644908 -4.85908,-4.138283 -7.710523,-5.81381 l -0.476023,-0.278324 0.550274,-0.0567 c 1.113403,-0.110593 2.169667,0.514041 3.190037,1.118995 l 1.226566,0.676183 c 1.133419,0.581024 2.184427,1.466312 3.20435,2.322527 0,0 0.92163,0.76564 1.02037,0.845144 0.09516,-0.01405 0.203073,-0.136197 0.286934,-0.235835 0,0 0.06027,-0.06508 0.09919,-0.107027 0.01796,-0.03276 0.855207,-1.690402 0.905863,-1.789586 -0.191207,-0.786216 -0.275081,-1.573772 -0.275081,-2.359988 0,-1.714443 0.371695,-3.420166 0.736343,-5.089656 0.358723,-1.645896 0.72997,-3.34502 0.72997,-5.014513 0,-0.110489 -0.0031,-0.218375 -0.0062,-0.328866 0,-0.515496 -0.565593,-1.199953 -1.035242,-1.415211 -1.071471,-0.182152 -2.363454,-0.195345 -3.73416,-0.207081 -1.677765,-0.01431 -3.416252,-0.02974 -4.750725,-0.391375 -0.430624,-0.05111 -0.92767,-0.192222 -1.40906,-0.326294 -0.473117,-0.132399 -0.960546,-0.269937 -1.415211,-0.331996 l -0.04507,-0.0057 -0.05111,-0.03924 -0.164275,-0.114495 c -0.15241,-0.09516 -0.340607,-0.210906 -0.386119,-0.436773 -0.0026,-0.01665 -0.0055,-0.03846 -0.0055,-0.05894 0,-0.128808 0.05982,-0.268594 0.154985,-0.368226 0.09303,-0.09605 0.209657,-0.139789 0.329425,-0.128808 0.404011,0 0.855655,0.163703 1.295561,0.323162 0.305271,0.110488 0.624969,0.227118 0.9185,0.277428 2.788599,0.476024 5.846238,0.381313 7.916161,0.214029 1.023501,0.01744 2.701714,0.0502 3.30622,1.501648 0.2184,0.588851 0.29353,1.136551 0.29353,1.662893 0,0.581024 -0.08957,1.14013 -0.182594,1.714558 l -0.182595,1.412078 c -0.122771,0.86147 -0.304824,1.719699 -0.481728,2.553103 -0.313658,1.47727 -0.637379,2.996474 -0.637379,4.535359 0,0.310973 0.01796,0.624631 0.04507,0.938737 0.02964,0.03971 0.0624,0.08733 0.101745,0.09303 0.09001,0.01223 0.248481,-0.113611 0.374265,-0.213249 0.143354,-0.112257 0.289617,-0.220508 0.451311,-0.261997 0.185613,-0.140674 0.395289,-0.180044 0.586616,-0.204063 0.266468,-0.03622 0.41016,-0.06898 0.494026,-0.275193 0.119648,-1.351806 0.586613,-2.749572 1.037812,-4.10149 0.311423,-0.930465 0.634699,-1.894922 0.840784,-2.83355 0.368228,-1.645899 0.739139,-3.315725 0.739139,-4.960279 0,-0.978436 -0.131956,-1.951282 -0.475687,-2.905676 -0.715432,-1.3016 -2.280148,-1.307302 -3.790966,-1.313901 l -0.451644,0 -3.704081,0.224984 c -3.177734,0.230579 -6.462486,0.466518 -9.8311,-0.07739 0.02368,0.0031 -0.754459,-0.08163 -0.754459,-0.08163 -0.415749,-0.0625 -0.807572,-0.114053 -1.229584,-0.01431 -0.155428,0.125347 -0.281231,0.343737 -0.281231,0.570959 0,0.07247 0.01171,0.146268 0.04192,0.219624 0.601487,1.327879 0.904188,2.527833 0.904188,3.589687 0,0.861359 -0.198364,1.631025 -0.593213,2.306312 -0.870529,1.670274 -1.828054,2.828296 -3.009558,3.63598 -1.446297,1.44708 -2.682814,2.730004 -3.781796,3.979272 -0.642971,0.08075 -1.038371,0.207888 -1.080639,0.221861 l -0.143353,0.04887 -0.642972,-0.7927 c 0.834747,-0.791584 1.606201,-1.584285 2.548742,-2.440499 1.43366,-0.771792 2.591123,-2.163407 3.617642,-3.105613 1.241774,-1.453676 1.540113,-2.995579 1.28326,-4.708682 -0.170312,-2.032462 -2.031903,-2.911378 -3.296937,-4.261061 -0.51147,-0.96401 -0.834746,-2.118451 -0.128808,-3.019621 0.452094,-1.196376 2.375755,-0.980559 2.612032,-1.967718 0.529811,-2.175371 4.302548,-3.432018 5.038555,-3.483568 0.732876,-0.05019 1.492925,-0.860463 1.492925,-0.860463 1.498741,-1.092942 3.467801,-0.829938 4.503042,-0.670482 1.031664,0.154986 2.881074,-0.679201 4.038649,-0.508897 1.732335,0.685798 3.147543,0.36476 4.945519,0.514601 5.651668,-0.08743 12.072667,0.04226 17.852933,-0.684905 1.071025,0.128807 2.353945,-0.706376 3.363355,-0.195346 0.25775,0.431183 0.0628,0.792815 0,1.15847 -2.761868,4.34392 -3.175944,9.220893 -1.61011,13.953616 l 1.04396,-0.05982 c 3.74825,-0.407586 7.15835,0.07726 10.96587,2.283167 1.90655,1.049668 2.90847,3.504479 2.82236,5.280871 -0.0637,1.155337 -0.46406,2.519556 -0.26949,3.740421 0.066,0.544682 0.42604,1.371487 0.89458,1.632256 0.20239,0.111373 0.90351,0.587956 1.1238,1.196821 0.36118,0.991631 -0.41486,1.458933 -0.6385,1.593455 0.60495,0.24679 1.1909,1.483866 0.63403,2.446983 -0.35783,0.380082 -0.77381,1.88486 -0.81854,2.378437 -0.12748,0.705369 -0.14871,1.432656 0.5155,1.884748 1.49952,0.789794 2.91071,0.98414 4.47285,1.66994 1.07125,0.448514 1.627,1.561136 1.58563,2.566632 l -0.64298,2.183982 z m -0.44617,-3.737291 c -1.58674,-1.475482 -3.83323,-1.499076 -5.65256,-2.696345 -0.83531,-0.832958 -0.62284,-1.782208 -0.28291,-2.832657 0.67316,-1.330895 0.41933,-1.193357 -0.52109,-1.507015 -2.19505,-0.731646 -2.17156,-3.133568 -4.81144,-2.730788 -0.15075,-0.04507 -0.76877,0.264235 -0.40323,-0.178249 0.28392,-0.338595 0.40323,-0.134064 0.96234,-0.201824 0.94019,-0.04494 1.29019,0.342844 1.95105,0.791469 0.94266,0.79326 0.82972,1.091152 1.98818,1.648023 0.27732,0.06552 0.96167,0.268705 1.34298,0.134194 0.2572,-0.23672 0.26501,-0.242419 0.30639,-0.455225 -0.15095,-0.643421 -1.09026,-1.178486 -1.44809,-1.402127 0.49313,-0.361629 1.4179,-0.973179 1.26805,-1.485098 -0.21134,-0.336359 -0.20127,-0.393165 -0.57476,-0.574427 -0.5222,-0.25327 -1.56661,-0.215252 -2.55176,0.514603 -0.14983,-0.04494 -0.3131,0.291293 -0.73466,-0.109707 0.9583,-0.987159 2.3024,-0.76307 2.50367,-0.964012 0.20128,-0.20094 -0.71789,-1.393405 -0.75926,-1.650146 -0.64297,-1.710977 0.14648,-3.287879 -0.1968,-5.065615 -0.21247,-1.391278 -0.62956,-2.052142 -1.84729,-2.928823 -2.23274,-1.547492 -3.79913,-1.995225 -6.30638,-2.39711 -6.572522,-0.449971 -10.719973,1.806135 -15.452696,5.34114 -4.733617,3.53467 -6.544561,5.415056 -8.021831,7.404692 -0.0216,0.813835 0.576996,1.432768 0.06552,2.312912 -0.427716,-0.149391 -0.385782,-0.706376 -0.642971,-1.028645 -0.36476,-0.515496 -1.241888,-0.898594 -1.864284,-0.835192 -1.946809,0.663883 -2.055164,2.953646 -3.273007,4.259719 -2.611587,2.570548 -3.342002,6.274627 -1.94815,9.377218 0.491007,0.963564 1.368133,1.884747 2.355291,2.225913 1.217284,0.194461 2.653966,0.194461 3.446778,-0.984473 0.939073,-0.897701 1.520097,-2.354396 1.753356,-3.63777 0.386119,-0.622844 -0.08431,-1.328772 0.555976,-1.843709 1.112958,-0.103982 2.076186,-0.382204 3.147655,0.30013 0.792815,-0.104894 0.90061,-0.985035 1.499077,-1.36858 l 1.071024,-0.642974 c 1.133981,-0.468641 2.591571,-0.468641 3.554685,0.365655 1.798311,1.840243 1.405705,3.733712 2.024638,5.765282 1.714442,1.51965 2.85446,3.694909 2.833549,5.816941 -0.107912,1.304283 -0.576662,2.653183 -1.348452,3.957913 0.127585,0.771789 0.556088,1.349235 0.813276,2.034588 0.215356,0.128366 0.493578,0.128366 0.727285,0.170313 1.90577,0.407139 3.641241,2.142144 4.388981,3.961376 l 0.17042,0.170183 c 2.18398,0.149885 4.90392,0.921742 6.16627,3.213191 0.25819,0.984585 1.37071,0.257876 2.05516,0.4909 1.15534,0.06557 2.31269,0.705918 3.19049,1.456802 0.25608,0.08691 0.4484,-0.194383 0.6016,-0.319807 0.51102,-1.714443 1.45367,-3.362921 1.9893,-5.098259 0.6631,-1.304731 0.90128,-2.545718 0.6631,-3.87449 0.27955,-2.03157 1.43466,-3.936893 2.24649,-5.992837 0.81517,-2.163071 2.07764,-4.347053 2.99904,-6.573078 0.16998,-0.897589 0.55575,-1.606984 0,-2.334268"
             style="fill:#4d4d4d;fill-opacity:1;fill-rule:nonzero;stroke:none"
             id="path16"
             inkscape:connector-curvature="0" /><path
             d="m 112.36389,68.822228 c 0.29857,-0.386121 0.49426,-0.727287 0.2572,-1.092495 -0.55575,-0.04239 -0.64409,0.664442 -1.11284,0.900714 -0.77146,0.38265 -1.45726,-0.02342 -2.22603,-0.215824 -1.94804,-0.834632 -3.57604,-2.504125 -5.46001,-3.380355 -0.2337,0 -0.44941,0.02082 -0.59925,0.191338 0.32104,0.320145 0.8343,0.386121 1.24133,0.643421 1.94949,1.28326 3.83346,3.29393 6.2725,3.659015 0.64208,0.04163 1.2212,-0.19152 1.62711,-0.705814"
             style="fill:#4d4d4d;fill-opacity:1;fill-rule:nonzero;stroke:none"
             id="path18"
             inkscape:connector-curvature="0" /><path
             d="m 110.49436,61.722025 c -0.3036,-0.445945 -0.78141,-0.05681 -1.20331,-0.110489 -0.96323,0.110489 -2.59113,-0.114053 -3.65343,0.01743 -0.16079,0.09303 -0.28089,0.260766 -0.18259,0.41016 0.16292,0.263337 0.60495,0.28123 0.88585,0.487876 1.16406,0.72639 2.3866,1.418339 3.7128,1.735019 0.23974,0.03578 0.44069,-0.167736 0.48217,-0.335465 0.15858,-0.615911 0.0595,-1.6062 -0.0415,-2.204555 z m 1.7197,3.802815 c -0.14872,0.47211 -0.1286,1.241776 -0.70582,1.349236 -0.12938,-0.299235 0,-0.622396 -0.12938,-0.900272 -0.16985,-0.212676 -0.46954,-0.469539 -0.81328,-0.383436 -2.35529,-0.149391 -4.11166,-2.228598 -6.12176,-3.296601 -0.68446,-0.386121 -1.4567,-0.601488 -2.1832,-0.793708 -0.0663,-0.10734 -0.0423,-0.25673 0.0625,-0.319698 2.22905,-0.236277 4.43136,-0.451646 6.63939,-0.684458 l 2.45794,0.277764 c 0.0667,0.320258 -0.31847,0.598467 -0.25642,0.963677 0.28168,1.0046 0.36599,2.096983 0.0864,3.039636 0.19524,0.511471 0.92219,0.128027 0.96356,0.74786"
             style="fill:#4d4d4d;fill-opacity:1;fill-rule:nonzero;stroke:none"
             id="path20"
             inkscape:connector-curvature="0" /><path
             d="m 113.45974,54.48853 c 0.0783,0.111816 0.16662,0.2394 0.27285,0.249471 0.14088,-0.05199 0.21358,-0.117983 0.23258,-0.37572 -0.0167,-0.413179 -0.12301,-0.84738 -0.2337,-1.307302 -0.12748,-0.523771 -0.25832,-1.05973 -0.25832,-1.583837 0,-0.233259 0.0268,-0.463835 0.0883,-0.689711 0.31087,-0.385674 0.78834,-0.473006 1.36087,-0.276536 0.0112,0.0052 0.97508,0.557877 0.97508,0.557877 0.83866,0.502301 1.63147,0.975303 3.09968,1.349236 0.0369,0.0096 0.0447,-0.0022 0.0503,-0.0088 0.0224,-0.02662 0.0335,-0.08129 0.0335,-0.150744 0,-0.125347 -0.0369,-0.297445 -0.0973,-0.43722 -0.057,-0.02524 -1.41454,-0.631119 -1.41454,-0.631119 -1.06789,-0.46652 -2.17269,-0.950148 -3.20927,-1.543246 -0.30527,-0.06342 -0.58818,0.102656 -0.86214,0.26211 l -0.0671,0.03968 c -0.39361,0.538978 -0.52108,1.060958 -0.52108,1.582942 0,0.4692 0.10174,0.937844 0.20799,1.418786 0.0984,0.447733 0.1968,0.91112 0.2203,1.397318 0.0335,0.04104 0.12189,0.146711 0.12189,0.146711"
             style="fill:#4d4d4d;fill-opacity:1;fill-rule:nonzero;stroke:none"
             id="path22"
             inkscape:connector-curvature="0" /><path
             d="m 80.102568,54.927093 c 0.771456,-1.582494 -0.04283,-3.081123 0,-4.73015 0.128469,-0.469539 1.050113,-0.536295 0.771456,-1.091935 -0.215824,-0.149833 -0.515048,-0.191338 -0.750881,-0.02108 -0.428052,0.27866 -0.577443,0.49056 -0.684905,0.985033 -0.107912,1.453676 1.049668,3.147099 0.02056,4.517357 -0.299123,0.299232 -0.726837,0.598467 -1.154889,0.61893 -0.921631,-0.170312 -1.39117,-1.154889 -1.710977,-1.881281 -0.493581,-1.927127 -0.622399,-3.961379 1.068005,-5.502387 0.987156,-0.577446 2.184091,-1.199842 2.249507,-2.44173 0.149391,-0.214914 0.448628,-0.428053 0.684906,-0.299123 0.299234,0.02082 0.341613,0.877014 0.769666,0.470767 l 0.128469,-0.300462 c -0.107912,-0.340274 -0.212806,-0.942206 -0.768771,-0.963117 -0.278659,-0.06341 -0.580576,0.08733 -0.814283,0.25686 -0.601375,0.620161 -0.128365,1.562367 -1.136999,1.969061 -1.668931,0.514936 -2.760978,2.270978 -2.93173,3.919895 -0.10747,1.582495 -0.04192,3.317513 1.328327,4.708682 0.535512,0.407587 1.242221,0.664775 1.926679,0.449073 0.386119,-0.06295 0.835194,-0.341166 1.005944,-0.664442"
             style="fill:#4d4d4d;fill-opacity:1;fill-rule:nonzero;stroke:none"
             id="path24"
             inkscape:connector-curvature="0" /><path
             d="m 59.475014,42.694967 c 2.226025,1.032108 4.76951,0.911565 5.726478,0.819872 -0.27251,-0.883274 -1.196376,-3.175611 -3.728008,-4.416939 -2.540022,-1.244011 -4.715279,-0.94791 -5.510777,-0.774475 0.293083,0.880147 1.276776,3.332834 3.512307,4.371542 z m -0.302701,0.653817 C 56.124401,41.934918 55.193937,38.305087 55.154688,38.14999 l -0.08085,-0.320143 0.314554,-0.107912 c 0.119648,-0.03937 2.94962,-0.966695 6.402102,0.72941 3.48312,1.708851 4.197768,5.155182 4.22785,5.301557 l 0.07166,0.36599 -0.368225,0.05894 c -0.143354,0.02498 -3.557371,0.560446 -6.549484,-0.829045"
             style="fill:#4d4d4d;fill-opacity:1;fill-rule:evenodd;stroke:none"
             id="path26"
             inkscape:connector-curvature="0" /><path
             d="m 62.50783,49.535184 c 2.217191,1.001247 4.637003,0.872317 5.565232,0.774027 -0.285255,-0.861359 -1.230482,-3.057529 -3.758201,-4.26531 -2.519556,-1.202973 -4.679944,-0.97631 -5.50552,-0.820768 0.350784,0.897142 1.466424,3.303981 3.698489,4.312051 z m -0.296663,0.657398 c -3.054509,-1.379429 -4.182338,-4.975153 -4.227291,-5.127117 l -0.104893,-0.34374 0.341613,-0.106221 c 0.119206,-0.03791 2.940565,-0.878803 6.405683,0.778834 3.496985,1.671616 4.238696,5.002325 4.268889,5.1421 l 0.07515,0.365994 -0.364762,0.06552 c -0.138098,0.02394 -3.390532,0.580913 -6.394387,-0.775367"
             style="fill:#4d4d4d;fill-opacity:1;fill-rule:evenodd;stroke:none"
             id="path28"
             inkscape:connector-curvature="0" /><path
             d="m 66.468314,56.121791 c 2.208024,0.972287 4.505502,0.834746 5.406224,0.729858 -0.299235,-0.840784 -1.26537,-2.937879 -3.790518,-4.113344 -2.492384,-1.157911 -4.634543,-0.999459 -5.49635,-0.865275 0.413738,0.91291 1.652048,3.270325 3.880644,4.248761 z m -0.290512,0.660864 C 63.120611,55.439459 61.79497,51.87907 61.740735,51.727105 l -0.134064,-0.365991 0.37393,-0.103982 c 0.119648,-0.03276 2.93486,-0.790575 6.40568,0.828597 3.512754,1.633596 4.281525,4.84678 4.314286,4.984768 l 0.08085,0.362077 -0.36476,0.07169 c -0.128938,0.02662 -3.219223,0.607188 -6.238844,-0.721583"
             style="fill:#4d4d4d;fill-opacity:1;fill-rule:evenodd;stroke:none"
             id="path30"
             inkscape:connector-curvature="0" /><path
             d="m 70.402074,62.628334 c 2.202431,0.939634 4.377691,0.795833 5.245089,0.688483 -0.311423,-0.819872 -1.298581,-2.82438 -3.821044,-3.967081 -2.464876,-1.115976 -4.592612,-1.02037 -5.484049,-0.906311 0.476021,0.929905 1.840242,3.236666 4.060004,4.184909 z m -0.284361,0.664441 c -3.060212,-1.310431 -4.580311,-4.838057 -4.643154,-4.984432 l -0.164275,-0.388689 0.409265,-0.102213 c 0.117072,-0.03019 2.923567,-0.703243 6.40568,0.876232 3.525054,1.598261 4.320885,4.694704 4.354097,4.826205 l 0.08957,0.362077 -0.365655,0.07817 c -0.122329,0.02672 -3.048024,0.628212 -6.085538,-0.667351"
             style="fill:#4d4d4d;fill-opacity:1;fill-rule:evenodd;stroke:none"
             id="path32"
             inkscape:connector-curvature="0" /><path
             d="m 75.847322,69.138912 c 2.190019,0.909435 4.248761,0.760044 5.086079,0.642972 -0.325847,-0.795381 -1.334029,-2.704292 -3.850454,-3.81412 -2.456489,-1.083324 -4.559289,-1.038707 -5.471749,-0.948354 0.547253,0.944776 2.025418,3.20133 4.236124,4.119502 z m -0.274857,0.667016 c -3.069827,-1.274207 -4.780692,-4.769076 -4.853264,-4.915337 l -0.200055,-0.412845 0.445497,-0.0956 c 0.119752,-0.02751 2.916968,-0.613676 6.408811,0.924313 3.539366,1.561474 4.362371,4.541836 4.395133,4.667183 l 0.0956,0.359517 -0.36163,0.08691 c -0.113611,0.02654 -2.881635,0.651689 -5.930106,-0.614113"
             style="fill:#4d4d4d;fill-opacity:1;fill-rule:evenodd;stroke:none"
             id="path34"
             inkscape:connector-curvature="0" /><path
             d="m 81.85246,75.422254 c 2.175257,0.87623 4.11681,0.723378 4.924049,0.601024 -0.340721,-0.774797 -1.369364,-2.593692 -3.88277,-3.667713 -2.433008,-1.044877 -4.515232,-1.053595 -5.451286,-0.987291 0.61334,0.960098 2.208023,3.165103 4.410007,4.05398 z m -0.269153,0.667015 C 78.510458,74.850504 76.60167,71.388857 76.520823,71.242485 l -0.233259,-0.434095 0.484855,-0.09264 c 0.116187,-0.02082 2.908248,-0.526446 6.405235,0.975764 3.557368,1.525343 4.406427,4.388516 4.439191,4.50819 l 0.102655,0.356472 -0.356823,0.09212 c -0.11002,0.02758 -2.715577,0.676618 -5.779368,-0.559103"
             style="fill:#4d4d4d;fill-opacity:1;fill-rule:evenodd;stroke:none"
             id="path36"
             inkscape:connector-curvature="0" /><path
             d="m 88.263842,81.358387 c 2.156474,0.843027 3.987994,0.687599 4.764144,0.562252 -0.35682,-0.751326 -1.406485,-2.480211 -3.913743,-3.525062 -2.397111,-0.998897 -4.464127,-1.064862 -5.430263,-1.022941 0.687924,0.975763 2.395323,3.129662 4.579862,3.985751 z m -0.26345,0.672714 C 84.922287,80.825566 82.821726,77.39668 82.73473,77.249865 l -0.277764,-0.4578 0.529361,-0.08353 c 0.117071,-0.01821 2.899972,-0.440236 6.405344,1.023045 3.569447,1.487247 4.44523,4.230434 4.482355,4.347063 l 0.107028,0.353792 -0.352462,0.09836 c -0.101303,0.02966 -2.545612,0.705814 -5.628187,-0.499748"
             style="fill:#4d4d4d;fill-opacity:1;fill-rule:evenodd;stroke:none"
             id="path38"
             inkscape:connector-curvature="0" /><path
             d="m 94.935992,86.839426 c 2.136794,0.810707 3.856941,0.652131 4.598985,0.520201 -0.371245,-0.72684 -1.44529,-2.3666 -3.940804,-3.377805 -2.378325,-0.960541 -4.419065,-1.074022 -5.406221,-1.056145 0.759937,0.984142 2.570545,3.087272 4.74804,3.913749 z m -0.257745,0.673052 c -3.087384,-1.172774 -5.379721,-4.568456 -5.475775,-4.71259 l -0.323273,-0.484421 0.578786,-0.0752 c 0.115745,-0.01561 2.88946,-0.350331 6.40568,1.074516 3.583983,1.451103 4.488165,4.074537 4.523615,4.188148 l 0.11307,0.344632 -0.34676,0.110593 c -0.0966,0.02967 -2.377545,0.730326 -5.47533,-0.445597"
             style="fill:#4d4d4d;fill-opacity:1;fill-rule:evenodd;stroke:none"
             id="path40"
             inkscape:connector-curvature="0" /><path
             d="m 101.70945,91.748611 c 2.11544,0.778388 3.73159,0.619369 4.44009,0.481818 -0.3888,-0.699776 -1.48074,-2.256085 -3.97279,-3.234086 -2.345557,-0.921639 -4.359234,-1.080632 -5.370434,-1.089349 0.83128,0.993745 2.739621,3.043191 4.903134,3.841617 z m -0.24767,0.676617 C 98.367907,91.284773 95.884693,87.919172 95.779021,87.77548 L 95.4099,87.267484 96.034534,87.20373 c 0.115745,-0.01041 2.883756,-0.263001 6.407466,1.122136 3.59707,1.4122 4.52787,3.91989 4.56667,4.02736 l 0.11931,0.341041 -0.34072,0.1197 c -0.0873,0.03279 -2.21238,0.757363 -5.32549,-0.388817"
             style="fill:#4d4d4d;fill-opacity:1;fill-rule:evenodd;stroke:none"
             id="path42"
             inkscape:connector-curvature="0" /><path
             d="m 52.582352,43.689953 c 0,0.11093 0.0031,0.217932 0.0091,0.328529 0.161569,2.477513 1.501759,4.66194 2.04074,5.447708 0.625079,-0.642971 2.112302,-2.44911 2.112302,-5.112691 0,-0.101432 -0.0034,-0.206196 -0.0096,-0.311087 -0.12277,-2.839142 -1.433213,-4.619113 -1.971296,-5.236364 -0.610654,0.653481 -2.181408,2.556681 -2.181408,4.883905 z m 1.714891,6.551607 c -0.09048,-0.115745 -2.208471,-2.865421 -2.426856,-6.175107 -0.218401,-3.369061 2.537334,-5.941845 2.656537,-6.048859 l 0.242106,-0.22488 0.245906,0.22488 c 0.09258,0.08309 2.273996,2.129414 2.441727,5.995184 0.170312,3.891829 -2.531297,6.187295 -2.645691,6.282454 l -0.286598,0.240311 -0.227118,-0.293978"
             style="fill:#4d4d4d;fill-opacity:1;fill-rule:evenodd;stroke:none"
             id="path44"
             inkscape:connector-curvature="0" /><path
             d="m 56.51656,51.029116 c 0,0.211791 0.01223,0.430176 0.0389,0.648675 0.04497,0.377844 0.114496,0.739026 0.206639,1.077061 0.526789,1.95732 1.618724,3.485694 2.109731,4.105519 0.517172,-0.616247 1.645001,-2.217191 1.645001,-4.500357 0,-0.269044 -0.01796,-0.546808 -0.05066,-0.835194 -0.329425,-2.734365 -1.690401,-4.430471 -2.26181,-5.037548 -0.508897,0.672605 -1.687828,2.44732 -1.687828,4.541844 z m 2.079202,6.627086 c -0.07122,-0.08119 -1.794394,-1.980801 -2.530401,-4.712593 -0.09907,-0.370464 -0.176896,-0.768326 -0.22488,-1.178486 -0.397527,-3.267304 1.962461,-5.944864 2.064667,-6.058475 l 0.233259,-0.261214 0.269153,0.227118 c 0.09303,0.08129 2.321522,2.013677 2.773614,5.765839 0.455224,3.794544 -1.968165,6.136639 -2.070371,6.235378 l -0.266468,0.252047 -0.248586,-0.269601"
             style="fill:#4d4d4d;fill-opacity:1;fill-rule:evenodd;stroke:none"
             id="path46"
             inkscape:connector-curvature="0" /><path
             d="m 60.944904,57.835789 c 0,0.337587 0.02662,0.688371 0.09259,1.038259 0.06854,0.385224 0.152409,0.723819 0.257303,1.035242 0.652589,1.926231 1.810497,3.320531 2.33382,3.886236 0.412734,-0.583595 1.223883,-1.971746 1.223883,-3.880982 0,-0.430736 -0.04239,-0.888084 -0.140673,-1.369809 -0.526678,-2.623887 -1.936297,-4.236124 -2.546056,-4.835041 -0.401441,0.679316 -1.220865,2.282386 -1.220865,4.126095 z m 2.471473,6.773461 c -0.07783,-0.07156 -1.885307,-1.756377 -2.803919,-4.469832 -0.116629,-0.344187 -0.211791,-0.718452 -0.286484,-1.140018 -0.574875,-3.159399 1.390272,-5.939162 1.474585,-6.058812 l 0.218401,-0.304936 0.296663,0.233259 c 0.09516,0.07471 2.372286,1.893582 3.105162,5.535153 0.742159,3.689205 -1.403355,6.082404 -1.496055,6.181141 L 63.682311,64.854361 63.4164,64.609263"
             style="fill:#4d4d4d;fill-opacity:1;fill-rule:evenodd;stroke:none"
             id="path48"
             inkscape:connector-curvature="0" /><path
             d="m 65.815725,64.08559 c 0,0.497044 0.05111,1.014666 0.176454,1.528708 0.09303,0.38623 0.194799,0.712525 0.311423,0.996438 0.777941,1.890904 1.99534,3.153245 2.55176,3.665171 0.308405,-0.526785 0.858788,-1.681239 0.858788,-3.24282 0,-0.586616 -0.07739,-1.233054 -0.275638,-1.918407 -0.720688,-2.50994 -2.171346,-4.041778 -2.823935,-4.634543 -0.286934,0.652589 -0.798852,2.028549 -0.798852,3.605453 z m 2.899414,7.02192 c -0.08075,-0.06245 -1.971744,-1.531823 -3.078998,-4.224264 -0.131488,-0.317125 -0.242418,-0.676631 -0.347205,-1.098532 -0.742159,-3.054958 0.817189,-5.932677 0.882717,-6.055791 l 0.197479,-0.355593 0.329313,0.2394 c 0.09875,0.06898 2.420819,1.773822 3.43459,5.301895 1.029093,3.581298 -0.834746,6.025617 -0.915593,6.127024 l -0.218375,0.281685 -0.283915,-0.21572"
             style="fill:#4d4d4d;fill-opacity:1;fill-rule:evenodd;stroke:none"
             id="path50"
             inkscape:connector-curvature="0" /><path
             d="m 71.066068,69.710636 c 0,0.703264 0.08431,1.45714 0.314442,2.198422 0.12009,0.383534 0.235939,0.688925 0.364762,0.954503 0.912908,1.864172 2.190579,3.000724 2.773726,3.456391 0.221862,-0.458243 0.559554,-1.358517 0.559554,-2.576257 0,-0.736442 -0.122771,-1.582591 -0.475688,-2.507248 -0.903405,-2.390618 -2.399349,-3.847323 -3.099126,-4.431365 -0.173877,0.584042 -0.43767,1.658085 -0.43767,2.905554 z m 3.387402,7.446644 c -0.08387,-0.05074 -2.04946,-1.304288 -3.353854,-3.976253 -0.146269,-0.302269 -0.27866,-0.637273 -0.40703,-1.056171 -0.915591,-2.950164 0.242419,-5.923833 0.29353,-6.049632 l 0.164276,-0.41016 0.371247,0.242418 c 0.09828,0.06898 2.465324,1.660659 3.757306,5.071662 1.316583,3.473383 -0.262892,5.965903 -0.331884,6.070224 l -0.194799,0.296544 -0.298787,-0.188658"
             style="fill:#4d4d4d;fill-opacity:1;fill-rule:evenodd;stroke:none"
             id="path52"
             inkscape:connector-curvature="0" /><path
             d="m 76.640023,74.625962 c 0,0.9544 0.123239,2.07664 0.529922,3.141528 0.143693,0.368208 0.275191,0.658272 0.421901,0.912895 1.041391,1.83063 2.372736,2.842277 2.989093,3.240254 0.134974,-0.376951 0.320593,-1.029551 0.320593,-1.927249 0,-0.855647 -0.171301,-1.908773 -0.727287,-3.075094 -1.089362,-2.288743 -2.633055,-3.65642 -3.37208,-4.224709 -0.07515,0.442474 -0.162142,1.125259 -0.162142,1.932375 z m 3.95523,8.141164 c -0.08644,-0.0419 -2.12371,-1.080188 -3.631506,-3.730712 -0.161569,-0.284808 -0.311424,-0.607165 -0.466966,-1.011179 -1.088916,-2.84272 -0.322828,-5.909096 -0.290064,-6.037904 l 0.119752,-0.469666 0.415752,0.251109 c 0.101875,0.05959 2.512959,1.541112 4.081139,4.83851 1.600834,3.362452 0.307845,5.899911 0.251162,6.004232 l -0.164276,0.314109 -0.315001,-0.158473"
             style="fill:#4d4d4d;fill-opacity:1;fill-rule:evenodd;stroke:none"
             id="path54"
             inkscape:connector-curvature="0" /><path
             d="m 82.468707,78.709685 c 0,1.12872 0.137655,2.90512 0.86449,4.482012 0.161569,0.347208 0.317124,0.631132 0.476135,0.87355 1.178483,1.798754 2.563166,2.690311 3.203902,3.03104 0.06854,-0.287046 0.141116,-0.714662 0.141116,-1.280244 0,-0.948363 -0.212338,-2.232068 -1.035242,-3.650409 -1.265817,-2.184422 -2.851442,-3.467346 -3.638103,-4.017732 -0.0062,0.164197 -0.01223,0.34687 -0.01223,0.561783 z m 4.64718,9.233531 c -0.09092,-0.03617 -2.190578,-0.861814 -3.911173,-3.47955 -0.179472,-0.27518 -0.350224,-0.592307 -0.526789,-0.969258 -1.258774,-2.734807 -0.888422,-5.894212 -0.870977,-6.025726 l 0.06339,-0.526784 0.466518,0.254232 c 0.105232,0.05673 2.557912,1.424379 4.406877,4.607827 1.882621,3.248399 0.876678,5.827779 0.835194,5.936134 l -0.134637,0.328862 -0.328418,-0.125685"
             style="fill:#4d4d4d;fill-opacity:1;fill-rule:evenodd;stroke:none"
             id="path56"
             inkscape:connector-curvature="0" /><path
             d="m 89.843653,88.190891 c 0.173435,0.320588 0.347318,0.593218 0.529923,0.838213 1.316471,1.762531 2.758404,2.537329 3.423181,2.821252 0.01978,-0.16784 0.03846,-0.370784 0.03846,-0.631106 0,-0.966708 -0.236277,-2.51599 -1.421807,-4.230433 -1.439252,-2.079658 -3.06983,-3.285194 -3.901108,-3.814997 0.07783,1.056145 0.346423,3.22269 1.331343,5.017071 z m 4.137388,4.500358 c -0.08902,-0.02654 -2.252529,-0.642972 -4.185359,-3.231407 -0.203178,-0.269143 -0.394505,-0.57443 -0.586166,-0.920858 -1.436234,-2.627338 -1.45021,-5.879327 -1.45021,-6.017763 l 0.0017,-0.577006 0.518962,0.254753 c 0.107027,0.0536 2.605547,1.310429 4.726239,4.379824 2.165642,3.132342 1.450991,5.753981 1.418229,5.861451 l -0.09828,0.344189 -0.345079,-0.09316"
             style="fill:#4d4d4d;fill-opacity:1;fill-rule:evenodd;stroke:none"
             id="path58"
             inkscape:connector-curvature="0" /><path
             d="m 97.221284,93.573984 c 1.460273,1.726283 2.956336,2.387157 3.644256,2.618283 0.004,-0.01822 0.004,-0.02758 0.004,-0.04814 0,-0.831733 -0.21671,-2.707745 -1.874346,-4.754199 -1.60307,-1.980906 -3.287767,-3.10874 -4.161427,-3.614499 0.232478,1.283705 0.888083,4.030379 2.38716,5.798504 z m 3.913746,3.441168 c -0.0926,-0.01561 -2.309336,-0.428031 -4.462789,-2.974207 -2.143835,-2.528612 -2.646138,-6.707939 -2.667159,-6.884392 l -0.07156,-0.625979 0.57398,0.255013 c 0.108251,0.04762 2.653966,1.193357 5.051524,4.152264 2.440834,3.016155 2.012784,5.673236 1.995344,5.783282 l -0.0633,0.356029 -0.35604,-0.06219"
             style="fill:#4d4d4d;fill-opacity:1;fill-rule:evenodd;stroke:none"
             id="path60"
             inkscape:connector-curvature="0" /><path
             d="m 34.262899,61.234484 c 0,27.331121 22.235768,49.570036 49.570363,49.570036 8.086578,0 16.06916,-2.00498 23.165788,-5.76215 -1.03737,-1.18532 -5.14244,-5.868401 -5.77445,-6.58517 -5.456544,2.55513 -11.303118,3.8623 -17.391338,3.8623 -22.655099,0 -41.088161,-18.430264 -41.088161,-41.085016 0,-10.107076 3.428886,-19.327076 9.8888,-26.729641 -0.371694,-0.858229 -1.03267,-2.740853 -1.03267,-5.232789 0,-2.06176 0.478818,-4.535356 1.929364,-7.16584 -11.994506,9.556021 -19.267696,24.08395 -19.267696,39.12827 z m -1.627559,0 c 0,-17.446242 9.442298,-34.230834 24.644398,-43.807655 l 0.628548,-0.395288 0.452094,0.590082 c 0.127923,0.166825 0.179472,0.324952 0.179472,0.472667 0,0.37337 -0.320591,0.666903 -0.500065,0.834299 l -0.879808,0.843802 c -3.132225,3.557818 -3.972676,6.932136 -3.972676,9.526726 0,2.868884 1.025627,4.783377 1.10994,4.930533 l 0.280782,0.505433 -0.386118,0.433754 c -6.423573,7.165729 -9.816229,16.177851 -9.816229,26.065647 0,21.757184 17.700074,39.456916 39.457584,39.456916 6.049752,0 11.853499,-1.331792 17.250218,-3.958037 l 0.55911,-0.272058 7.93282,9.047345 -0.87936,0.4909 c -7.56102,4.21006 -16.159406,6.43307 -24.862788,6.43307 -28.231289,0 -51.197922,-22.96976 -51.197922,-51.198136"
             style="fill:#4d4d4d;fill-opacity:1;fill-rule:evenodd;stroke:none"
             id="path62"
             inkscape:connector-curvature="0" /><path
             d="m 101.79243,98.19667 c -5.620811,2.73738 -11.661283,4.12283 -17.959168,4.12283 -22.655099,0 -41.088161,-18.430264 -41.088161,-41.085016 0,-10.296278 3.539478,-19.684008 10.235111,-27.15199 l 0.703243,-0.78454 3.124062,4.721878 -0.166826,0.193446 c -0.279554,0.03276 -0.511135,0.07302 -0.677973,0.11015 0.04283,0.128807 0.10354,0.297446 0.179134,0.486088 -0.245906,0.292748 -0.492238,0.585383 -0.725497,0.883275 -0.252489,-0.400542 -0.488884,-0.698882 -0.652589,-0.886741 -0.610655,0.653482 -2.181408,2.556681 -2.181408,4.883905 0,0.07515 0.0031,0.148038 0.0065,0.222304 -2.92256,5.145569 -4.404639,10.944953 -4.404639,17.322233 0,19.656596 15.99178,35.648262 35.649064,35.648262 4.825868,0 9.47864,-0.939073 13.855436,-2.79419 0.469536,0.484864 0.932588,0.867071 1.362764,1.166295 -4.792545,2.14898 -9.901437,3.256023 -15.2182,3.256023 -20.554985,0 -37.279194,-16.722199 -37.279194,-37.27639 0,-8.912938 2.782001,-16.748701 8.230156,-23.319541 -0.317124,-0.48128 -0.760048,-1.151759 -1.2685,-1.917064 -5.965777,7.027743 -9.140046,15.715695 -9.140046,25.236605 0,21.757176 17.700074,39.456908 39.457584,39.456908 5.780263,0 11.32984,-1.228928 16.521257,-3.629044 -0.21627,-0.470447 -0.429398,-0.931267 -0.643422,-1.392528 0.476922,0.268596 0.880142,0.430192 1.154452,0.522439 0.004,-0.01822 0.004,-0.02758 0.004,-0.04814 0,-0.606749 -0.11843,-1.76901 -0.82334,-3.147642 l 0.18561,-0.0903 2.27881,4.942701 -0.71857,0.347781"
             style="fill:#4d4d4d;fill-opacity:1;fill-rule:evenodd;stroke:none"
             id="path64"
             inkscape:connector-curvature="0" /><path
             d="m 101.42901,106.25004 -3.928171,-4.96711 c 0.359503,-0.12413 0.717219,-0.25163 1.07449,-0.38578 l 3.898531,4.93131 c -0.34597,0.14546 -0.69541,0.28514 -1.04485,0.42158"
             style="fill:#4d4d4d;fill-opacity:1;fill-rule:nonzero;stroke:none"
             id="path66"
             inkscape:connector-curvature="0" /><path
             d="m 93.739952,108.53789 -2.289651,-5.67157 c 0.359842,-0.0661 0.720688,-0.13635 1.079746,-0.21129 l 2.280931,5.6481 c -0.35548,0.0838 -0.713643,0.15977 -1.071026,0.23471"
             style="fill:#4d4d4d;fill-opacity:1;fill-rule:nonzero;stroke:none"
             id="path68"
             inkscape:connector-curvature="0" /><path
             d="m 84.595545,109.56107 -0.563019,-6.01264 c 0.362077,-10e-4 0.723261,-0.008 1.085003,-0.0182 l 0.562124,6.00145 c -0.361182,0.013 -0.722923,0.0234 -1.084108,0.0291"
             style="fill:#4d4d4d;fill-opacity:1;fill-rule:nonzero;stroke:none"
             id="path70"
             inkscape:connector-curvature="0" /><path
             d="m 75.685181,108.88117 1.142256,-5.91198 c 0.35559,0.0593 0.711965,0.11397 1.070129,0.16446 l -1.143484,5.91758 c -0.357716,-0.0515 -0.713756,-0.10956 -1.068901,-0.16993"
             style="fill:#4d4d4d;fill-opacity:1;fill-rule:nonzero;stroke:none"
             id="path72"
             inkscape:connector-curvature="0" /><path
             d="m 67.038716,106.56201 2.703389,-5.42556 c 0.342845,0.12178 0.687924,0.2394 1.034794,0.35111 l -2.711664,5.44123 c -0.343739,-0.1197 -0.686248,-0.24148 -1.026519,-0.36678"
             style="fill:#4d4d4d;fill-opacity:1;fill-rule:nonzero;stroke:none"
             id="path74"
             inkscape:connector-curvature="0" /><path
             d="m 58.837296,102.59349 4.03563,-4.608169 c 0.31981,0.183454 0.642526,0.362301 0.96759,0.536751 l -4.0571,4.632758 c -0.317572,-0.18346 -0.632906,-0.37125 -0.94612,-0.56134"
             style="fill:#4d4d4d;fill-opacity:1;fill-rule:nonzero;stroke:none"
             id="path76"
             inkscape:connector-curvature="0" /><path
             d="m 51.385529,97.033498 5.093458,-3.538594 c 0.286151,0.242523 0.575767,0.481845 0.867063,0.716899 l -5.12667,3.561051 c -0.280894,-0.243304 -0.558658,-0.48999 -0.833851,-0.739356"
             style="fill:#4d4d4d;fill-opacity:1;fill-rule:nonzero;stroke:none"
             id="path78"
             inkscape:connector-curvature="0" /><path
             d="m 45.046157,90.050822 5.852279,-2.277137 c 0.238515,0.296231 0.481836,0.588846 0.727732,0.877583 l -5.896781,2.29491 c -0.231125,-0.295659 -0.458693,-0.593998 -0.68323,-0.895356"
             style="fill:#4d4d4d;fill-opacity:1;fill-rule:nonzero;stroke:none"
             id="path80"
             inkscape:connector-curvature="0" /><path
             d="m 40.150512,81.921862 6.297325,-0.877896 c 0.181372,0.340703 0.366998,0.679194 0.556983,1.014666 l -6.353236,0.88539 c -0.171301,-0.338491 -0.338595,-0.679193 -0.501072,-1.02216"
             style="fill:#4d4d4d;fill-opacity:1;fill-rule:nonzero;stroke:none"
             id="path82"
             inkscape:connector-curvature="0" /><path
             d="m 36.944372,73.002439 6.420107,0.614114 c 0.115744,0.375624 0.235054,0.750441 0.360846,1.121693 l -6.48608,-0.62028 C 37.13659,73.747624 37.038305,73.37593 36.944372,73.002439"
             style="fill:#4d4d4d;fill-opacity:1;fill-rule:nonzero;stroke:none"
             id="path84"
             inkscape:connector-curvature="0" /><path
             d="m 35.553653,63.659661 6.210886,2.159157 c 0.04361,0.400545 0.09259,0.799748 0.147153,1.197271 l -6.285584,-2.185322 c -0.02842,-0.389251 -0.05324,-0.779731 -0.07247,-1.171106"
             style="fill:#4d4d4d;fill-opacity:1;fill-rule:nonzero;stroke:none"
             id="path86"
             inkscape:connector-curvature="0" /><path
             d="m 36.034483,54.22519 5.610744,3.683951 c -0.03097,0.412846 -0.05938,0.826024 -0.07861,1.242336 l -5.698968,-3.742995 c 0.05066,-0.395286 0.106116,-0.789346 0.166825,-1.183292"
             style="fill:#4d4d4d;fill-opacity:1;fill-rule:nonzero;stroke:none"
             id="path88"
             inkscape:connector-curvature="0" /><path
             d="m 38.426899,44.992445 4.554927,5.016749 c -0.112596,0.417094 -0.214471,0.839555 -0.314441,1.262351 l -4.650199,-5.12063 c 0.131488,-0.388804 0.268147,-0.773132 0.409713,-1.15847"
             style="fill:#4d4d4d;fill-opacity:1;fill-rule:nonzero;stroke:none"
             id="path90"
             inkscape:connector-curvature="0" /><path
             d="m 42.711442,36.170419 3.222354,6.129147 c -0.201825,0.398419 -0.402781,0.797174 -0.59053,1.202078 l -3.281283,-6.242756 c 0.211791,-0.36465 0.428053,-0.728515 0.649459,-1.088469"
             style="fill:#4d4d4d;fill-opacity:1;fill-rule:nonzero;stroke:none"
             id="path92"
             inkscape:connector-curvature="0" /><path
             d="m 48.200748,28.81862 1.721934,7.101543 c -0.284808,0.375608 -0.564362,0.754347 -0.836534,1.137783 l -1.756377,-7.245571 c 0.286151,-0.335129 0.576551,-0.666121 0.870977,-0.993755"
             style="fill:#4d4d4d;fill-opacity:1;fill-rule:nonzero;stroke:none"
             id="path94"
             inkscape:connector-curvature="0" /><path
             d="m 100.62311,92.54969 c 0.14939,-0.09862 0.29655,-0.196464 0.44069,-0.294306 0.1324,0.05855 0.26255,0.119961 0.39797,0.169922 0.15811,0.05855 0.31321,0.108771 0.46741,0.158473 -0.33334,0.219363 -0.64431,0.465165 -0.94265,0.725486 -0.10266,-0.245385 -0.22498,-0.499279 -0.36342,-0.759601"
             style="fill:#4d4d4d;fill-opacity:1;fill-rule:nonzero;stroke:none"
             id="path96"
             inkscape:connector-curvature="0" /><path
             d="m 0.0695845,-7.6084836 0,0.2267015 2.0097264,0 1.4209127,-4.9511419 0.020089,0 1.4811954,4.9511419 2.0049215,0 0,-0.2267015 -0.7652822,0 0,-6.2720374 0.7652822,0 0,-0.227144 -2.5185947,0 0,0.227144 0.77576,0 0,6.1501724 -0.020089,0 -1.9555636,-6.3773114 -0.2612143,0 -1.8843582,6.3773114 -0.020094,0 0,-6.1501724 0.7556668,0 0,-0.227144 -1.80835868,0 0,0.227144 0.75566667,0 0,6.2720374 -0.75566667,0"
             style="fill:#4d4d4d;fill-opacity:1;fill-rule:nonzero;stroke:none"
             id="path98"
             inkscape:connector-curvature="0" /><path
             d="m 11.066072,-14.10766 0,0.227144 -0.866179,0 0.715041,2.218515 1.922342,0 0.694522,-2.218515 -0.815513,0 0,-0.227144 2.537001,0 0,0.227144 -0.705033,0 -2.073502,6.5874056 -0.392269,0 -2.1844166,-6.5874056 -0.7949819,0 0,-0.227144 1.9629885,0 z m -0.06072,2.725209 0.885356,2.7295794 0.02058,0 0.825576,-2.7295794 -1.731507,0"
             style="fill:#4d4d4d;fill-opacity:1;fill-rule:nonzero;stroke:none"
             id="path100"
             inkscape:connector-curvature="0" /><path
             d="m 19.284889,-14.10766 -2.077415,0 0,0.227144 0.847381,0 1.77438,2.954088 -1.915833,3.3179496 -0.705928,0 0,0.2267015 2.601633,0 0,-0.2267015 -0.746518,0 1.421807,-2.3696496 1.432318,2.3696496 -0.827365,0 0,0.2267015 1.997016,0 0,-0.2267015 -0.806679,0 -1.603516,-2.6627456 2.107495,-3.609292 0.6754,0 0,-0.227144 -2.61125,0 0,0.227144 0.806343,0 -1.633261,2.712544 -1.613469,-2.712544 0.877461,0 0,-0.227144"
             style="fill:#4d4d4d;fill-opacity:1;fill-rule:nonzero;stroke:none"
             id="path102"
             inkscape:connector-curvature="0" /><path
             d="m 25.570921,-12.271341 2.463568,0 0,0.677478 -2.463568,0 0,-0.677478 z"
             style="fill:#4d4d4d;fill-opacity:1;fill-rule:nonzero;stroke:none"
             id="path104"
             inkscape:connector-curvature="0" /><path
             d="m 30.1954,-7.6084836 0.795834,0 0,-6.2720374 -0.866616,0 0,-0.227144 2.74141,0 0,0.227144 -0.897701,0 0,2.813437 0.483963,0 c 2.11767,0 2.87157,1.0723567 2.87157,1.8987814 0,0.88539 -0.583147,1.7865127 -2.447879,1.7865127 l -2.680581,0 0,-0.2267015 z m 1.772927,0 0.282685,0 c 1.361424,0 2.007078,-0.1109567 2.007078,-1.5196284 0,-1.118214 -0.302698,-1.712265 -1.946471,-1.712265 l -0.343292,0 0,3.2318934"
             style="fill:#4d4d4d;fill-opacity:1;fill-rule:nonzero;stroke:none"
             id="path106"
             inkscape:connector-curvature="0" /><path
             d="m 37.23701,-14.10766 0,0.227144 0.826021,0 0,6.2720376 -0.826021,0 0,0.2267015 2.730452,0 0,-0.2267015 -0.927335,0 0,-6.2720376 1.803565,0 c 0.826472,0 1.219634,1.008577 1.340177,1.65242 l 0.19165,0 -0.11093,-1.879559 -5.027595,0"
             style="fill:#4d4d4d;fill-opacity:1;fill-rule:nonzero;stroke:none"
             id="path108"
             inkscape:connector-curvature="0" /><path
             d="m 46.066975,-14.10766 0,0.227144 -0.866168,0 0.715096,2.218515 1.92232,0 0.694521,-2.218515 -0.815064,0 0,-0.227144 2.536553,0 0,0.227144 -0.705033,0 -2.073054,6.5874056 -0.392717,0 -2.18398,-6.5874056 -0.795386,0 0,-0.227144 1.962912,0 z m -0.06071,2.725209 0.886296,2.7295794 0.01978,0 0.825577,-2.7295794 -1.731552,0"
             style="fill:#4d4d4d;fill-opacity:1;fill-rule:nonzero;stroke:none"
             id="path110"
             inkscape:connector-curvature="0" /><path
             d="m 53.168071,-7.6084836 -0.786216,0 0,0.2267015 1.958998,0 2.860612,-4.8707769 0.02004,0 0,4.6440833 -0.785321,0 0,0.2267014 1.857685,0 0,-0.2267014 -0.775368,0 0,-6.6389523 -0.257641,0 -3.775311,6.4319024 -0.02056,0 0,-6.0649874 0.77537,0 0,-0.227144 -1.858582,0 0,0.227144 0.786216,0 0,6.2720373"
             style="fill:#4d4d4d;fill-opacity:1;fill-rule:nonzero;stroke:none"
             id="path112"
             inkscape:connector-curvature="0" /><path
             d="m 65.499048,-9.1630566 -0.227222,-0.013011 c -0.211791,0.9535331 -0.736006,1.707456 -1.793947,1.707456 -0.645545,0 -1.139122,-0.4407329 -1.34096,-0.8128855 -0.393053,-0.7338263 -0.412734,-2.1604189 -0.412734,-2.7129829 0,-1.72755 0.210907,-2.973305 1.804013,-2.973305 0.977988,0 1.592559,0.812886 1.867752,1.693912 l 0.241976,0 0,-1.83369 -0.272171,0 -0.283021,0.421513 c -0.475688,-0.401419 -1.022605,-0.561289 -1.588643,-0.561289 -1.871328,0 -2.919989,1.614855 -2.919989,3.544643 0,1.9782749 1.534412,3.4607781 2.96058,3.4607781 0.606742,0 1.001135,-0.1864979 1.486441,-0.5276508 l 0.32976,0.3188705 0.148168,-0.017955 0,-1.6943489"
             style="fill:#4d4d4d;fill-opacity:1;fill-rule:nonzero;stroke:none"
             id="path114"
             inkscape:connector-curvature="0" /><path
             d="m 70.619231,-14.10766 -2.532192,0 0,0.227144 0.77615,0 0,6.2720376 -0.77615,0 0,0.2267015 2.532192,0 0,-0.2267015 -0.778834,0 0,-6.2720376 0.778834,0 0,-0.227144 z m 1.162719,6.4991764 0,0.2267015 2.005847,0 0,-0.2267015 -0.746069,0 -2.331697,-2.5159804 3.067704,-3.756057 0.473897,0 0,-0.227144 -2.56093,0 0,0.227144 0.807127,0 -2.556569,3.275136 c -0.03052,0.04936 0.01015,0.09828 0.08085,0.169922 l 2.666599,2.8269873 -0.906756,0"
             style="fill:#4d4d4d;fill-opacity:1;fill-rule:nonzero;stroke:none"
             id="path116"
             inkscape:connector-curvature="0" /><path
             d="m 76.249096,-12.271341 2.463567,0 0,0.677478 -2.463567,0 0,-0.677478 z"
             style="fill:#4d4d4d;fill-opacity:1;fill-rule:nonzero;stroke:none"
             id="path118"
             inkscape:connector-curvature="0" /><path
             d="m 86.036141,-7.4521137 0.157223,-0.00651 0,-1.7209978 -0.227118,-0.00131 c -0.20094,0.9976582 -0.927334,1.7122622 -2.051695,1.7122622 -0.646888,0 -1.142256,-0.4315629 -1.343982,-0.8028438 -0.394505,-0.7325174 -0.414633,-2.1695889 -0.414633,-2.7208339 0,-1.729741 0.212364,-3.027914 1.808821,-3.027914 1.385578,0 1.455467,0.925586 1.424491,2.06302 l -0.979329,0 0,0.241534 2.730004,0 0,-0.241534 -0.614571,0 c -0.06989,-1.11734 -0.551726,-2.290156 -2.600738,-2.290156 -1.869541,0 -2.918758,1.615727 -2.918758,3.546837 0,1.9870077 1.534075,3.4585844 2.958901,3.4585844 0.708052,0 1.282925,-0.2066127 1.717576,-0.5979746 l 0.353802,0.387875"
             style="fill:#4d4d4d;fill-opacity:1;fill-rule:nonzero;stroke:none"
             id="path120"
             inkscape:connector-curvature="0" /><path
             d="m 88.973124,-14.10766 0,0.227144 0.887191,0 0,6.2720376 -0.887191,0 0,0.2267015 5.11325,0 0,-1.6358207 -0.224099,0 c -0.171197,1.197716 -0.792812,1.4091271 -1.710082,1.4091271 l -1.316135,0 0,-2.8994915 c 1.022157,0 1.345878,0.0088 1.488675,1.0767148 l 0.224099,0 0,-2.5474228 -0.224099,0 c -0.06118,1.083705 -0.486198,1.215619 -1.488675,1.225661 l 0,-3.127499 1.225335,0 c 1.329108,0 1.770356,0.162063 2.033246,1.659409 l 0.262557,0 -0.131046,-1.886548 -5.253028,0"
             style="fill:#4d4d4d;fill-opacity:1;fill-rule:nonzero;stroke:none"
             id="path122"
             inkscape:connector-curvature="0" /><path
             d="m 96.76919,-14.142167 -0.139788,0 0,1.743283 0.189984,0 c 0.272172,-0.915979 0.966695,-1.621416 1.938085,-1.621416 0.868405,0 1.696999,0.573522 1.696999,1.458043 0,0.592744 -0.14067,0.863126 -0.919506,1.174125 -0.372923,0.14109 -1.938867,0.654332 -2.090944,0.753486 -0.58393,0.361236 -0.814618,0.9753807 -0.814618,1.5375415 0,0.4114689 0.12009,0.7648338 0.410607,1.1474758 0.302701,0.390066 0.798517,0.7076146 1.565945,0.7076146 0.465177,0 1.122573,-0.2861039 1.319154,-0.4337435 l 0.384332,0.293096 0.14413,-0.013531 0,-1.5641777 -0.20609,0 c -0.22196,0.8373408 -0.816853,1.4916733 -1.711423,1.4916733 -0.687141,0 -1.436232,-0.4730598 -1.436232,-1.2291607 0,-1.6716403 3.826865,-0.5949248 3.826865,-3.3218773 0,-1.3768 -0.86405,-2.22769 -2.183987,-2.22769 -0.563915,0 -1.128277,0.148948 -1.54112,0.559106 l -0.432413,-0.453838"
             style="fill:#4d4d4d;fill-opacity:1;fill-rule:nonzero;stroke:none"
             id="path124"
             inkscape:connector-curvature="0" /><path
             d="m 102.96744,-14.10766 0,0.227144 0.88663,0 0,6.2720376 -0.88663,0 0,0.2267015 5.11269,0 0,-1.6358207 -0.22397,0 c -0.16997,1.197716 -0.79236,1.4091271 -1.71008,1.4091271 l -1.31569,0 0,-2.8994915 c 1.02294,0 1.34667,0.0088 1.48823,1.0767148 l 0.22397,0 0,-2.5474228 -0.22397,0 c -0.0607,1.083705 -0.48575,1.215619 -1.48823,1.225661 l 0,-3.127499 1.22523,0 c 1.32922,0 1.77035,0.162063 2.03414,1.659409 l 0.26211,0 -0.13105,-1.886548 -5.25336,0"
             style="fill:#4d4d4d;fill-opacity:1;fill-rule:nonzero;stroke:none"
             id="path126"
             inkscape:connector-curvature="0" /><path
             d="m 110.58437,-14.10766 0,0.227144 0.82558,0 0,6.2720376 -0.82558,0 0,0.2267015 2.73,0 0,-0.2267015 -0.92699,0 0,-6.2720376 1.80368,0 c 0.82524,0 1.21996,1.008577 1.33961,1.65242 l 0.19233,0 -0.11182,-1.879559 -5.02681,0"
             style="fill:#4d4d4d;fill-opacity:1;fill-rule:nonzero;stroke:none"
             id="path128"
             inkscape:connector-curvature="0" /><path
             d="m 117.58595,-14.10766 0,0.227144 0.82636,0 0,6.2720376 -0.82636,0 0,0.2267015 2.73179,0 0,-0.2267015 -0.92811,0 0,-6.2720376 1.80367,0 c 0.82636,0 1.21997,1.008577 1.34074,1.65242 l 0.19121,0 -0.11182,-1.879559 -5.02748,0"
             style="fill:#4d4d4d;fill-opacity:1;fill-rule:nonzero;stroke:none"
             id="path130"
             inkscape:connector-curvature="0" /><path
             d="m 124.76711,-14.142167 -0.13976,0 0,1.743283 0.1912,0 c 0.27173,-0.915979 0.96614,-1.621416 1.93787,-1.621416 0.86997,0 1.69744,0.573522 1.69744,1.458043 0,0.592744 -0.14088,0.863126 -0.91917,1.174125 -0.37348,0.14109 -1.9401,0.654332 -2.09217,0.753486 -0.58371,0.361236 -0.81518,0.9753807 -0.81518,1.5375415 0,0.4114689 0.12077,0.7648338 0.41262,1.1474758 0.30192,0.390066 0.79728,0.7076146 1.56661,0.7076146 0.46406,0 1.11934,-0.2861039 1.31726,-0.4337435 l 0.38467,0.293096 0.14423,-0.013531 0,-1.5641777 -0.20687,0 c -0.22139,0.8373408 -0.81517,1.4916733 -1.71198,1.4916733 -0.68546,0 -1.43467,-0.4730598 -1.43467,-1.2291607 0,-1.6716403 3.82652,-0.5949248 3.82652,-3.3218773 0,-1.3768 -0.86437,-2.22769 -2.18275,-2.22769 -0.56469,0 -1.12827,0.148948 -1.54201,0.559106 l -0.43387,-0.453838"
             style="fill:#4d4d4d;fill-opacity:1;fill-rule:nonzero;stroke:none"
             id="path132"
             inkscape:connector-curvature="0" /><path
             d="m 136.0454,-9.1630566 -0.22699,-0.013011 c -0.21247,0.9535331 -0.73578,1.707456 -1.79473,1.707456 -0.64521,0 -1.13834,-0.4407329 -1.34074,-0.8128855 -0.39249,-0.7338263 -0.41374,-2.1604189 -0.41374,-2.7129829 0,-1.72755 0.21247,-2.973305 1.8048,-2.973305 0.97732,0 1.59345,0.812886 1.86853,1.693912 l 0.24154,0 0,-1.83369 -0.27173,0 -0.28402,0.421513 c -0.47525,-0.401419 -1.02093,-0.561289 -1.58787,-0.561289 -1.87077,0 -2.91965,1.614855 -2.91965,3.544643 0,1.9782749 1.53419,3.4607781 2.95991,3.4607781 0.60607,0 1.00192,-0.1864979 1.4861,-0.5276508 l 0.33099,0.3188705 0.1476,-0.017955 0,-1.6943489"
             style="fill:#4d4d4d;fill-opacity:1;fill-rule:nonzero;stroke:none"
             id="path134"
             inkscape:connector-curvature="0" /><path
             d="m 143.30595,-10.493562 0,2.8850784 -0.78722,0 0,0.2267015 2.54953,0 0,-0.2267015 -0.78499,0 0,-6.2720374 0.78499,0 0,-0.227144 -2.54953,0 0,0.227144 0.78722,0 0,3.092992 -2.90288,0 0,-3.092992 0.78723,0 0,-0.227144 -2.54953,0 0,0.227144 0.78499,0 0,6.2720374 -0.78499,0 0,0.2267015 2.54953,0 0,-0.2267015 -0.78723,0 0,-2.8850784 2.90288,0"
             style="fill:#4d4d4d;fill-opacity:1;fill-rule:nonzero;stroke:none"
             id="path136"
             inkscape:connector-curvature="0" /><path
             d="m 149.08488,-14.10766 0,0.227144 -0.8655,0 0.71454,2.218515 1.92332,0 0.69441,-2.218515 -0.81517,0 0,-0.227144 2.53498,0 0,0.227144 -0.70335,0 -2.07317,6.5874056 -0.39361,0 -2.18387,-6.5874056 -0.79616,0 0,-0.227144 1.96358,0 z m -0.0615,2.725209 0.88674,2.7295794 0.0213,0 0.82412,-2.7295794 -1.73211,0"
             style="fill:#4d4d4d;fill-opacity:1;fill-rule:nonzero;stroke:none"
             id="path138"
             inkscape:connector-curvature="0" /><path
             d="m 155.38824,-14.10766 0,0.227144 0.81518,0 0,6.2720376 -0.81518,0 0,0.2267015 4.91566,0 0.0816,-1.7799578 -0.18116,0 c -0.31422,1.2199802 -0.48531,1.5532642 -1.74553,1.5532642 l -1.27812,0 0,-2.9353075 c 0.89569,0.01093 1.29825,0.04018 1.39889,1.0500682 l 0.22698,0 0,-2.4757902 -0.21694,0 c -0.0704,1.030847 -0.473,1.181984 -1.40895,1.181984 l 0,-3.092992 0.86662,0 0,-0.227144 -2.65911,0"
             style="fill:#4d4d4d;fill-opacity:1;fill-rule:nonzero;stroke:none"
             id="path140"
             inkscape:connector-curvature="0" /><path
             d="m 163.48857,-14.10766 0,0.227144 0.83642,0 0,6.2720376 -0.68546,0 c -0.95719,0 -1.05895,-0.7146066 -1.24904,-1.7144454 l -0.26166,0 0.11069,1.9411391 5.1941,0 0.0704,-1.9411391 -0.26278,0 c -0.1107,0.9583419 -0.44393,1.7144454 -1.49505,1.7144454 l -0.44393,0 0,-6.2720376 0.83866,0 0,-0.227144 -2.6524,0"
             style="fill:#4d4d4d;fill-opacity:1;fill-rule:nonzero;stroke:none"
             id="path142"
             inkscape:connector-curvature="0" /><path
             d="m 0.0394452,-3.7864691 167.5865148,0"
             style="fill:#4d4d4d;fill-opacity:1;stroke:none"
             id="path144"
             inkscape:connector-curvature="0" /></g><g
           transform="translate(18.11619,-0.51280123)"
           id="g4319"
           style="fill:#4d4d4d"><text
             transform="scale(1,-1)"
             sodipodi:linespacing="125%"
             id="text3121"
             y="-62.970993"
             x="188.54497"
             style="font-style:normal;font-weight:normal;font-size:93.25815582px;line-height:125%;font-family:Sans;letter-spacing:0px;word-spacing:0px;fill:#4d4d4d;fill-opacity:1;stroke:#000000;stroke-width:2.60217476;stroke-opacity:0"
             xml:space="preserve"><tspan
               style="font-size:46.62907791px;fill:#4d4d4d;fill-opacity:1;stroke:#000000;stroke-width:2.60217476;stroke-opacity:0"
               y="-62.970993"
               x="188.54497"
               id="tspan3123"
               sodipodi:role="line">Bioinformatics Toolkit</tspan></text>
<text
             transform="scale(1,-1)"
             sodipodi:linespacing="125%"
             id="text3125"
             y="-18.599298"
             x="191.07825"
             style="font-style:normal;font-weight:normal;font-size:20.81739807px;line-height:125%;font-family:Sans;letter-spacing:0px;word-spacing:0px;fill:#4d4d4d;fill-opacity:1;stroke:#000000;stroke-width:2.60217476;stroke-opacity:0"
             xml:space="preserve"><tspan
               y="-18.599298"
               x="191.07825"
               id="tspan3127"
               sodipodi:role="line"
               style="fill:#4d4d4d;fill-opacity:1;stroke-width:2.60217476">Max Planck Institute for Developmental Biology</tspan></text>
</g></g></g></g></svg>