<?xml version="1.0" encoding="UTF-8"?>
<!DOCTYPE svg PUBLIC "-//W3C//DTD SVG 1.1//EN" "http://www.w3.org/Graphics/SVG/1.1/DTD/svg11.dtd">
<svg version="1.1" xmlns="http://www.w3.org/2000/svg" xmlns:xlink="http://www.w3.org/1999/xlink" x="0px" y="0px" width="283" height="87" viewBox="0, 0, 283, 87">
  <g id="Layer 1">
    <g opacity="0.5">
      <path d="M43.35,86.696 C67.253,86.696 86.698,67.25 86.698,43.347 C86.615,28.299 78.698,14.118 65.811,6.284 C58.958,2.119 51.328,0.202 43.36,0 L43.34,0 C26.831,0.093 11.469,9.662 4.281,24.571 C1.424,30.498 0.166,36.804 0,43.347 C0,67.25 19.446,86.696 43.35,86.696 z z M43.35,85.486 C20.114,85.486 1.213,66.582 1.213,43.347 C1.213,20.114 20.114,1.211 43.35,1.211 C66.583,1.211 85.485,20.114 85.485,43.347 C85.485,66.582 66.583,85.486 43.35,85.486 z" fill="#373535"/>
      <path d="M55.374,69.419 C54.322,73.068 53.821,74.95 55.463,78.71 C55.48,78.853 55.637,79.318 55.463,79.381 C53.647,79.015 53.164,78.86 51.458,78.732 C49.882,78.461 47.263,78.901 45.511,78.884 C44.142,78.931 42.755,78.977 41.321,79.153 C40.892,78.931 41.225,78.452 41.259,78.134 C41.417,77.639 41.433,77.385 41.482,76.812 C41.704,76.574 41.976,76.7 42.246,76.588 C43.169,76.446 43.951,75.634 44.173,74.772 C44.461,73.866 44.142,72.862 43.728,72 C43.648,71.746 43.298,71.554 43.441,71.301 C44.572,69.181 43.775,67.03 43.394,64.96 C42.995,63.492 42.39,61.869 42.149,60.321 C42.198,60.163 41.991,59.796 42.341,59.765 L42.47,59.796 C43.679,61.263 47.145,64.366 48.444,65.374 C49.742,66.382 53.095,68.337 55.277,68.862 C55.484,69.036 55.452,69.181 55.374,69.419 M39.244,73.18 C39.244,72.988 39.255,72.91 39.4,72.848 L40.188,72.848 C40.887,72.872 41.786,73.101 42.441,72.425 C42.817,72.438 42.851,72.886 42.95,73.231 C43.04,73.714 43.018,74.021 43.018,74.455 C42.861,74.799 42.686,75.322 42.33,75.54 C41.765,75.807 41.196,75.755 40.654,75.54 C39.832,75.054 39.233,74.278 39.244,73.18 M40.585,77.201 C40.484,78.151 39.291,78.989 38.707,79.158 C38.122,79.324 36.374,79.243 35.871,79.069 C35.37,78.896 34.143,76.5 34.285,75.255 C34.285,74.228 34.562,72.599 34.974,72.467 C35.386,72.338 36.476,72.405 36.476,72.405 C36.932,72.374 37.278,72.483 37.679,72.53 C37.963,72.639 37.763,72.997 37.864,73.2 C37.993,73.73 38.022,74.304 38.35,74.834 C38.81,75.723 39.654,76.253 40.484,76.564 C40.671,76.735 40.569,76.967 40.585,77.201 M33.782,78.846 C33.457,79.18 33.274,79.024 32.945,79.055 C32.008,78.801 31.454,78.394 31.188,77.332 C30.845,75.852 30.857,74.224 31.188,72.713 L31.34,72.594 C31.999,72.519 32.996,72.385 33.268,72.534 C33.537,72.684 32.976,75.346 32.976,75.346 C32.959,75.874 33.217,77.225 33.457,77.927 C33.508,78.031 34.047,78.572 33.782,78.846 M44.874,47.259 L44.841,48.168 C44.759,48.995 44.376,49.951 43.597,50.413 C43.131,50.303 43.298,49.743 43.183,49.362 C43.481,48.535 44.062,47.849 44.543,47.116 C44.608,47.068 44.675,47.037 44.741,47.068 z M51.635,39.928 C51.151,40.15 50.654,40.199 50.12,39.952 C49.984,39.767 49.543,39.618 49.717,39.346 C50.105,38.718 50.761,38.199 51.164,37.583 L51.351,37.483 C52.168,36.497 53.455,35.67 54.675,34.929 L55.413,34.609 C55.573,34.448 55.948,34.114 56.096,34.459 C56.122,35.744 55.579,37.117 54.355,38.026 C53.611,38.576 53.293,38.469 52.63,38.509 L52.289,39.126 C52.208,39.433 51.941,39.743 51.635,39.928 M48.985,52.048 C48.763,52.177 46.836,51.443 47.061,51.648 C46.604,51.153 47.35,50.987 45.651,50.349 L45.239,50.392 C45.186,50.441 45.037,50.516 44.884,50.305 C44.868,50.049 45.204,50.087 45.31,49.768 C45.919,48.399 45.584,47.339 45.525,45.921 L45.974,44.759 C46.827,43.73 46.826,43.583 47.404,43.025 C47.982,42.212 48.103,42.149 48.878,41.481 C49.005,41.372 49.239,41.286 49.39,41.415 C49.756,41.699 49.775,41.886 49.882,42.252 C50.064,43.607 49.246,44.536 48.257,45.269 C47.555,45.874 46.888,46.814 47.038,47.737 L47.099,47.801 C47.419,47.531 47.823,47.373 47.958,47.038 C48.492,45.845 49.931,45.302 50.737,44.267 C51.087,43.646 50.872,42.568 50.737,41.851 C50.733,41.871 51.792,41.351 51.505,41.537 C52.008,41.744 51.946,42.105 52.189,42.565 C52.661,43.762 52.62,44.841 51.89,45.876 L49.882,48.381 C49.851,49.657 50.203,51.3 48.985,52.048 M57.49,32.985 L57.628,32.809 C58.251,32.513 58.833,32.284 59.525,32.084 L60.355,31.868 C60.575,31.667 60.964,31.505 61.186,31.788 C61.199,32.863 60.395,34.154 59.206,34.65 C58.833,34.813 58.334,34.867 57.89,34.976 C57.779,34.88 57.418,35.083 57.31,34.813 C57.379,34.274 57.586,33.469 57.49,32.985 M65.496,30.975 C65.454,31.748 64.423,32.386 63.562,32.625 C63.194,32.682 62.855,32.661 62.531,32.661 C62.446,32.6 62.348,32.528 62.361,32.446 C62.417,32.079 62.475,31.865 62.501,31.534 L62.715,31.377 C63.476,31.224 64.407,31.06 65.171,30.856 C65.285,30.881 65.425,30.87 65.496,30.975 M40.923,46.422 C43.154,42.423 45.863,38.95 48.763,35.381 L52.825,30.763 C55.724,27.671 58.927,24.501 62.48,22.049 C62.924,21.793 63.121,21.269 63.582,21.637 L63.999,22.023 C64.281,22.34 64.036,23.244 63.748,23.498 C63.519,23.685 63.297,23.87 63.076,24.052 C63.769,24.739 64.768,26.043 65.589,26.887 C65.951,27.258 65.839,27.644 66.485,27.945 C66.808,28.096 66.899,28.447 66.707,28.75 C66.135,29.483 65.18,29.372 64.429,29.563 C61.643,30.184 59.388,30.981 56.305,32.477 C53.836,33.785 51.861,35.234 50.075,37.48 C49.392,38.324 48.626,38.963 48.054,39.981 C46.429,42.069 45.137,44.028 43.846,46.179 C43.385,46.857 43.234,47.192 42.588,47.805 C42.274,48.103 41.994,47.48 41.798,47.264 C41.775,47.24 41.762,47.212 41.746,47.188 C41.679,47.196 41.611,47.183 41.544,47.14 C41.37,46.917 40.827,46.821 40.923,46.422 M66.774,31.502 C66.685,31.595 66.574,31.712 66.424,31.672 C66.086,31.436 66.214,31.135 66.235,30.85 C66.305,30.781 66.315,30.741 66.424,30.741 C66.586,30.714 66.675,30.832 66.734,30.916 C66.834,31.102 66.845,31.311 66.774,31.502 M29.336,77.328 C28.684,77.343 28.225,76.987 27.922,76.217 C27.618,75.237 27.515,74.371 27.726,73.363 C27.793,73.235 27.938,73.153 28.031,73.195 L28.942,72.886 C29.248,72.762 29.497,72.719 29.788,72.788 L29.973,72.971 C29.959,73.502 29.828,73.894 29.815,74.386 C29.761,75.62 29.657,75.988 30.012,77.163 C29.882,77.473 29.619,77.323 29.336,77.328 M26.617,73.885 C26.475,74.142 26.495,74.313 26.43,74.621 C26.353,74.761 25.954,74.571 25.828,74.494 C25.333,74.226 25.366,74.361 25.224,73.904 C25.144,73.596 25.153,73.235 25.662,72.968 C25.981,72.788 26.617,72.572 26.825,72.968 C26.889,73.235 26.571,73.581 26.617,73.885 M72.162,47.617 C71.016,44.973 69.727,42.695 68.784,40.034 C68.117,39.079 68.499,38.059 68.42,37.039 C67.989,35.446 67.319,34.218 66.683,32.674 C66.506,32.229 67.002,32.099 67.177,31.783 C67.464,31.001 67.257,30.124 66.905,29.376 C66.764,28.947 67.273,28.644 67.177,28.198 C67.159,27.513 66.556,27.049 66.077,26.684 C65.36,25.649 65.027,25.106 64.133,24.166 L64.133,23.991 C64.579,23.594 64.946,22.908 64.93,22.318 C64.754,21.651 64.613,21.029 63.973,20.566 C62.955,19.992 61.921,20.884 61.108,21.347 C60.883,21.505 60.771,21.666 60.454,21.635 C60.247,21.561 60.033,21.485 59.817,21.407 C59.609,21.644 59.35,21.895 59.033,22.146 L60.023,22.548 C60.059,22.574 60.072,22.594 60.072,22.628 C60.072,22.646 60.067,22.677 60.062,22.703 C59.993,22.763 57.77,24.711 57.77,24.711 C57.763,24.716 53.765,28.668 53.765,28.668 C53.765,28.67 52.617,29.833 52.617,29.833 C52.612,29.84 49.058,33.934 49.058,33.934 C47.199,36.089 44.454,39.627 42.802,42.216 C41.942,43.401 41.085,44.716 40.286,45.961 C40.199,46.099 40.036,46.088 39.778,46.057 C39.602,46.037 39.422,46.019 39.259,46.075 L39.267,46.075 L39.231,46.084 C39.239,46.081 39.251,46.079 39.259,46.075 C38.355,46.174 37.699,46.476 36.996,47.111 C36.082,48.187 35.624,49.49 35.624,50.895 C35.624,51.86 35.844,52.879 36.288,53.902 C36.1,54.448 35.67,54.932 35.285,55.359 L35.072,55.6 L34.797,55.869 C34.62,56.038 34.417,56.229 34.27,56.416 L34.256,56.435 L34.247,56.457 C34.23,56.517 34.221,56.63 34.397,56.715 L34.439,56.737 L34.486,56.726 C35.328,56.526 35.857,55.893 36.372,55.281 C36.372,55.281 36.694,54.909 36.741,54.854 C36.817,54.84 36.879,54.883 36.991,54.977 C37.049,55.025 37.116,55.072 37.191,55.108 L37.191,55.15 C37.191,55.15 37.18,55.422 37.178,55.483 C35.185,57.451 33.562,58.563 31.44,59.81 L31.086,60.017 L31.495,60.059 C32.324,60.142 33.11,59.677 33.869,59.226 L34.782,58.723 C35.626,58.291 36.407,57.632 37.166,56.995 C37.166,56.995 37.852,56.425 37.926,56.366 C37.997,56.376 38.077,56.468 38.14,56.541 C38.14,56.541 38.184,56.59 38.213,56.621 C38.226,56.645 38.85,57.879 38.888,57.953 C38.745,58.538 38.682,59.124 38.682,59.709 C38.682,60.985 38.959,62.255 39.231,63.497 C39.497,64.721 39.773,65.986 39.773,67.228 C39.773,67.311 39.772,67.39 39.769,67.473 C39.769,67.856 39.348,68.366 38.999,68.526 C38.201,68.662 37.24,68.672 36.22,68.68 C34.971,68.691 33.678,68.703 32.684,68.972 C32.364,69.01 31.995,69.115 31.636,69.214 C31.284,69.313 30.921,69.415 30.583,69.462 L30.549,69.466 L30.512,69.495 L30.389,69.58 C30.275,69.651 30.136,69.737 30.101,69.905 C30.1,69.918 30.098,69.933 30.098,69.949 C30.098,70.045 30.142,70.149 30.213,70.223 C30.282,70.295 30.369,70.327 30.458,70.319 C30.759,70.319 31.095,70.197 31.422,70.078 C31.649,69.996 31.887,69.909 32.106,69.872 C34.181,69.517 36.456,69.588 37.997,69.713 C38.758,69.7 40.007,69.675 40.457,68.595 C40.62,68.157 40.675,67.749 40.675,67.357 C40.675,66.925 40.609,66.509 40.54,66.082 L40.404,65.031 C40.313,64.39 40.177,63.751 40.045,63.131 C39.812,62.032 39.571,60.901 39.571,59.756 C39.571,59.524 39.584,59.291 39.604,59.057 C39.627,59.028 39.651,58.993 39.68,58.988 C39.748,58.979 39.865,59.072 39.959,59.147 C40.065,59.231 40.174,59.311 40.294,59.342 C40.432,59.447 40.589,59.476 40.731,59.494 C40.929,59.52 41.037,59.545 41.099,59.698 C41.188,60.704 41.535,61.744 41.871,62.75 C42.103,63.443 42.343,64.161 42.497,64.86 C42.771,66.084 43.047,67.326 43.047,68.55 C43.047,69.279 42.949,70.003 42.693,70.713 C42.161,71.682 40.996,71.686 39.872,71.69 L39.535,71.69 L36.779,71.523 C34.414,71.351 31.97,71.176 29.463,71.581 C29.481,71.579 28.902,71.642 28.902,71.642 C28.592,71.688 28.301,71.726 27.987,71.653 C27.871,71.559 27.777,71.396 27.777,71.227 C27.777,71.173 27.787,71.118 27.809,71.064 C28.257,70.076 28.481,69.183 28.481,68.393 C28.481,67.752 28.334,67.179 28.04,66.676 C27.392,65.433 26.68,64.572 25.8,63.97 C24.724,62.894 23.804,61.939 22.986,61.01 C22.507,60.949 22.214,60.855 22.182,60.844 L22.076,60.807 L21.597,61.397 C22.218,61.987 22.792,62.577 23.494,63.214 C24.56,63.788 25.422,64.824 26.185,65.525 C27.11,66.607 27.332,67.754 27.141,69.029 C27.013,70.542 25.629,71.196 24.688,72.2 C24.307,72.917 24.066,73.776 24.591,74.447 C24.928,75.337 26.359,75.177 26.535,75.911 C26.929,77.53 29.737,78.465 30.285,78.504 C30.83,78.541 31.395,79.144 31.395,79.144 C32.511,79.957 33.976,79.762 34.746,79.643 C35.515,79.527 36.891,80.149 37.752,80.021 C39.041,79.511 40.095,79.75 41.433,79.639 C45.638,79.704 50.416,79.607 54.718,80.149 C55.515,80.052 56.469,80.674 57.221,80.294 C57.412,79.973 57.267,79.704 57.221,79.431 C55.165,76.199 54.857,72.57 56.022,69.048 L56.8,69.092 C59.588,69.396 62.126,69.035 64.96,67.393 C66.379,66.612 67.124,64.786 67.06,63.464 C67.012,62.604 66.715,61.589 66.859,60.68 C66.908,60.275 67.177,59.659 67.526,59.465 C67.676,59.382 68.197,59.028 68.361,58.575 C68.631,57.837 68.053,57.489 67.886,57.389 C68.336,57.205 68.773,56.285 68.359,55.568 C68.092,55.285 67.782,54.165 67.749,53.798 C67.654,53.273 67.638,52.732 68.132,52.395 C69.248,51.808 70.299,51.663 71.461,51.153 C72.258,50.819 72.672,49.991 72.641,49.242 z M71.83,50.399 C70.65,51.497 68.979,51.514 67.625,52.405 C67.003,53.025 67.161,53.731 67.414,54.513 C67.914,55.503 67.726,55.401 67.026,55.635 C65.392,56.179 65.411,57.967 63.445,57.667 C63.333,57.7 62.873,57.471 63.146,57.799 C63.357,58.051 63.445,57.899 63.861,57.95 C64.561,57.983 64.822,57.694 65.313,57.361 C66.015,56.771 65.931,56.549 66.794,56.134 C67,56.086 67.508,55.934 67.792,56.034 C67.984,56.211 67.989,56.215 68.02,56.373 C67.909,56.851 67.21,57.25 66.943,57.417 C67.31,57.685 67.998,58.14 67.886,58.522 C67.73,58.772 67.736,58.814 67.458,58.949 C67.071,59.138 66.293,59.109 65.56,58.567 C65.448,58.6 65.327,58.349 65.013,58.648 C65.726,59.382 66.727,59.216 66.876,59.365 C67.026,59.515 66.343,60.402 66.312,60.594 C65.832,61.867 66.42,63.04 66.164,64.363 C66.006,65.398 65.696,65.89 64.79,66.543 C63.128,67.694 61.963,68.027 60.097,68.327 C55.206,68.661 52.12,66.982 48.597,64.352 C45.075,61.721 43.728,60.321 42.628,58.841 C42.613,58.236 43.058,57.775 42.677,57.12 C42.359,57.232 42.39,57.646 42.198,57.886 C41.927,58.269 41.275,58.554 40.811,58.507 C39.362,58.013 39.282,56.309 38.375,55.337 C36.432,53.424 35.888,50.668 36.926,48.359 C37.291,47.641 37.944,46.957 38.678,46.702 C39.584,46.558 40.654,46.558 41.244,47.435 C41.942,48.103 42.375,49.188 42.548,50.143 C42.836,50.606 42.485,51.131 42.962,51.514 C43.79,51.592 44.507,51.799 45.304,51.291 C45.894,51.369 45.974,52.024 46.42,52.309 L47.217,52.788 C48.061,53.137 49.146,53.137 49.862,52.516 C51.2,51.146 50.908,49.738 51.369,48.225 C52.645,47.095 53.493,45.476 53.478,43.897 C53.397,42.927 53.048,41.922 52.474,40.952 C52.569,40.377 52.888,39.948 53.079,39.437 C53.24,39.342 53.447,39.342 53.621,39.31 C55.039,39.008 56.329,37.717 56.886,36.363 L57.014,36.236 C58.639,36.125 60.662,35.55 61.602,33.845 C61.794,33.112 62.622,33.653 63.131,33.479 C63.991,33.43 64.853,32.954 65.505,32.395 C65.696,32.331 65.839,32.54 65.953,32.633 C66.333,33.91 67.036,35.136 67.433,36.428 C67.927,37.399 68.104,38.322 67.927,39.31 C68.135,40.822 68.995,42.24 69.6,43.77 C70.205,45.38 71.145,47.005 71.83,48.662 C71.958,49.33 72.244,49.857 71.83,50.399" fill="#373535"/>
      <path d="M64.581,37.701 C64.804,37.988 64.948,38.242 64.772,38.514 C64.358,38.545 64.293,38.019 63.944,37.843 C63.371,37.558 62.86,37.861 62.288,38.004 C60.838,38.625 59.627,39.867 58.225,40.52 C58.051,40.52 57.89,40.504 57.779,40.377 C58.017,40.139 58.399,40.09 58.703,39.898 C60.154,38.943 61.555,37.447 63.371,37.176 C63.848,37.145 64.279,37.318 64.581,37.701" fill="#373535"/>
      <path d="M63.19,42.984 C62.965,43.316 62.608,43.027 62.295,43.067 C61.578,42.984 60.366,43.152 59.575,43.053 C59.456,42.984 59.366,42.86 59.44,42.748 C59.561,42.552 59.89,42.539 60.099,42.385 C60.965,41.844 61.875,41.33 62.861,41.095 C63.04,41.067 63.19,41.219 63.221,41.343 C63.339,41.802 63.265,42.539 63.19,42.984 M64.47,40.154 C64.358,39.803 64.374,39.231 63.944,39.151 C63.848,39.373 63.944,39.613 63.848,39.821 C63.722,39.979 63.499,40.17 63.243,40.106 C61.49,40.217 60.184,41.764 58.687,42.559 C58.178,42.846 57.603,43.006 57.063,43.149 C57.013,43.229 57.031,43.34 57.109,43.387 C58.768,43.563 60.407,43.723 62.05,43.897 L63.879,43.69 C63.929,43.452 63.642,43.245 63.689,42.973 C63.898,42.225 63.961,41.412 63.753,40.711 C63.898,40.331 64.439,40.615 64.47,40.154" fill="#373535"/>
      <path d="M65.396,48.367 C65.455,48.283 65.52,48.189 65.599,48.181 C65.704,48.22 65.759,48.269 65.772,48.46 C65.76,48.768 65.682,49.091 65.599,49.434 C65.504,49.824 65.407,50.222 65.407,50.612 C65.407,50.786 65.426,50.958 65.473,51.126 C65.703,51.413 66.059,51.478 66.486,51.332 C66.493,51.328 67.211,50.916 67.211,50.916 C67.835,50.542 68.425,50.19 69.517,49.912 C69.545,49.906 69.55,49.913 69.554,49.918 C69.572,49.939 69.579,49.979 69.579,50.031 C69.579,50.125 69.552,50.253 69.507,50.357 C69.465,50.375 68.455,50.826 68.455,50.826 C67.661,51.173 66.838,51.533 66.067,51.975 C65.839,52.022 65.628,51.898 65.425,51.78 L65.376,51.75 C65.082,51.349 64.988,50.96 64.988,50.572 C64.988,50.222 65.063,49.875 65.142,49.516 C65.215,49.183 65.288,48.837 65.306,48.477 C65.331,48.446 65.396,48.367 65.396,48.367" fill="#373535"/>
      <path d="M40.573,48.041 C41.148,49.218 40.542,50.334 40.573,51.56 C40.669,51.91 41.355,51.96 41.148,52.373 C40.987,52.485 40.764,52.516 40.589,52.389 C40.27,52.182 40.159,52.024 40.079,51.656 C39.999,50.574 40.86,49.314 40.094,48.295 C39.872,48.072 39.553,47.85 39.235,47.833 C38.549,47.96 38.199,48.693 37.961,49.235 C37.594,50.668 37.499,52.182 38.756,53.329 C39.491,53.758 40.382,54.222 40.43,55.145 C40.542,55.305 40.764,55.464 40.94,55.368 C41.163,55.352 41.194,54.716 41.513,55.018 L41.609,55.241 C41.528,55.495 41.45,55.942 41.036,55.958 C40.829,56.005 40.604,55.893 40.43,55.767 C39.983,55.305 40.335,54.604 39.585,54.302 C38.342,53.918 37.529,52.611 37.402,51.385 C37.322,50.207 37.371,48.916 38.391,47.881 C38.789,47.577 39.315,47.386 39.825,47.546 C40.112,47.593 40.446,47.801 40.573,48.041" fill="#373535"/>
      <path d="M25.223,57.144 C26.88,56.376 28.772,56.465 29.485,56.534 C29.282,57.191 28.594,58.896 26.71,59.821 C24.82,60.746 23.201,60.525 22.609,60.396 C22.827,59.742 23.56,57.917 25.223,57.144 M24.998,56.657 C22.729,57.71 22.037,60.411 22.008,60.525 L21.948,60.764 L22.182,60.844 C22.271,60.873 24.377,61.564 26.947,60.302 C29.539,59.03 30.07,56.465 30.093,56.356 L30.146,56.084 L29.871,56.04 C29.765,56.021 27.224,55.623 24.998,56.657" fill="#373535"/>
      <path d="M27.48,52.053 C29.13,51.308 30.931,51.404 31.621,51.477 C31.409,52.118 30.706,53.753 28.825,54.651 C26.95,55.547 25.342,55.378 24.728,55.262 C24.988,54.595 25.819,52.803 27.48,52.053 M27.259,51.564 C24.986,52.591 24.147,55.266 24.114,55.379 L24.036,55.636 L24.289,55.714 C24.378,55.743 26.478,56.369 29.057,55.135 C31.659,53.891 32.211,51.412 32.233,51.308 L32.289,51.036 L32.017,50.987 C31.915,50.969 29.494,50.555 27.259,51.564" fill="#373535"/>
      <path d="M30.427,47.152 C32.071,46.428 33.78,46.531 34.451,46.609 C34.228,47.235 33.509,48.796 31.63,49.67 C29.775,50.532 28.181,50.413 27.54,50.314 C27.847,49.634 28.769,47.88 30.427,47.152 M30.211,46.66 C27.936,47.659 26.95,50.309 26.909,50.423 L26.809,50.695 L27.088,50.772 C27.177,50.796 29.271,51.36 31.854,50.155 C34.468,48.94 35.041,46.548 35.065,46.446 L35.125,46.176 L34.853,46.123 C34.758,46.103 32.458,45.671 30.211,46.66" fill="#373535"/>
      <path d="M33.355,42.31 C34.993,41.611 36.613,41.717 37.258,41.797 C37.026,42.408 36.291,43.899 34.414,44.75 C32.58,45.58 30.997,45.509 30.333,45.425 C30.688,44.732 31.703,43.016 33.355,42.31 M33.143,41.816 C30.866,42.791 29.734,45.415 29.688,45.524 L29.565,45.814 L29.871,45.89 C29.957,45.912 32.046,46.413 34.637,45.238 C37.26,44.048 37.852,41.744 37.877,41.647 L37.944,41.377 L37.672,41.319 C37.581,41.299 35.404,40.851 33.143,41.816" fill="#373535"/>
      <path d="M37.407,37.465 C39.036,36.788 40.568,36.899 41.191,36.986 C40.949,37.578 40.199,38.999 38.326,39.825 C36.498,40.631 34.933,40.598 34.254,40.531 C34.662,39.827 35.762,38.148 37.407,37.465 M37.202,36.968 C34.918,37.917 33.645,40.517 33.591,40.626 L33.442,40.933 L33.773,41.005 C33.862,41.025 35.944,41.462 38.543,40.317 C41.177,39.155 41.789,36.937 41.813,36.843 L41.885,36.576 L41.615,36.511 C41.531,36.492 39.471,36.026 37.202,36.968" fill="#373535"/>
      <path d="M41.876,32.789 C43.494,32.137 44.94,32.251 45.539,32.341 C45.287,32.918 44.521,34.272 42.65,35.072 C40.84,35.849 39.291,35.856 38.594,35.806 C39.05,35.092 40.237,33.451 41.876,32.789 M41.675,32.292 C39.388,33.214 37.968,35.791 37.908,35.9 L37.734,36.222 L38.095,36.292 C38.182,36.307 40.26,36.683 42.862,35.565 C45.509,34.43 46.141,32.3 46.165,32.211 L46.242,31.945 L45.976,31.876 C45.894,31.856 43.955,31.373 41.675,32.292" fill="#373535"/>
      <path d="M46.647,28.372 C48.252,27.744 49.614,27.86 50.192,27.953 C49.926,28.512 49.145,29.799 47.28,30.576 C45.496,31.32 43.958,31.369 43.238,31.337 C43.751,30.612 45.021,29.009 46.647,28.372 M46.451,27.871 C44.16,28.769 42.597,31.32 42.532,31.429 L42.325,31.769 L42.72,31.832 C42.806,31.845 44.877,32.16 47.486,31.07 C50.142,29.964 50.794,27.922 50.822,27.836 L50.901,27.573 L50.639,27.5 C50.563,27.477 48.744,26.974 46.451,27.871" fill="#373535"/>
      <path d="M51.612,24.293 C53.202,23.69 54.482,23.808 55.034,23.906 C54.758,24.447 53.958,25.667 52.102,26.419 C50.332,27.134 48.813,27.219 48.078,27.206 C48.644,26.473 49.992,24.908 51.612,24.293 M51.42,23.792 C49.123,24.665 47.417,27.191 47.345,27.299 L47.105,27.659 L47.536,27.716 C47.622,27.726 49.686,27.976 52.302,26.916 C54.969,25.836 55.643,23.884 55.668,23.799 L55.753,23.542 L55.494,23.461 C55.423,23.438 53.725,22.917 51.42,23.792" fill="#373535"/>
      <path d="M56.652,20.639 C58.227,20.06 59.429,20.178 59.957,20.281 C59.667,20.802 58.854,21.96 57,22.687 C55.254,23.374 53.757,23.492 53.004,23.499 C53.622,22.759 55.042,21.234 56.652,20.639 M56.468,20.136 C54.166,20.985 52.318,23.49 52.239,23.596 L51.964,23.975 L52.429,24.021 C52.515,24.03 54.575,24.218 57.197,23.187 C59.874,22.136 60.567,20.27 60.596,20.189 L60.685,19.935 L60.431,19.846 C60.366,19.822 58.785,19.283 56.468,20.136" fill="#373535"/>
      <path d="M20.094,56.403 C20.094,56.32 20.096,56.241 20.101,56.159 C20.221,54.315 21.218,52.689 21.619,52.105 C22.084,52.583 23.191,53.927 23.191,55.909 C23.191,55.985 23.189,56.063 23.184,56.141 C23.093,58.254 22.118,59.578 21.717,60.037 C21.263,59.551 20.094,58.135 20.094,56.403 M21.37,51.528 C21.303,51.614 19.727,53.66 19.564,56.123 C19.402,58.63 21.452,60.545 21.541,60.624 L21.722,60.791 L21.904,60.624 C21.973,60.562 23.596,59.04 23.721,56.163 C23.848,53.266 21.837,51.559 21.752,51.488 L21.539,51.309 z" fill="#373535"/>
      <path d="M23.022,50.942 C23.022,50.784 23.031,50.621 23.051,50.459 C23.084,50.178 23.136,49.909 23.204,49.657 C23.596,48.201 24.409,47.063 24.774,46.602 C25.159,47.061 25.998,48.253 25.998,49.951 C25.998,50.151 25.985,50.358 25.961,50.573 C25.715,52.608 24.703,53.87 24.277,54.322 C23.899,53.821 23.022,52.5 23.022,50.942 M24.569,46.01 C24.515,46.07 23.233,47.484 22.686,49.517 C22.612,49.792 22.554,50.09 22.518,50.394 C22.223,52.826 23.979,54.818 24.055,54.903 L24.228,55.096 L24.429,54.928 C24.498,54.868 26.156,53.429 26.493,50.637 C26.831,47.814 25.028,46.07 24.952,45.997 L24.754,45.81 z" fill="#373535"/>
      <path d="M26.317,45.876 C26.317,45.625 26.337,45.364 26.386,45.103 C26.437,44.817 26.499,44.565 26.577,44.334 C27.063,42.9 27.925,41.862 28.314,41.441 C28.621,41.876 29.225,42.909 29.225,44.33 C29.225,44.65 29.194,44.99 29.12,45.349 C28.728,47.302 27.679,48.501 27.226,48.946 C26.927,48.441 26.317,47.248 26.317,45.876 M28.156,40.835 C28.099,40.889 26.753,42.143 26.07,44.161 C25.983,44.419 25.912,44.697 25.856,45.01 C25.429,47.362 26.891,49.431 26.954,49.519 L27.116,49.746 L27.337,49.572 C27.408,49.517 29.102,48.163 29.648,45.454 C30.201,42.708 28.604,40.927 28.535,40.854 L28.354,40.653 z" fill="#373535"/>
      <path d="M29.942,41.225 C29.942,40.856 29.979,40.471 30.073,40.088 C30.142,39.801 30.218,39.558 30.305,39.346 C30.884,37.939 31.79,37 32.203,36.619 C32.433,37.011 32.843,37.87 32.843,39.032 C32.843,39.469 32.785,39.95 32.638,40.46 C32.101,42.327 31.022,43.467 30.536,43.908 C30.323,43.423 29.942,42.399 29.942,41.225 M32.099,36 C32.04,36.046 30.632,37.14 29.808,39.143 C29.71,39.38 29.628,39.647 29.55,39.961 C28.997,42.234 30.158,44.376 30.206,44.467 L30.354,44.732 L30.599,44.554 C30.672,44.502 32.4,43.234 33.155,40.609 C33.92,37.944 32.533,36.124 32.473,36.049 L32.311,35.839 z" fill="#373535"/>
      <path d="M33.849,37.04 C33.849,36.516 33.911,35.955 34.083,35.404 C34.173,35.118 34.258,34.891 34.354,34.693 C35.034,33.306 35.984,32.46 36.418,32.121 C36.583,32.462 36.835,33.132 36.835,34.038 C36.835,34.586 36.744,35.216 36.481,35.904 C35.809,37.683 34.695,38.767 34.174,39.201 C34.045,38.767 33.849,37.968 33.849,37.04 M36.369,31.498 C36.307,31.536 34.844,32.469 33.874,34.457 C33.765,34.682 33.667,34.931 33.571,35.243 C32.889,37.438 33.751,39.652 33.789,39.745 L33.911,40.05 L34.188,39.87 C34.261,39.818 36.022,38.634 36.984,36.096 C37.964,33.51 36.788,31.656 36.737,31.578 L36.592,31.358 z" fill="#373535"/>
      <path d="M37.997,33.382 C37.997,32.671 38.088,31.836 38.391,31.044 C38.498,30.769 38.596,30.554 38.705,30.365 C39.48,29.002 40.471,28.25 40.929,27.954 C41.03,28.234 41.168,28.719 41.168,29.387 C41.168,30.024 41.041,30.808 40.626,31.676 C39.816,33.379 38.668,34.397 38.118,34.82 C38.062,34.491 37.997,33.982 37.997,33.382 M40.94,27.324 C40.875,27.354 39.36,28.127 38.237,30.1 C38.118,30.312 38.006,30.551 37.89,30.852 C37.08,32.967 37.65,35.25 37.674,35.345 L37.763,35.695 L38.073,35.508 C38.148,35.464 39.942,34.361 41.11,31.908 C42.301,29.405 41.339,27.517 41.296,27.439 L41.174,27.205 z" fill="#373535"/>
      <path d="M42.334,30.343 C42.334,29.503 42.437,28.181 42.978,27.008 C43.097,26.749 43.214,26.537 43.332,26.357 C44.208,25.019 45.239,24.356 45.716,24.102 C45.767,24.316 45.821,24.633 45.821,25.055 C45.821,25.76 45.663,26.715 45.05,27.771 C44.108,29.397 42.928,30.351 42.344,30.76 C42.339,30.638 42.334,30.502 42.334,30.343 M45.793,23.472 C45.725,23.498 44.163,24.113 42.882,26.061 C42.749,26.266 42.621,26.502 42.49,26.782 C41.553,28.817 41.829,31.168 41.842,31.266 L41.889,31.658 L42.236,31.469 C42.314,31.427 44.139,30.409 45.516,28.04 C46.916,25.623 46.168,23.703 46.137,23.622 L46.037,23.378 z" fill="#373535"/>
      <path d="M47.822,23.287 C47.951,23.048 48.081,22.846 48.217,22.663 C49.196,21.351 50.269,20.775 50.764,20.564 C50.779,20.688 50.792,20.84 50.792,21.034 C50.792,21.753 50.617,22.906 49.735,24.182 C48.664,25.729 47.45,26.626 46.832,27.021 C46.89,26.234 47.089,24.623 47.822,23.287 M50.901,19.938 C50.835,19.958 49.225,20.417 47.787,22.343 C47.635,22.543 47.493,22.77 47.351,23.028 C46.281,24.984 46.271,27.404 46.271,27.506 L46.273,27.935 L46.659,27.746 C46.738,27.706 48.598,26.771 50.176,24.487 C51.788,22.156 51.256,20.205 51.232,20.125 L51.158,19.869 z" fill="#373535"/>
      <path d="M53.313,19.281 C54.399,17.997 55.513,17.505 56.025,17.333 C56.028,17.346 56.028,17.353 56.028,17.369 C56.028,17.987 55.866,19.384 54.633,20.906 C53.44,22.381 52.186,23.22 51.536,23.597 C51.709,22.641 52.197,20.598 53.313,19.281 M56.225,16.721 C56.156,16.732 54.507,17.039 52.904,18.934 C51.309,20.816 50.935,23.926 50.919,24.057 L50.866,24.523 L51.293,24.333 C51.374,24.297 53.268,23.444 55.053,21.243 C56.868,18.998 56.55,17.021 56.537,16.94 L56.49,16.674 z" fill="#373535"/>
      <path d="M6.461,43.347 C6.461,23.008 23.008,6.459 43.35,6.459 C49.368,6.459 55.307,7.951 60.589,10.748 C59.817,11.629 56.762,15.114 56.292,15.647 C52.231,13.747 47.88,12.773 43.35,12.773 C26.491,12.773 12.773,26.488 12.773,43.347 C12.773,50.869 15.325,57.73 20.132,63.239 C19.856,63.877 19.363,65.278 19.363,67.132 C19.363,68.667 19.72,70.507 20.8,72.465 C11.873,65.354 6.461,54.543 6.461,43.347 M5.25,43.347 C5.25,56.33 12.277,68.82 23.589,75.947 L24.057,76.241 L24.394,75.802 C24.489,75.678 24.527,75.56 24.527,75.451 C24.527,75.173 24.289,74.954 24.155,74.829 L23.501,74.202 C21.169,71.554 20.544,69.043 20.544,67.112 C20.544,64.978 21.307,63.553 21.371,63.443 L21.579,63.067 L21.291,62.744 C16.512,57.412 13.987,50.705 13.987,43.347 C13.987,27.156 27.159,13.985 43.35,13.985 C47.851,13.985 52.171,14.976 56.187,16.93 L56.603,17.133 L62.506,10.4 L61.851,10.034 C56.225,6.902 49.826,5.248 43.35,5.248 C22.341,5.248 5.25,22.341 5.25,43.347" fill="#373535"/>
      <path d="M56.714,15.841 C52.532,13.804 48.036,12.773 43.349,12.773 C26.49,12.773 12.773,26.488 12.773,43.347 C12.773,51.009 15.407,57.996 20.39,63.552 L20.913,64.137 L23.238,60.623 L23.114,60.479 C22.906,60.454 22.734,60.424 22.609,60.396 C22.642,60.301 22.687,60.176 22.742,60.035 C22.56,59.817 22.376,59.599 22.202,59.378 C22.015,59.676 21.839,59.898 21.717,60.038 C21.263,59.552 20.094,58.135 20.094,56.404 C20.094,56.347 20.096,56.293 20.099,56.237 C17.923,52.409 16.821,48.093 16.821,43.347 C16.821,28.719 28.721,16.819 43.349,16.819 C46.941,16.819 50.403,17.518 53.66,18.899 C54.01,18.537 54.354,18.253 54.675,18.031 C51.108,16.431 47.306,15.607 43.349,15.607 C28.054,15.607 15.608,28.051 15.608,43.347 C15.608,49.98 17.678,55.811 21.732,60.701 C21.497,61.059 21.167,61.558 20.789,62.128 C16.349,56.897 13.987,50.432 13.987,43.347 C13.987,27.157 27.158,13.985 43.349,13.985 C47.651,13.985 51.78,14.899 55.644,16.685 C55.483,17.035 55.325,17.378 55.166,17.722 C55.52,17.522 55.82,17.402 56.024,17.332 C56.028,17.347 56.028,17.353 56.028,17.368 C56.028,17.82 55.939,18.685 55.414,19.711 L55.553,19.778 L57.249,16.1 z" fill="#373535"/>
      <path d="M56.444,9.848 L53.52,13.544 C53.788,13.637 54.055,13.732 54.32,13.832 L57.222,10.161 C56.964,10.054 56.703,9.95 56.444,9.848" fill="#373535"/>
      <path d="M50.722,8.145 L49.018,12.366 C49.286,12.415 49.554,12.467 49.822,12.524 L51.519,8.32 C51.254,8.258 50.987,8.201 50.722,8.145" fill="#373535"/>
      <path d="M43.917,7.385 L43.498,11.858 C43.767,11.859 44.037,11.863 44.306,11.872 L44.724,7.406 C44.454,7.396 44.186,7.389 43.917,7.385" fill="#373535"/>
      <path d="M37.286,7.89 L38.136,12.29 C38.401,12.246 38.666,12.205 38.933,12.167 L38.082,7.764 C37.816,7.803 37.55,7.845 37.286,7.89" fill="#373535"/>
      <path d="M30.852,9.617 L32.863,13.653 C33.119,13.563 33.376,13.476 33.634,13.392 L31.616,9.343 C31.36,9.432 31.105,9.523 30.852,9.617" fill="#373535"/>
      <path d="M24.749,12.569 L27.752,15.998 C27.99,15.862 28.23,15.729 28.472,15.599 L25.453,12.152 C25.216,12.288 24.982,12.427 24.749,12.569" fill="#373535"/>
      <path d="M19.203,16.707 L22.994,19.34 C23.207,19.16 23.422,18.982 23.639,18.806 L19.824,16.157 C19.615,16.337 19.408,16.521 19.203,16.707" fill="#373535"/>
      <path d="M14.486,21.903 L18.84,23.597 C19.019,23.377 19.199,23.16 19.382,22.944 L14.994,21.237 C14.822,21.457 14.653,21.678 14.486,21.903" fill="#373535"/>
      <path d="M10.843,27.952 L15.529,28.606 C15.664,28.352 15.802,28.1 15.944,27.851 L11.215,27.192 C11.088,27.444 10.964,27.697 10.843,27.952" fill="#373535"/>
      <path d="M8.457,34.59 L13.235,34.133 C13.32,33.853 13.409,33.575 13.503,33.298 L8.676,33.759 C8.6,34.035 8.527,34.312 8.457,34.59" fill="#373535"/>
      <path d="M7.422,41.542 L12.043,39.935 C12.076,39.638 12.112,39.34 12.153,39.045 L7.476,40.671 C7.455,40.961 7.436,41.251 7.422,41.542" fill="#373535"/>
      <path d="M7.78,48.563 L11.955,45.822 C11.932,45.514 11.91,45.207 11.896,44.897 L7.656,47.682 C7.693,47.976 7.735,48.27 7.78,48.563" fill="#373535"/>
      <path d="M9.56,55.434 L12.95,51.701 C12.866,51.391 12.79,51.076 12.715,50.761 L9.255,54.572 C9.353,54.861 9.455,55.147 9.56,55.434" fill="#373535"/>
      <path d="M12.749,61.999 L15.146,57.438 C14.996,57.141 14.846,56.845 14.707,56.543 L12.265,61.189 C12.422,61.461 12.584,61.731 12.749,61.999" fill="#373535"/>
      <path d="M16.833,67.47 L18.115,62.185 C17.903,61.905 17.694,61.624 17.492,61.339 L16.185,66.73 C16.398,66.98 16.614,67.226 16.833,67.47" fill="#373535"/>
      <path d="M55.844,20.043 C55.955,20.117 56.065,20.19 56.173,20.262 C56.271,20.219 56.367,20.173 56.468,20.136 C56.586,20.093 56.701,20.055 56.816,20.018 C56.568,19.855 56.337,19.672 56.114,19.478 C56.038,19.661 55.947,19.85 55.844,20.043" fill="#373535"/>
    </g>
    <path d="M209.212,47.723 L210.742,47.723 L209.986,35.591 L207.988,35.591 L205.828,41.459 C205.288,42.989 204.856,44.321 204.55,45.545 L204.496,45.545 C204.19,44.285 203.776,42.953 203.272,41.459 L201.202,35.591 L199.204,35.591 L198.358,47.723 L199.852,47.723 L200.176,42.521 C200.284,40.703 200.374,38.669 200.41,37.157 L200.446,37.157 C200.788,38.597 201.274,40.163 201.85,41.873 L203.812,47.651 L205,47.651 L207.142,41.765 C207.754,40.091 208.258,38.579 208.672,37.157 L208.726,37.157 C208.708,38.669 208.816,40.703 208.906,42.395 z" fill="#9B9A9A"/>
    <path d="M108.974,68.801 L110.558,68.801 L110.558,58.001 L114.266,58.001 L114.266,56.669 L105.284,56.669 L105.284,58.001 L108.974,58.001 z" fill="#9B9A9A"/>
    <path d="M122.918,56.471 C119.678,56.471 117.284,58.991 117.284,62.843 C117.284,66.515 119.534,68.999 122.738,68.999 C125.834,68.999 128.372,66.785 128.372,62.609 C128.372,59.009 126.23,56.471 122.918,56.471 z M122.846,57.749 C125.456,57.749 126.716,60.269 126.716,62.681 C126.716,65.435 125.312,67.721 122.828,67.721 C120.362,67.721 118.958,65.399 118.958,62.807 C118.958,60.143 120.254,57.749 122.846,57.749 z" fill="#9B9A9A"/>
    <path d="M138.157,56.471 C134.917,56.471 132.523,58.991 132.523,62.843 C132.523,66.515 134.773,68.999 137.977,68.999 C141.073,68.999 143.611,66.785 143.611,62.609 C143.611,59.009 141.469,56.471 138.157,56.471 z M138.085,57.749 C140.695,57.749 141.955,60.269 141.955,62.681 C141.955,65.435 140.551,67.721 138.067,67.721 C135.601,67.721 134.197,65.399 134.197,62.807 C134.197,60.143 135.493,57.749 138.085,57.749 z" fill="#9B9A9A"/>
    <path d="M148.284,68.801 L155.034,68.801 L155.034,67.487 L149.85,67.487 L149.85,56.669 L148.284,56.669 z" fill="#9B9A9A"/>
    <path d="M159.284,68.801 L160.85,68.801 L160.85,64.175 L162.002,62.843 L165.998,68.801 L167.852,68.801 L163.118,61.817 L167.51,56.669 L165.566,56.669 L161.858,61.223 C161.552,61.619 161.228,62.051 160.904,62.519 L160.85,62.519 L160.85,56.669 L159.284,56.669 z" fill="#9B9A9A"/>
    <path d="M172.284,56.669 L172.284,68.801 L173.85,68.801 L173.85,56.669 z" fill="#9B9A9A"/>
    <path d="M181.974,68.801 L183.558,68.801 L183.558,58.001 L187.266,58.001 L187.266,56.669 L178.284,56.669 L178.284,58.001 L181.974,58.001 z" fill="#9B9A9A"/>
    <path d="M105.284,47.855 C105.806,47.927 106.634,47.999 107.714,47.999 C109.694,47.999 111.062,47.639 111.908,46.865 C112.52,46.271 112.934,45.479 112.934,44.435 C112.934,42.635 111.584,41.681 110.432,41.393 L110.432,41.357 C111.71,40.889 112.484,39.863 112.484,38.693 C112.484,37.739 112.106,37.019 111.476,36.551 C110.72,35.939 109.712,35.669 108.146,35.669 C107.048,35.669 105.968,35.777 105.284,35.921 z M106.85,36.983 C107.102,36.929 107.516,36.875 108.236,36.875 C109.82,36.875 110.9,37.433 110.9,38.855 C110.9,40.025 109.928,40.889 108.272,40.889 L106.85,40.889 z M106.85,42.077 L108.146,42.077 C109.856,42.077 111.278,42.761 111.278,44.417 C111.278,46.181 109.784,46.775 108.164,46.775 C107.606,46.775 107.156,46.757 106.85,46.703 z" fill="#9B9A9A"/>
    <path d="M117.284,35.677 L117.284,47.809 L118.85,47.809 L118.85,35.677 z" fill="#9B9A9A"/>
    <path d="M128.918,35.57 C125.678,35.57 123.284,38.09 123.284,41.942 C123.284,45.614 125.534,48.098 128.738,48.098 C131.834,48.098 134.372,45.884 134.372,41.708 C134.372,38.108 132.23,35.57 128.918,35.57 z M128.846,36.848 C131.456,36.848 132.716,39.368 132.716,41.78 C132.716,44.534 131.312,46.82 128.828,46.82 C126.362,46.82 124.958,44.498 124.958,41.906 C124.958,39.242 126.254,36.848 128.846,36.848 z" fill="#9B9A9A"/>
    <path d="M138.284,35.57 L138.284,47.702 L139.85,47.702 L139.85,35.57 z" fill="#9B9A9A"/>
    <path d="M146.76,47.724 L146.76,42.54 C146.76,40.524 146.724,39.066 146.634,37.536 L146.688,37.518 C147.3,38.832 148.11,40.218 148.956,41.568 L152.808,47.724 L154.392,47.724 L154.392,35.592 L152.916,35.592 L152.916,40.668 C152.916,42.558 152.952,44.034 153.096,45.654 L153.06,45.672 C152.484,44.43 151.782,43.152 150.882,41.73 L146.994,35.592 L145.284,35.592 L145.284,47.724 z" fill="#9B9A9A"/>
    <path d="M160.284,47.702 L161.85,47.702 L161.85,42.212 L166.44,42.212 L166.44,40.916 L161.85,40.916 L161.85,36.884 L166.818,36.884 L166.818,35.57 L160.284,35.57 z" fill="#9B9A9A"/>
    <path d="M176.02,35.57 C172.78,35.57 170.386,38.09 170.386,41.942 C170.386,45.614 172.636,48.098 175.84,48.098 C178.936,48.098 181.474,45.884 181.474,41.708 C181.474,38.108 179.332,35.57 176.02,35.57 z M175.948,36.848 C178.558,36.848 179.818,39.368 179.818,41.78 C179.818,44.534 178.414,46.82 175.93,46.82 C173.464,46.82 172.06,44.498 172.06,41.906 C172.06,39.242 173.356,36.848 175.948,36.848 z" fill="#9B9A9A"/>
    <path d="M185.372,47.779 L186.938,47.779 L186.938,42.523 L188.414,42.523 C189.836,42.577 190.484,43.207 190.844,44.881 C191.186,46.393 191.456,47.437 191.654,47.779 L193.274,47.779 C193.022,47.311 192.734,46.141 192.338,44.449 C192.05,43.189 191.492,42.325 190.556,42.001 L190.556,41.947 C191.834,41.515 192.842,40.453 192.842,38.851 C192.842,37.915 192.5,37.087 191.888,36.547 C191.132,35.863 190.052,35.557 188.378,35.557 C187.298,35.557 186.164,35.647 185.372,35.809 z M186.938,36.907 C187.19,36.835 187.73,36.763 188.486,36.763 C190.142,36.781 191.276,37.465 191.276,39.031 C191.276,40.417 190.214,41.335 188.54,41.335 L186.938,41.335 z" fill="#9B9A9A"/>
    <path d="M222.54,43.907 L223.836,47.723 L225.51,47.723 L221.37,35.591 L219.48,35.591 L215.358,47.723 L216.978,47.723 L218.238,43.907 z M218.562,42.683 L219.75,39.173 C219.984,38.435 220.182,37.697 220.362,36.977 L220.398,36.977 C220.578,37.679 220.758,38.399 221.028,39.191 L222.216,42.683 z" fill="#9B9A9A"/>
    <path d="M231.048,47.723 L232.632,47.723 L232.632,36.923 L236.34,36.923 L236.34,35.591 L227.358,35.591 L227.358,36.923 L231.048,36.923 z" fill="#9B9A9A"/>
    <path d="M240.358,35.591 L240.358,47.723 L241.924,47.723 L241.924,35.591 z" fill="#9B9A9A"/>
    <path d="M255.232,46.292 C254.602,46.598 253.63,46.796 252.676,46.796 C249.724,46.796 248.014,44.888 248.014,41.918 C248.014,38.732 249.904,36.914 252.748,36.914 C253.756,36.914 254.602,37.13 255.196,37.418 L255.574,36.14 C255.16,35.924 254.206,35.6 252.694,35.6 C248.932,35.6 246.358,38.174 246.358,41.972 C246.358,45.95 248.932,48.11 252.352,48.11 C253.828,48.11 254.98,47.822 255.556,47.534 z" fill="#9B9A9A"/>
    <path d="M259.343,47.314 C259.991,47.746 261.269,48.088 262.439,48.088 C265.301,48.088 266.687,46.468 266.687,44.596 C266.687,42.814 265.643,41.824 263.591,41.032 C261.917,40.384 261.179,39.826 261.179,38.692 C261.179,37.864 261.809,36.874 263.465,36.874 C264.563,36.874 265.373,37.234 265.769,37.45 L266.201,36.172 C265.661,35.866 264.761,35.578 263.519,35.578 C261.161,35.578 259.595,36.982 259.595,38.872 C259.595,40.582 260.819,41.608 262.799,42.31 C264.437,42.94 265.085,43.588 265.085,44.722 C265.085,45.946 264.149,46.792 262.547,46.792 C261.467,46.792 260.441,46.432 259.739,46 z" fill="#9B9A9A"/>
    <path d="M116.138,27.274 L117.668,27.274 L116.912,15.142 L114.914,15.142 L112.754,21.01 C112.214,22.54 111.782,23.872 111.476,25.096 L111.422,25.096 C111.116,23.836 110.702,22.504 110.198,21.01 L108.128,15.142 L106.13,15.142 L105.284,27.274 L106.778,27.274 L107.102,22.072 C107.21,20.254 107.3,18.22 107.336,16.708 L107.372,16.708 C107.714,18.148 108.2,19.714 108.776,21.424 L110.738,27.202 L111.926,27.202 L114.068,21.316 C114.68,19.642 115.184,18.13 115.598,16.708 L115.652,16.708 C115.634,18.22 115.742,20.254 115.832,21.946 z" fill="#9B9A9A"/>
    <path d="M138.284,15.142 L138.284,27.274 L139.85,27.274 L139.85,15.142 z" fill="#9B9A9A"/>
    <path d="M124.341,27.319 L125.907,27.319 L125.907,22.459 C126.267,22.549 126.699,22.567 127.167,22.567 C128.697,22.567 130.047,22.117 130.875,21.235 C131.487,20.605 131.811,19.741 131.811,18.643 C131.811,17.563 131.415,16.681 130.749,16.105 C130.029,15.457 128.895,15.097 127.347,15.097 C126.087,15.097 125.097,15.205 124.341,15.331 z M125.907,16.465 C126.177,16.393 126.699,16.339 127.383,16.339 C129.111,16.339 130.245,17.113 130.245,18.715 C130.245,20.389 129.093,21.307 127.203,21.307 C126.681,21.307 126.249,21.271 125.907,21.181 z" fill="#9B9A9A"/>
  </g>
  <defs/>
</svg>