<?xml version="1.0" encoding="UTF-8" standalone="no"?>
<!-- Created with Inkscape (http://www.inkscape.org/) -->

<svg
   xmlns:dc="http://purl.org/dc/elements/1.1/"
   xmlns:cc="http://creativecommons.org/ns#"
   xmlns:rdf="http://www.w3.org/1999/02/22-rdf-syntax-ns#"
   xmlns:svg="http://www.w3.org/2000/svg"
   xmlns="http://www.w3.org/2000/svg"
   xmlns:sodipodi="http://sodipodi.sourceforge.net/DTD/sodipodi-0.dtd"
   xmlns:inkscape="http://www.inkscape.org/namespaces/inkscape"
   id="svg2"
   version="1.1"
   inkscape:version="0.91 r13725"
   xml:space="preserve"
   width="372"
   height="132.16251"
   viewBox="0 0 372 132.16251"
   sodipodi:docname="logo6.svg"><metadata
     id="metadata8"><rdf:RDF><cc:Work
         rdf:about=""><dc:format>image/svg+xml</dc:format><dc:type
           rdf:resource="http://purl.org/dc/dcmitype/StillImage" /><dc:title></dc:title></cc:Work></rdf:RDF></metadata><defs
     id="defs6"><clipPath
       clipPathUnits="userSpaceOnUse"
       id="clipPath16"><path
         d="m 0,141.73 453.54,0 L 453.54,0 0,0 0,141.73 Z"
         id="path18"
         inkscape:connector-curvature="0" /></clipPath><clipPath
       clipPathUnits="userSpaceOnUse"
       id="clipPath24"><path
         d="m 9.98437,125.766 104.18863,0 0,-104.1859 -104.18863,0 0,104.1859 z"
         id="path26"
         inkscape:connector-curvature="0" /></clipPath><clipPath
       clipPathUnits="userSpaceOnUse"
       id="clipPath204"><path
         d="m 130.854,58.752 251.907,0 0,-41.1661 -251.907,0 0,41.1661 z"
         id="path206"
         inkscape:connector-curvature="0" /></clipPath><clipPath
       clipPathUnits="userSpaceOnUse"
       id="clipPath3665"><rect
         style="fill:#666666"
         id="rect3667"
         width="109.17728"
         height="104.08612"
         x="8.485281"
         y="-125.58216"
         transform="scale(1,-1)" /></clipPath></defs><sodipodi:namedview
     pagecolor="#ffffff"
     bordercolor="#666666"
     borderopacity="1"
     objecttolerance="10"
     gridtolerance="10"
     guidetolerance="10"
     inkscape:pageopacity="0"
     inkscape:pageshadow="2"
     inkscape:window-width="1195"
     inkscape:window-height="680"
     id="namedview4"
     showgrid="false"
     inkscape:zoom="1"
     inkscape:cx="94.875068"
     inkscape:cy="99.84814"
     inkscape:window-x="3"
     inkscape:window-y="2"
     inkscape:window-maximized="0"
     inkscape:current-layer="g10" /><g
     id="g10"
     inkscape:groupmode="layer"
     inkscape:label="eb-minerva_50black-1"
     transform="matrix(1.25,0,0,-1.25,0,132.16308)"><g
       id="g12"
       clip-path="url(#clipPath3665)"
       transform="translate(-9.61665,-21.077965)"><g
         id="g14"
         clip-path="url(#clipPath16)"><g
           id="g20"><g
             id="g22" /><g
             id="g28"><g
               clip-path="url(#clipPath24)"
               id="g30"
               style="opacity:0.5"><g
                 transform="translate(9.9844,73.6743)"
                 id="g32"><path
                   d="m 0,0 c 0,-28.725 23.369,-52.094 52.095,-52.094 28.725,0 52.093,23.369 52.093,52.094 0,28.723 -23.368,52.092 -52.093,52.092 C 23.369,52.092 0,28.723 0,0 m 1.458,0 c 0,27.92 22.714,50.636 50.637,50.636 27.92,0 50.635,-22.716 50.635,-50.636 0,-27.922 -22.715,-50.639 -50.635,-50.639 C 24.172,-50.639 1.458,-27.922 1.458,0"
                   style="fill:#231f20;fill-opacity:1;fill-rule:nonzero;stroke:none"
                   id="path34"
                   inkscape:connector-curvature="0" /></g><g
                 transform="translate(76.5293,42.3428)"
                 id="g36"><path
                   d="m 0,0 c -1.265,-4.385 -1.867,-6.646 0.107,-11.165 0.02,-0.172 0.209,-0.731 0,-0.806 -2.183,0.439 -2.763,0.626 -4.813,0.779 -1.894,0.326 -5.041,-0.202 -7.147,-0.182 -1.645,-0.057 -3.312,-0.112 -5.035,-0.323 -0.516,0.266 -0.115,0.842 -0.075,1.224 0.19,0.595 0.209,0.9 0.268,1.589 0.267,0.286 0.594,0.135 0.918,0.269 1.11,0.171 2.049,1.147 2.316,2.182 0.346,1.089 -0.037,2.296 -0.535,3.331 -0.096,0.306 -0.516,0.537 -0.345,0.841 1.36,2.547 0.402,5.132 -0.056,7.62 -0.479,1.764 -1.207,3.714 -1.496,5.574 0.059,0.19 -0.19,0.631 0.23,0.669 l 0.156,-0.038 C -14.055,9.801 -9.889,6.072 -8.328,4.861 -6.769,3.65 -2.739,1.3 -0.117,0.669 0.132,0.461 0.094,0.286 0,0 m -19.384,-4.52 c 0,0.231 0.013,0.325 0.187,0.4 l 0.947,0 c 0.84,-0.029 1.921,-0.305 2.708,0.508 0.452,-0.016 0.492,-0.554 0.612,-0.969 0.108,-0.58 0.081,-0.949 0.081,-1.471 -0.188,-0.413 -0.399,-1.042 -0.827,-1.303 -0.679,-0.322 -1.362,-0.259 -2.014,0 -0.988,0.583 -1.707,1.516 -1.694,2.835 m 1.611,-4.832 c -0.121,-1.141 -1.555,-2.148 -2.256,-2.351 -0.704,-0.2 -2.804,-0.102 -3.409,0.106 -0.602,0.209 -2.076,3.088 -1.905,4.584 0,1.234 0.332,3.192 0.827,3.35 0.495,0.155 1.806,0.075 1.806,0.075 0.548,0.037 0.963,-0.094 1.445,-0.15 0.342,-0.131 0.101,-0.562 0.222,-0.806 0.155,-0.637 0.19,-1.326 0.585,-1.963 0.552,-1.068 1.566,-1.705 2.564,-2.079 0.225,-0.206 0.102,-0.484 0.121,-0.766 m -8.175,-1.977 c -0.39,-0.401 -0.61,-0.214 -1.006,-0.251 -1.126,0.306 -1.792,0.795 -2.111,2.071 -0.412,1.779 -0.398,3.735 0,5.551 l 0.182,0.143 c 0.792,0.09 1.991,0.251 2.317,0.072 0.324,-0.18 -0.351,-3.38 -0.351,-3.38 -0.02,-0.634 0.29,-2.258 0.579,-3.101 0.061,-0.125 0.709,-0.775 0.39,-1.105 m 13.33,37.959 -0.04,-1.092 c -0.099,-0.994 -0.559,-2.142 -1.495,-2.698 -0.56,0.133 -0.359,0.805 -0.498,1.263 0.359,0.994 1.057,1.818 1.635,2.699 0.078,0.058 0.158,0.095 0.238,0.058 l 0.16,-0.23 z m 8.124,8.811 c -0.581,-0.267 -1.178,-0.326 -1.82,-0.029 -0.164,0.222 -0.693,0.401 -0.484,0.728 0.466,0.754 1.254,1.378 1.738,2.119 l 0.225,0.12 c 0.982,1.185 2.529,2.178 3.995,3.069 l 0.887,0.385 c 0.192,0.193 0.643,0.594 0.82,0.18 0.032,-1.544 -0.621,-3.195 -2.092,-4.287 -0.894,-0.661 -1.276,-0.532 -2.073,-0.58 l -0.41,-0.742 C -3.805,36.035 -4.126,35.663 -4.494,35.441 M -7.678,20.875 c -0.267,-0.155 -2.583,0.728 -2.312,0.481 -0.549,0.595 0.347,0.795 -1.695,1.561 l -0.495,-0.051 c -0.063,-0.059 -0.243,-0.15 -0.426,0.104 -0.02,0.308 0.384,0.262 0.512,0.645 0.731,1.646 0.329,2.919 0.258,4.623 l 0.54,1.397 c 1.025,1.236 1.023,1.413 1.718,2.084 0.695,0.977 0.84,1.052 1.771,1.855 0.153,0.131 0.434,0.235 0.616,0.08 0.439,-0.342 0.462,-0.567 0.591,-1.006 0.219,-1.629 -0.765,-2.745 -1.953,-3.626 -0.843,-0.727 -1.645,-1.857 -1.465,-2.966 l 0.074,-0.077 c 0.384,0.325 0.869,0.515 1.032,0.917 0.642,1.434 2.371,2.086 3.339,3.33 0.421,0.747 0.163,2.042 0,2.903 -0.005,-0.024 1.268,0.602 0.923,0.378 0.605,-0.249 0.53,-0.683 0.822,-1.236 0.567,-1.438 0.518,-2.735 -0.359,-3.979 L -6.6,25.282 c -0.038,-1.533 0.385,-3.508 -1.078,-4.407 m 10.221,22.909 0.166,0.211 c 0.748,0.356 1.447,0.631 2.279,0.872 l 0.997,0.26 C 6.25,45.368 6.717,45.563 6.984,45.223 7,43.931 6.034,42.379 4.605,41.783 4.156,41.587 3.557,41.523 3.023,41.392 2.89,41.507 2.456,41.263 2.326,41.587 c 0.083,0.648 0.332,1.616 0.217,2.197 M 12.164,46.2 C 12.113,45.271 10.874,44.504 9.839,44.217 9.397,44.148 8.99,44.174 8.6,44.174 c -0.102,0.073 -0.219,0.159 -0.204,0.258 0.068,0.441 0.137,0.698 0.169,1.096 l 0.257,0.188 c 0.914,0.184 2.033,0.382 2.951,0.626 0.137,-0.029 0.305,-0.016 0.391,-0.142 M -17.367,27.636 c 2.681,4.806 5.937,8.98 9.422,13.269 l 4.882,5.549 c 3.483,3.716 7.332,7.526 11.602,10.472 0.534,0.308 0.77,0.937 1.324,0.495 l 0.502,-0.463 C 10.703,56.576 10.409,55.49 10.063,55.185 9.788,54.96 9.521,54.738 9.256,54.519 c 0.832,-0.825 2.033,-2.393 3.02,-3.407 0.434,-0.446 0.3,-0.909 1.076,-1.271 0.388,-0.182 0.498,-0.604 0.267,-0.968 -0.687,-0.88 -1.835,-0.747 -2.737,-0.977 C 7.533,47.15 4.824,46.192 1.119,44.394 -1.848,42.823 -4.222,41.082 -6.368,38.382 -7.189,37.368 -8.109,36.6 -8.797,35.377 c -1.953,-2.51 -3.505,-4.864 -5.057,-7.449 -0.554,-0.814 -0.735,-1.217 -1.512,-1.953 -0.377,-0.359 -0.714,0.39 -0.949,0.65 -0.027,0.029 -0.043,0.062 -0.062,0.091 -0.081,-0.01 -0.163,0.006 -0.243,0.058 -0.209,0.268 -0.862,0.383 -0.747,0.862 m 31.066,17.93 c -0.107,-0.112 -0.24,-0.252 -0.42,-0.204 -0.406,0.284 -0.252,0.645 -0.227,0.988 0.084,0.083 0.096,0.131 0.227,0.131 0.194,0.032 0.301,-0.11 0.372,-0.211 0.121,-0.223 0.134,-0.474 0.048,-0.704 m -44.99,-55.07 c -0.784,-0.018 -1.335,0.409 -1.699,1.335 -0.366,1.178 -0.489,2.218 -0.236,3.43 0.081,0.153 0.255,0.252 0.367,0.201 l 1.095,0.372 c 0.367,0.149 0.666,0.201 1.016,0.118 l 0.223,-0.22 c -0.017,-0.639 -0.175,-1.11 -0.19,-1.701 -0.065,-1.483 -0.19,-1.925 0.237,-3.337 -0.157,-0.372 -0.473,-0.192 -0.813,-0.198 m -3.267,4.137 c -0.171,-0.308 -0.147,-0.514 -0.225,-0.884 -0.093,-0.168 -0.572,0.06 -0.724,0.153 -0.595,0.322 -0.555,0.159 -0.726,0.709 -0.096,0.369 -0.085,0.803 0.527,1.124 0.383,0.217 1.148,0.476 1.397,0 0.078,-0.321 -0.305,-0.736 -0.249,-1.102 M 20.175,26.2 c -1.378,3.178 -2.927,5.915 -4.06,9.113 -0.802,1.148 -0.342,2.373 -0.438,3.599 -0.517,1.915 -1.322,3.39 -2.087,5.246 -0.212,0.535 0.383,0.691 0.594,1.071 0.345,0.939 0.096,1.993 -0.327,2.892 -0.17,0.516 0.442,0.88 0.327,1.416 -0.022,0.823 -0.746,1.38 -1.322,1.819 C 12,52.6 11.6,53.253 10.526,54.382 l 0,0.211 c 0.536,0.477 0.977,1.301 0.958,2.01 -0.212,0.802 -0.382,1.549 -1.15,2.105 C 9.11,59.398 7.867,58.326 6.891,57.77 6.62,57.58 6.486,57.387 6.104,57.424 5.856,57.513 5.599,57.604 5.339,57.698 5.089,57.413 4.778,57.111 4.397,56.81 l 1.19,-0.483 C 5.63,56.295 5.646,56.271 5.646,56.231 5.646,56.209 5.639,56.172 5.633,56.14 5.55,56.068 2.879,53.727 2.879,53.727 2.871,53.721 -1.934,48.972 -1.934,48.972 c 0,-0.003 -1.379,-1.4 -1.379,-1.4 -0.006,-0.008 -4.277,-4.928 -4.277,-4.928 -2.234,-2.59 -5.533,-6.842 -7.519,-9.953 -1.033,-1.424 -2.063,-3.005 -3.023,-4.501 -0.104,-0.166 -0.3,-0.152 -0.61,-0.115 -0.212,0.024 -0.428,0.046 -0.624,-0.021 l 0.009,0 -0.043,-0.011 c 0.01,0.003 0.024,0.006 0.034,0.011 -1.086,-0.12 -1.875,-0.482 -2.72,-1.246 -1.098,-1.293 -1.649,-2.859 -1.649,-4.547 0,-1.16 0.265,-2.384 0.798,-3.613 -0.225,-0.657 -0.742,-1.238 -1.205,-1.752 l -0.256,-0.289 -0.33,-0.323 c -0.213,-0.204 -0.457,-0.433 -0.634,-0.658 l -0.016,-0.022 -0.011,-0.027 c -0.021,-0.072 -0.031,-0.208 0.18,-0.31 l 0.05,-0.027 0.057,0.014 c 1.012,0.24 1.648,1.001 2.266,1.736 0,0 0.388,0.447 0.444,0.514 0.091,0.016 0.166,-0.035 0.3,-0.148 0.07,-0.058 0.15,-0.114 0.241,-0.158 l 0,-0.05 c 0,0 -0.014,-0.327 -0.016,-0.401 -2.395,-2.365 -4.345,-3.701 -6.895,-5.199 l -0.426,-0.249 0.492,-0.051 c 0.996,-0.099 1.94,0.46 2.853,1.001 l 1.097,0.605 c 1.014,0.519 1.953,1.311 2.865,2.077 0,0 0.824,0.684 0.913,0.756 0.085,-0.013 0.181,-0.123 0.257,-0.211 0,0 0.053,-0.059 0.088,-0.096 0.016,-0.029 0.765,-1.512 0.811,-1.601 -0.172,-0.703 -0.247,-1.407 -0.247,-2.11 0,-1.533 0.332,-3.059 0.659,-4.552 0.32,-1.471 0.652,-2.991 0.652,-4.484 0,-0.099 -0.002,-0.195 -0.005,-0.294 0,-0.461 -0.506,-1.073 -0.926,-1.266 -0.958,-0.163 -2.113,-0.175 -3.339,-0.185 -1.501,-0.013 -3.055,-0.027 -4.249,-0.35 -0.385,-0.046 -0.829,-0.172 -1.26,-0.292 -0.423,-0.118 -0.859,-0.241 -1.265,-0.297 l -0.041,-0.005 -0.045,-0.035 -0.147,-0.102 c -0.137,-0.085 -0.305,-0.189 -0.346,-0.391 -0.002,-0.015 -0.004,-0.034 -0.004,-0.053 0,-0.115 0.053,-0.24 0.138,-0.329 0.083,-0.086 0.188,-0.125 0.295,-0.115 0.361,0 0.765,0.146 1.158,0.289 0.273,0.099 0.559,0.203 0.822,0.248 2.493,0.426 5.228,0.341 7.079,0.191 0.915,0.016 2.416,0.045 2.957,1.343 0.195,0.527 0.262,1.017 0.262,1.488 0,0.519 -0.08,1.019 -0.163,1.533 l -0.163,1.262 c -0.11,0.771 -0.273,1.539 -0.431,2.284 -0.281,1.321 -0.57,2.679 -0.57,4.055 0,0.279 0.016,0.559 0.04,0.84 0.027,0.035 0.056,0.078 0.091,0.083 0.081,0.011 0.222,-0.101 0.335,-0.19 0.128,-0.101 0.259,-0.198 0.403,-0.235 0.166,-0.126 0.354,-0.161 0.525,-0.182 0.238,-0.032 0.367,-0.062 0.442,-0.246 0.107,-1.209 0.524,-2.459 0.928,-3.668 0.278,-0.832 0.567,-1.695 0.752,-2.535 0.329,-1.471 0.661,-2.964 0.661,-4.435 0,-0.875 -0.118,-1.745 -0.426,-2.599 -0.639,-1.164 -2.039,-1.169 -3.39,-1.174 l -0.404,0 -3.312,0.201 c -2.842,0.206 -5.779,0.417 -8.792,-0.07 0.021,0.003 -0.674,-0.073 -0.674,-0.073 -0.373,-0.056 -0.723,-0.101 -1.1,-0.013 -0.139,0.113 -0.252,0.308 -0.252,0.511 0,0.065 0.011,0.131 0.038,0.196 0.538,1.188 0.808,2.261 0.808,3.21 0,0.771 -0.177,1.459 -0.53,2.063 -0.779,1.494 -1.635,2.529 -2.692,3.252 -1.293,1.294 -2.399,2.441 -3.382,3.558 -0.575,0.073 -0.928,0.186 -0.966,0.199 l -0.128,0.044 -0.575,-0.709 c 0.746,-0.708 1.436,-1.417 2.279,-2.183 1.282,-0.69 2.317,-1.935 3.235,-2.777 1.111,-1.3 1.378,-2.679 1.148,-4.211 -0.153,-1.818 -1.817,-2.604 -2.948,-3.811 -0.458,-0.862 -0.747,-1.894 -0.116,-2.7 0.405,-1.07 2.125,-0.877 2.336,-1.76 0.474,-1.945 3.848,-3.069 4.506,-3.115 0.655,-0.045 1.335,-0.77 1.335,-0.77 1.34,-0.977 3.101,-0.742 4.027,-0.599 0.923,0.139 2.577,-0.608 3.612,-0.455 1.549,0.613 2.815,0.326 4.423,0.46 5.054,-0.078 10.796,0.038 15.965,-0.613 0.958,0.116 2.105,-0.631 3.008,-0.174 0.23,0.385 0.056,0.709 0,1.036 -2.47,3.885 -2.84,8.246 -1.44,12.478 L 1.713,0.393 c 3.351,-0.365 6.401,0.069 9.807,2.042 1.705,0.938 2.6,3.133 2.523,4.722 -0.057,1.033 -0.415,2.253 -0.241,3.345 0.059,0.487 0.382,1.227 0.801,1.46 0.18,0.1 0.807,0.525 1.004,1.07 0.324,0.887 -0.371,1.305 -0.571,1.425 0.541,0.221 1.066,1.327 0.568,2.189 -0.321,0.339 -0.693,1.685 -0.733,2.126 -0.114,0.631 -0.133,1.282 0.461,1.686 1.341,0.706 2.604,0.88 4,1.493 0.958,0.402 1.455,1.396 1.418,2.296 L 20.175,26.2 Z m -0.399,-3.343 c -1.419,-1.319 -3.427,-1.34 -5.054,-2.411 -0.747,-0.745 -0.558,-1.593 -0.253,-2.533 0.601,-1.19 0.374,-1.067 -0.467,-1.348 -1.963,-0.654 -1.941,-2.802 -4.303,-2.442 -0.135,-0.04 -0.687,0.236 -0.36,-0.159 0.254,-0.303 0.36,-0.12 0.86,-0.181 0.841,-0.04 1.155,0.307 1.745,0.708 0.843,0.709 0.743,0.976 1.779,1.474 0.248,0.058 0.859,0.24 1.2,0.12 0.23,-0.212 0.237,-0.217 0.274,-0.407 -0.134,-0.575 -0.974,-1.054 -1.295,-1.254 0.442,-0.323 1.268,-0.87 1.134,-1.328 -0.188,-0.301 -0.18,-0.352 -0.514,-0.514 -0.466,-0.227 -1.401,-0.192 -2.282,0.46 -0.134,-0.04 -0.28,0.261 -0.657,-0.098 0.857,-0.882 2.06,-0.682 2.239,-0.862 0.18,-0.18 -0.641,-1.246 -0.678,-1.476 -0.576,-1.53 0.13,-2.94 -0.177,-4.53 C 12.777,4.832 12.404,4.241 11.315,3.457 9.318,2.073 7.918,1.673 5.676,1.313 -0.202,0.911 -3.911,2.929 -8.144,6.09 c -4.233,3.161 -5.852,4.843 -7.173,6.622 -0.019,0.727 0.516,1.281 0.058,2.068 -0.382,-0.134 -0.345,-0.632 -0.575,-0.92 -0.326,-0.461 -1.11,-0.803 -1.667,-0.747 -1.741,0.594 -1.838,2.642 -2.927,3.81 -2.336,2.299 -2.989,5.611 -1.742,8.386 0.439,0.862 1.223,1.685 2.106,1.991 1.089,0.173 2.374,0.173 3.083,-0.881 0.839,-0.803 1.359,-2.106 1.567,-3.254 0.346,-0.557 -0.075,-1.187 0.498,-1.648 0.995,-0.093 1.856,-0.342 2.814,0.268 0.709,-0.094 0.806,-0.881 1.341,-1.223 l 0.958,-0.576 c 1.014,-0.419 2.318,-0.419 3.179,0.327 1.608,1.646 1.257,3.339 1.811,5.157 1.533,1.358 2.552,3.303 2.534,5.201 -0.097,1.166 -0.516,2.373 -1.206,3.539 0.114,0.691 0.497,1.207 0.727,1.82 0.193,0.115 0.442,0.115 0.651,0.153 1.704,0.363 3.255,1.915 3.924,3.542 l 0.153,0.152 c 1.953,0.134 4.385,0.825 5.514,2.874 0.231,0.88 1.226,0.23 1.838,0.439 1.033,0.059 2.069,0.631 2.853,1.303 0.229,0.077 0.401,-0.174 0.538,-0.286 0.457,-1.534 1.301,-3.008 1.779,-4.56 0.593,-1.167 0.806,-2.276 0.593,-3.464 0.25,-1.817 1.283,-3.521 2.01,-5.36 0.728,-1.934 1.857,-3.887 2.681,-5.879 0.153,-0.802 0.497,-1.436 0,-2.087"
                   style="fill:#231f20;fill-opacity:1;fill-rule:nonzero;stroke:none"
                   id="path38"
                   inkscape:connector-curvature="0" /></g><g
                 transform="translate(87.5938,80.46)"
                 id="g40"><path
                   d="m 0,0 c 0.267,-0.345 0.441,-0.65 0.229,-0.977 -0.497,-0.038 -0.575,0.594 -0.995,0.806 -0.689,0.342 -1.302,-0.022 -1.99,-0.193 -1.742,-0.747 -3.198,-2.24 -4.883,-3.024 -0.209,0 -0.402,0.019 -0.536,0.172 0.287,0.286 0.746,0.345 1.111,0.575 1.743,1.148 3.427,2.946 5.609,3.272 C -0.881,0.668 -0.363,0.46 0,0"
                   style="fill:#231f20;fill-opacity:1;fill-rule:nonzero;stroke:none"
                   id="path42"
                   inkscape:connector-curvature="0" /></g><g
                 transform="translate(85.9219,74.1104)"
                 id="g44"><path
                   d="M 0,0 C -0.271,-0.399 -0.699,-0.051 -1.076,-0.099 -1.937,0 -3.394,-0.201 -4.344,-0.083 -4.487,0 -4.595,0.15 -4.507,0.284 c 0.146,0.235 0.541,0.251 0.792,0.436 1.041,0.65 2.135,1.268 3.32,1.551 C -0.18,2.304 0,2.122 0.037,1.972 0.179,1.421 0.09,0.535 0,0 M 1.538,3.401 C 1.404,3.823 1.423,4.511 0.906,4.607 0.791,4.34 0.906,4.051 0.791,3.802 0.639,3.612 0.371,3.382 0.063,3.459 -2.043,3.326 -3.613,1.466 -5.411,0.511 -6.023,0.166 -6.714,-0.026 -7.363,-0.198 c -0.06,-0.096 -0.038,-0.23 0.055,-0.286 1.994,-0.212 3.963,-0.404 5.938,-0.613 l 2.198,0.249 c 0.06,0.286 -0.285,0.535 -0.229,0.862 0.252,0.898 0.327,1.875 0.077,2.718 0.175,0.457 0.825,0.115 0.862,0.669"
                   style="fill:#231f20;fill-opacity:1;fill-rule:nonzero;stroke:none"
                   id="path46"
                   inkscape:connector-curvature="0" /></g><g
                 transform="translate(88.5732,67.6416)"
                 id="g48"><path
                   d="M 0,0 C 0.07,0.101 0.149,0.214 0.244,0.224 0.37,0.177 0.436,0.118 0.452,-0.112 0.437,-0.482 0.343,-0.87 0.243,-1.282 0.129,-1.751 0.013,-2.229 0.013,-2.698 c 0,-0.209 0.023,-0.415 0.079,-0.617 0.277,-0.345 0.704,-0.423 1.217,-0.248 0.009,0.005 0.872,0.5 0.872,0.5 0.75,0.449 1.459,0.872 2.771,1.207 0.033,0.007 0.04,-0.002 0.045,-0.008 0.021,-0.025 0.03,-0.073 0.03,-0.135 0,-0.113 -0.033,-0.267 -0.087,-0.392 C 4.89,-2.413 3.676,-2.955 3.676,-2.955 2.721,-3.372 1.732,-3.805 0.806,-4.335 0.532,-4.392 0.279,-4.243 0.034,-4.101 l -0.059,0.036 c -0.353,0.482 -0.466,0.949 -0.466,1.416 0,0.42 0.091,0.837 0.185,1.268 0.088,0.401 0.176,0.816 0.198,1.249 C -0.079,-0.095 0,0 0,0"
                   style="fill:#231f20;fill-opacity:1;fill-rule:nonzero;stroke:none"
                   id="path50"
                   inkscape:connector-curvature="0" /></g><g
                 transform="translate(58.7427,68.0332)"
                 id="g52"><path
                   d="m 0,0 c 0.69,-1.414 -0.038,-2.755 0,-4.229 0.115,-0.42 0.939,-0.48 0.69,-0.977 -0.193,-0.134 -0.461,-0.171 -0.671,-0.019 -0.383,0.249 -0.517,0.439 -0.613,0.881 -0.096,1.3 0.939,2.815 0.018,4.039 -0.267,0.268 -0.65,0.535 -1.032,0.555 -0.825,-0.152 -1.245,-1.033 -1.531,-1.684 -0.441,-1.722 -0.556,-3.542 0.955,-4.92 0.883,-0.516 1.954,-1.073 2.012,-2.183 0.134,-0.192 0.401,-0.383 0.613,-0.268 0.267,0.019 0.305,0.784 0.688,0.421 l 0.115,-0.268 c -0.097,-0.305 -0.19,-0.843 -0.688,-0.862 -0.249,-0.056 -0.519,0.078 -0.728,0.23 -0.537,0.555 -0.115,1.397 -1.016,1.761 -1.493,0.461 -2.47,2.031 -2.623,3.505 -0.096,1.415 -0.037,2.967 1.188,4.211 0.479,0.365 1.111,0.594 1.724,0.402 C -0.554,0.539 -0.153,0.289 0,0"
                   style="fill:#231f20;fill-opacity:1;fill-rule:nonzero;stroke:none"
                   id="path54"
                   inkscape:connector-curvature="0" /></g><g
                 transform="translate(40.2959,57.0947)"
                 id="g56"><path
                   d="M 0,0 C 1.991,0.923 4.265,0.815 5.121,0.733 4.877,-0.057 4.051,-2.106 1.787,-3.217 -0.484,-4.329 -2.43,-4.064 -3.141,-3.909 -2.879,-3.122 -1.999,-0.929 0,0 M -0.271,0.585 C -2.997,-0.68 -3.829,-3.926 -3.864,-4.064 l -0.072,-0.287 0.281,-0.096 c 0.107,-0.035 2.638,-0.865 5.726,0.652 3.115,1.528 3.754,4.61 3.781,4.741 L 5.916,1.273 5.586,1.326 C 5.458,1.349 2.405,1.827 -0.271,0.585"
                   style="fill:#231f20;fill-opacity:1;fill-rule:evenodd;stroke:none"
                   id="path58"
                   inkscape:connector-curvature="0" /></g><g
                 transform="translate(43.0078,63.2119)"
                 id="g60"><path
                   d="M 0,0 C 1.983,0.896 4.147,0.78 4.977,0.692 4.722,-0.078 3.877,-2.042 1.616,-3.122 -0.637,-4.198 -2.569,-3.995 -3.307,-3.856 -2.994,-3.054 -1.996,-0.901 0,0 m -0.265,0.588 c -2.732,-1.234 -3.74,-4.449 -3.78,-4.585 l -0.094,-0.308 0.305,-0.094 c 0.107,-0.035 2.63,-0.787 5.729,0.696 3.127,1.495 3.791,4.474 3.817,4.599 L 5.779,1.223 5.453,1.281 C 5.33,1.303 2.421,1.801 -0.265,0.588"
                   style="fill:#231f20;fill-opacity:1;fill-rule:evenodd;stroke:none"
                   id="path62"
                   inkscape:connector-curvature="0" /></g><g
                 transform="translate(46.5498,69.1016)"
                 id="g64"><path
                   d="M 0,0 C 1.975,0.87 4.029,0.747 4.835,0.653 4.567,-0.099 3.703,-1.975 1.445,-3.025 -0.784,-4.061 -2.7,-3.919 -3.47,-3.799 -3.101,-2.982 -1.993,-0.875 0,0 M -0.26,0.592 C -2.994,-0.609 -4.179,-3.793 -4.228,-3.93 l -0.12,-0.327 0.335,-0.093 c 0.107,-0.029 2.624,-0.707 5.728,0.741 3.141,1.461 3.829,4.335 3.858,4.458 L 5.646,1.173 5.319,1.237 C 5.204,1.261 2.44,1.78 -0.26,0.592"
                   style="fill:#231f20;fill-opacity:1;fill-rule:evenodd;stroke:none"
                   id="path66"
                   inkscape:connector-curvature="0" /></g><g
                 transform="translate(50.0679,74.9209)"
                 id="g68"><path
                   d="M 0,0 C 1.969,0.84 3.915,0.712 4.69,0.616 4.412,-0.118 3.529,-1.91 1.273,-2.932 -0.931,-3.93 -2.833,-3.845 -3.631,-3.743 -3.205,-2.911 -1.985,-0.848 0,0 m -0.254,0.594 c -2.737,-1.172 -4.097,-4.326 -4.153,-4.457 l -0.147,-0.348 0.367,-0.091 c 0.104,-0.027 2.614,-0.629 5.728,0.783 3.152,1.43 3.864,4.199 3.894,4.316 l 0.08,0.324 -0.327,0.07 C 5.079,1.215 2.462,1.753 -0.254,0.594"
                   style="fill:#231f20;fill-opacity:1;fill-rule:evenodd;stroke:none"
                   id="path70"
                   inkscape:connector-curvature="0" /></g><g
                 transform="translate(54.9375,80.7432)"
                 id="g72"><path
                   d="M 0,0 C 1.958,0.813 3.799,0.68 4.548,0.575 4.257,-0.136 3.355,-1.843 1.105,-2.836 -1.092,-3.805 -2.973,-3.765 -3.789,-3.684 -3.299,-2.839 -1.977,-0.821 0,0 m -0.246,0.597 c -2.745,-1.14 -4.275,-4.265 -4.34,-4.396 l -0.179,-0.369 0.398,-0.086 c 0.107,-0.024 2.609,-0.549 5.732,0.827 3.165,1.396 3.901,4.061 3.93,4.174 L 5.381,1.068 5.057,1.146 C 4.956,1.169 2.48,1.729 -0.246,0.597"
                   style="fill:#231f20;fill-opacity:1;fill-rule:evenodd;stroke:none"
                   id="path74"
                   inkscape:connector-curvature="0" /></g><g
                 transform="translate(60.3076,86.3623)"
                 id="g76"><path
                   d="M 0,0 C 1.945,0.784 3.682,0.647 4.403,0.538 4.099,-0.155 3.179,-1.782 0.931,-2.743 -1.245,-3.677 -3.106,-3.685 -3.944,-3.625 -3.396,-2.767 -1.969,-0.795 0,0 m -0.241,0.597 c -2.748,-1.108 -4.455,-4.204 -4.527,-4.335 l -0.209,-0.388 0.434,-0.083 c 0.104,-0.019 2.601,-0.471 5.728,0.873 3.181,1.364 3.941,3.924 3.97,4.031 L 5.247,1.014 4.928,1.097 C 4.829,1.121 2.499,1.702 -0.241,0.597"
                   style="fill:#231f20;fill-opacity:1;fill-rule:evenodd;stroke:none"
                   id="path78"
                   inkscape:connector-curvature="0" /></g><g
                 transform="translate(66.041,91.6709)"
                 id="g80"><path
                   d="M 0,0 C 1.929,0.754 3.566,0.615 4.261,0.503 3.941,-0.169 3.003,-1.715 0.761,-2.649 -1.383,-3.543 -3.231,-3.602 -4.096,-3.564 -3.48,-2.692 -1.953,-0.766 0,0 m -0.235,0.602 c -2.753,-1.079 -4.632,-4.145 -4.709,-4.276 l -0.249,-0.409 0.474,-0.075 c 0.104,-0.016 2.593,-0.394 5.728,0.915 3.192,1.33 3.975,3.783 4.009,3.887 L 5.113,0.96 4.798,1.048 C 4.707,1.075 2.521,1.68 -0.235,0.602"
                   style="fill:#231f20;fill-opacity:1;fill-rule:evenodd;stroke:none"
                   id="path82"
                   inkscape:connector-curvature="0" /></g><g
                 transform="translate(72.0078,96.5723)"
                 id="g84"><path
                   d="M 0,0 C 1.911,0.725 3.449,0.583 4.113,0.465 3.781,-0.185 2.82,-1.651 0.589,-2.555 -1.538,-3.414 -3.363,-3.516 -4.246,-3.5 -3.566,-2.62 -1.947,-0.739 0,0 m -0.23,0.602 c -2.761,-1.049 -4.811,-4.085 -4.897,-4.214 l -0.289,-0.433 0.518,-0.068 c 0.103,-0.012 2.584,-0.313 5.728,0.961 3.205,1.298 4.014,3.644 4.045,3.746 L 4.977,0.902 4.666,1 C 4.58,1.027 2.54,1.654 -0.23,0.602"
                   style="fill:#231f20;fill-opacity:1;fill-rule:evenodd;stroke:none"
                   id="path86"
                   inkscape:connector-curvature="0" /></g><g
                 transform="translate(78.0654,100.9629)"
                 id="g88"><path
                   d="M 0,0 C 1.892,0.696 3.337,0.554 3.971,0.431 3.623,-0.195 2.646,-1.587 0.418,-2.461 -1.68,-3.286 -3.48,-3.428 -4.385,-3.436 -3.642,-2.547 -1.935,-0.714 0,0 m -0.222,0.605 c -2.766,-1.02 -4.987,-4.03 -5.082,-4.158 l -0.33,-0.455 0.559,-0.056 c 0.103,-0.011 2.579,-0.236 5.73,1.003 3.217,1.263 4.049,3.505 4.084,3.602 L 4.846,0.846 4.541,0.953 C 4.463,0.982 2.563,1.63 -0.222,0.605"
                   style="fill:#231f20;fill-opacity:1;fill-rule:evenodd;stroke:none"
                   id="path90"
                   inkscape:connector-curvature="0" /></g><g
                 transform="translate(34.1318,57.9844)"
                 id="g92"><path
                   d="M 0,0 C 0,0.1 0.003,0.195 0.008,0.294 0.153,2.51 1.351,4.463 1.833,5.166 2.392,4.591 3.722,2.976 3.722,0.594 3.722,0.503 3.719,0.409 3.714,0.315 3.604,-2.224 2.432,-3.815 1.951,-4.367 1.405,-3.783 0,-2.081 0,0 M 1.534,5.859 C 1.453,5.756 -0.441,3.297 -0.637,0.337 -0.832,-2.676 1.632,-4.977 1.739,-5.072 l 0.217,-0.201 0.219,0.201 C 2.258,-4.998 4.209,-3.168 4.359,0.289 4.511,3.77 2.095,5.822 1.993,5.907 L 1.737,6.122 1.534,5.859 Z"
                   style="fill:#231f20;fill-opacity:1;fill-rule:evenodd;stroke:none"
                   id="path94"
                   inkscape:connector-curvature="0" /></g><g
                 transform="translate(37.6504,64.5479)"
                 id="g96"><path
                   d="M 0,0 C 0,0.189 0.011,0.385 0.035,0.58 0.075,0.918 0.137,1.241 0.219,1.544 0.69,3.294 1.667,4.661 2.106,5.215 2.568,4.663 3.577,3.231 3.577,1.19 3.577,0.95 3.561,0.701 3.532,0.443 3.237,-2.002 2.02,-3.519 1.509,-4.062 1.054,-3.46 0,-1.873 0,0 M 1.859,5.927 C 1.795,5.854 0.254,4.155 -0.404,1.712 -0.492,1.381 -0.562,1.024 -0.605,0.658 -0.96,-2.264 1.15,-4.658 1.242,-4.76 L 1.45,-4.993 1.691,-4.79 c 0.083,0.072 2.076,1.801 2.48,5.156 C 4.578,3.759 2.411,5.854 2.32,5.942 L 2.082,6.167 1.859,5.927 Z"
                   style="fill:#231f20;fill-opacity:1;fill-rule:evenodd;stroke:none"
                   id="path98"
                   inkscape:connector-curvature="0" /></g><g
                 transform="translate(41.6104,70.6348)"
                 id="g100"><path
                   d="M 0,0 C 0,0.302 0.024,0.616 0.083,0.929 0.144,1.273 0.219,1.576 0.313,1.854 0.896,3.577 1.932,4.824 2.4,5.33 2.769,4.808 3.495,3.566 3.495,1.859 3.495,1.474 3.457,1.065 3.369,0.634 2.897,-1.713 1.637,-3.154 1.092,-3.689 0.733,-3.082 0,-1.648 0,0 M 2.21,6.058 C 2.141,5.994 0.524,4.487 -0.297,2.061 -0.401,1.752 -0.487,1.418 -0.554,1.041 -1.067,-1.785 0.69,-4.271 0.765,-4.377 L 0.96,-4.65 1.226,-4.441 c 0.085,0.066 2.121,1.693 2.777,4.949 0.664,3.3 -1.255,5.44 -1.338,5.528 L 2.448,6.277 2.21,6.058 Z"
                   style="fill:#231f20;fill-opacity:1;fill-rule:evenodd;stroke:none"
                   id="path102"
                   inkscape:connector-curvature="0" /></g><g
                 transform="translate(45.9663,76.2241)"
                 id="g104"><path
                   d="M 0,0 C 0,0.444 0.045,0.907 0.158,1.367 0.241,1.712 0.332,2.004 0.436,2.258 1.132,3.949 2.221,5.078 2.718,5.536 2.994,5.065 3.486,4.032 3.486,2.636 3.486,2.111 3.417,1.533 3.24,0.92 2.595,-1.324 1.298,-2.694 0.714,-3.224 0.458,-2.641 0,-1.41 0,0 M 2.593,6.28 C 2.521,6.224 0.83,4.91 -0.161,2.502 -0.278,2.218 -0.377,1.897 -0.471,1.52 -1.135,-1.212 0.26,-3.786 0.318,-3.896 L 0.495,-4.214 0.79,-4 c 0.087,0.062 2.164,1.586 3.071,4.741 0.92,3.203 -0.747,5.389 -0.819,5.48 L 2.847,6.473 2.593,6.28 Z"
                   style="fill:#231f20;fill-opacity:1;fill-rule:evenodd;stroke:none"
                   id="path106"
                   inkscape:connector-curvature="0" /></g><g
                 transform="translate(50.6616,81.2544)"
                 id="g108"><path
                   d="M 0,0 C 0,0.629 0.075,1.303 0.281,1.966 0.389,2.309 0.492,2.582 0.607,2.82 1.424,4.487 2.566,5.503 3.088,5.911 3.286,5.501 3.588,4.696 3.588,3.607 3.588,2.948 3.479,2.191 3.163,1.365 2.355,-0.773 1.017,-2.076 0.391,-2.598 0.236,-2.076 0,-1.116 0,0 M 3.029,6.66 C 2.954,6.614 1.196,5.493 0.03,3.104 -0.101,2.833 -0.219,2.534 -0.334,2.159 c -0.819,-2.638 0.217,-5.298 0.262,-5.41 l 0.147,-0.367 0.332,0.217 C 0.495,-3.339 2.612,-1.916 3.768,1.134 4.945,4.241 3.532,6.47 3.471,6.563 L 3.296,6.828 3.029,6.66 Z"
                   style="fill:#231f20;fill-opacity:1;fill-rule:evenodd;stroke:none"
                   id="path110"
                   inkscape:connector-curvature="0" /></g><g
                 transform="translate(55.6465,85.6504)"
                 id="g112"><path
                   d="M 0,0 C 0,0.854 0.11,1.857 0.474,2.809 0.602,3.139 0.72,3.398 0.851,3.625 1.782,5.263 2.973,6.167 3.524,6.523 3.645,6.186 3.811,5.603 3.811,4.8 3.811,4.035 3.658,3.093 3.16,2.05 2.186,0.003 0.806,-1.22 0.145,-1.729 0.078,-1.333 0,-0.722 0,0 M 3.537,7.28 C 3.459,7.243 1.638,6.314 0.289,3.944 0.145,3.689 0.011,3.401 -0.128,3.04 -1.102,0.498 -0.417,-2.245 -0.388,-2.36 l 0.107,-0.42 0.372,0.225 c 0.091,0.053 2.247,1.378 3.65,4.326 1.431,3.008 0.275,5.277 0.224,5.37 L 3.818,7.422 3.537,7.28 Z"
                   style="fill:#231f20;fill-opacity:1;fill-rule:evenodd;stroke:none"
                   id="path114"
                   inkscape:connector-curvature="0" /></g><g
                 transform="translate(60.8589,89.3022)"
                 id="g116"><path
                   d="M 0,0 C 0,1.009 0.123,2.598 0.773,4.008 0.917,4.319 1.057,4.573 1.199,4.79 2.252,6.398 3.491,7.195 4.064,7.5 4.125,7.243 4.19,6.861 4.19,6.355 4.19,5.507 4,4.359 3.264,3.09 2.132,1.137 0.714,-0.01 0.011,-0.502 0.005,-0.355 0,-0.192 0,0 M 4.156,8.257 C 4.075,8.225 2.197,7.487 0.658,5.146 0.498,4.899 0.345,4.616 0.187,4.279 -0.939,1.833 -0.607,-0.992 -0.592,-1.11 l 0.057,-0.471 0.417,0.227 c 0.094,0.051 2.287,1.274 3.941,4.121 1.683,2.905 0.784,5.212 0.747,5.309 L 4.45,8.37 4.156,8.257 Z"
                   style="fill:#231f20;fill-opacity:1;fill-rule:evenodd;stroke:none"
                   id="path118"
                   inkscape:connector-curvature="0" /></g><g
                 transform="translate(67.4541,97.7813)"
                 id="g120"><path
                   d="M 0,0 C 0.155,0.287 0.311,0.53 0.474,0.75 1.651,2.326 2.94,3.019 3.535,3.272 3.553,3.123 3.569,2.941 3.569,2.708 3.569,1.844 3.358,0.458 2.298,-1.075 1.011,-2.935 -0.447,-4.013 -1.19,-4.487 -1.121,-3.542 -0.881,-1.605 0,0 M 3.7,4.024 C 3.62,4 1.686,3.449 -0.043,1.135 -0.225,0.894 -0.396,0.621 -0.567,0.311 -1.852,-2.039 -1.864,-4.947 -1.864,-5.07 l 0.002,-0.516 0.464,0.227 c 0.095,0.048 2.33,1.172 4.226,3.917 C 4.765,1.359 4.126,3.704 4.097,3.8 L 4.009,4.107 3.7,4.024 Z"
                   style="fill:#231f20;fill-opacity:1;fill-rule:evenodd;stroke:none"
                   id="path122"
                   inkscape:connector-curvature="0" /></g><g
                 transform="translate(74.0518,102.5952)"
                 id="g124"><path
                   d="M 0,0 C 1.306,1.543 2.644,2.135 3.259,2.341 3.263,2.325 3.263,2.317 3.263,2.298 3.263,1.555 3.069,-0.123 1.587,-1.953 0.153,-3.725 -1.354,-4.733 -2.135,-5.186 -1.927,-4.038 -1.341,-1.582 0,0 M 3.5,3.077 C 3.417,3.063 1.435,2.694 -0.491,0.417 -2.408,-1.844 -2.857,-5.582 -2.876,-5.739 l -0.064,-0.56 0.513,0.228 c 0.097,0.043 2.373,1.068 4.518,3.714 2.182,2.697 1.8,5.073 1.784,5.171 L 3.818,3.133 3.5,3.077 Z"
                   style="fill:#231f20;fill-opacity:1;fill-rule:evenodd;stroke:none"
                   id="path126"
                   inkscape:connector-curvature="0" /></g><g
                 transform="translate(17.749,73.6743)"
                 id="g128"><path
                   d="m 0,0 c 0,24.442 19.885,44.33 44.33,44.33 7.232,0 14.37,-1.793 20.717,-5.154 -0.928,-1.059 -4.599,-5.247 -5.164,-5.888 -4.88,2.284 -10.109,3.454 -15.553,3.454 C 24.07,36.742 7.585,20.26 7.585,0 c 0,-9.039 3.067,-17.284 8.844,-23.904 -0.332,-0.767 -0.924,-2.451 -0.924,-4.679 0,-1.844 0.429,-4.056 1.726,-6.409 C 6.504,-26.446 0,-13.454 0,0 m -1.456,0 c 0,-15.602 8.445,-30.612 22.039,-39.176 l 0.563,-0.354 0.404,0.528 c 0.115,0.149 0.16,0.291 0.16,0.422 0,0.334 -0.286,0.597 -0.447,0.747 l -0.786,0.754 c -2.802,3.182 -3.553,6.2 -3.553,8.52 0,2.565 0.917,4.277 0.993,4.409 l 0.25,0.452 -0.345,0.388 C 12.078,-16.902 9.044,-8.842 9.044,0 c 0,19.457 15.829,35.286 35.286,35.286 5.41,0 10.601,-1.191 15.427,-3.54 l 0.5,-0.243 7.094,8.091 -0.787,0.439 C 59.803,43.797 52.113,45.785 44.33,45.785 19.083,45.785 -1.456,25.244 -1.456,0"
                   style="fill:#231f20;fill-opacity:1;fill-rule:evenodd;stroke:none"
                   id="path130"
                   inkscape:connector-curvature="0" /></g><g
                 transform="translate(78.1396,106.729)"
                 id="g132"><path
                   d="m 0,0 c -5.026,2.448 -10.429,3.687 -16.061,3.687 -20.26,0 -36.744,-16.482 -36.744,-36.742 0,-9.207 3.165,-17.603 9.153,-24.281 l 0.629,-0.702 2.794,4.223 -0.149,0.173 c -0.25,0.029 -0.457,0.065 -0.607,0.099 0.039,0.115 0.093,0.265 0.16,0.434 -0.219,0.262 -0.44,0.524 -0.649,0.79 -0.225,-0.358 -0.437,-0.625 -0.583,-0.793 -0.546,0.584 -1.951,2.286 -1.951,4.367 0,0.068 0.003,0.133 0.006,0.2 -2.614,4.601 -3.939,9.787 -3.939,15.49 0,17.579 14.301,31.88 31.88,31.88 4.316,0 8.477,-0.84 12.391,-2.499 0.42,0.434 0.834,0.776 1.219,1.043 -4.286,1.922 -8.855,2.912 -13.61,2.912 -18.381,0 -33.338,-14.954 -33.338,-33.336 0,-7.971 2.488,-14.978 7.36,-20.854 -0.283,-0.43 -0.679,-1.03 -1.134,-1.715 -5.335,6.286 -8.174,14.055 -8.174,22.569 0,19.457 15.829,35.286 35.286,35.286 5.169,0 10.132,-1.099 14.775,-3.245 -0.193,-0.421 -0.384,-0.833 -0.575,-1.246 0.426,0.24 0.787,0.385 1.032,0.468 0.004,-0.017 0.004,-0.025 0.004,-0.043 0,-0.543 -0.106,-1.582 -0.737,-2.815 l 0.166,-0.081 2.039,4.42 L 0,0 Z"
                   style="fill:#231f20;fill-opacity:1;fill-rule:evenodd;stroke:none"
                   id="path134"
                   inkscape:connector-curvature="0" /></g><g
                 transform="translate(77.8145,113.9312)"
                 id="g136"><path
                   d="m 0,0 -3.513,-4.442 c 0.322,-0.111 0.642,-0.225 0.961,-0.345 l 3.487,4.411 C 0.625,-0.247 0.312,-0.122 0,0"
                   style="fill:#231f20;fill-opacity:1;fill-rule:nonzero;stroke:none"
                   id="path138"
                   inkscape:connector-curvature="0" /></g><g
                 transform="translate(70.9385,115.9775)"
                 id="g140"><path
                   d="m 0,0 -2.048,-5.072 c 0.322,-0.059 0.645,-0.122 0.966,-0.19 l 2.04,5.052 C 0.64,-0.135 0.319,-0.067 0,0"
                   style="fill:#231f20;fill-opacity:1;fill-rule:nonzero;stroke:none"
                   id="path142"
                   inkscape:connector-curvature="0" /></g><g
                 transform="translate(62.7607,116.8916)"
                 id="g144"><path
                   d="m 0,0 -0.503,-5.376 c 0.323,-10e-4 0.647,-0.006 0.97,-0.016 L 0.97,-0.026 C 0.646,-0.014 0.323,-0.005 0,0"
                   style="fill:#231f20;fill-opacity:1;fill-rule:nonzero;stroke:none"
                   id="path146"
                   inkscape:connector-curvature="0" /></g><g
                 transform="translate(54.7925,116.2842)"
                 id="g148"><path
                   d="m 0,0 1.021,-5.288 c 0.318,0.054 0.637,0.103 0.958,0.148 L 0.956,0.152 C 0.636,0.105 0.317,0.054 0,0"
                   style="fill:#231f20;fill-opacity:1;fill-rule:nonzero;stroke:none"
                   id="path150"
                   inkscape:connector-curvature="0" /></g><g
                 transform="translate(47.0601,114.2095)"
                 id="g152"><path
                   d="m 0,0 2.417,-4.851 c 0.307,0.108 0.616,0.213 0.926,0.314 L 0.918,0.329 C 0.61,0.222 0.304,0.113 0,0"
                   style="fill:#231f20;fill-opacity:1;fill-rule:nonzero;stroke:none"
                   id="path154"
                   inkscape:connector-curvature="0" /></g><g
                 transform="translate(39.7256,110.6616)"
                 id="g156"><path
                   d="m 0,0 3.609,-4.121 c 0.286,0.164 0.575,0.323 0.865,0.48 L 0.846,0.501 C 0.562,0.337 0.28,0.17 0,0"
                   style="fill:#231f20;fill-opacity:1;fill-rule:nonzero;stroke:none"
                   id="path158"
                   inkscape:connector-curvature="0" /></g><g
                 transform="translate(33.0615,105.689)"
                 id="g160"><path
                   d="m 0,0 4.555,-3.165 c 0.256,0.217 0.515,0.431 0.776,0.642 L 0.746,0.661 C 0.495,0.444 0.246,0.223 0,0"
                   style="fill:#231f20;fill-opacity:1;fill-rule:nonzero;stroke:none"
                   id="path162"
                   inkscape:connector-curvature="0" /></g><g
                 transform="translate(27.3926,99.4443)"
                 id="g164"><path
                   d="m 0,0 5.233,-2.036 c 0.214,0.265 0.431,0.526 0.651,0.785 L 0.611,0.801 C 0.404,0.536 0.201,0.27 0,0"
                   style="fill:#231f20;fill-opacity:1;fill-rule:nonzero;stroke:none"
                   id="path166"
                   inkscape:connector-curvature="0" /></g><g
                 transform="translate(23.0142,92.1748)"
                 id="g168"><path
                   d="M 0,0 5.632,-0.785 C 5.794,-0.48 5.96,-0.178 6.13,0.122 L 0.448,0.914 C 0.295,0.611 0.146,0.307 0,0"
                   style="fill:#231f20;fill-opacity:1;fill-rule:nonzero;stroke:none"
                   id="path170"
                   inkscape:connector-curvature="0" /></g><g
                 transform="translate(20.147,84.1982)"
                 id="g172"><path
                   d="M 0,0 5.742,0.549 C 5.845,0.885 5.952,1.22 6.064,1.552 L 0.264,0.998 C 0.172,0.667 0.084,0.334 0,0"
                   style="fill:#231f20;fill-opacity:1;fill-rule:nonzero;stroke:none"
                   id="path174"
                   inkscape:connector-curvature="0" /></g><g
                 transform="translate(18.9033,75.8433)"
                 id="g176"><path
                   d="m 0,0 5.554,1.931 c 0.039,0.358 0.083,0.715 0.132,1.07 L 0.065,1.047 C 0.04,0.699 0.017,0.35 0,0"
                   style="fill:#231f20;fill-opacity:1;fill-rule:nonzero;stroke:none"
                   id="path178"
                   inkscape:connector-curvature="0" /></g><g
                 transform="translate(19.3335,67.4063)"
                 id="g180"><path
                   d="M 0,0 5.018,3.294 C 4.99,3.664 4.964,4.033 4.947,4.405 L -0.149,1.059 C -0.104,0.705 -0.054,0.352 0,0"
                   style="fill:#231f20;fill-opacity:1;fill-rule:nonzero;stroke:none"
                   id="path182"
                   inkscape:connector-curvature="0" /></g><g
                 transform="translate(21.4727,59.1494)"
                 id="g184"><path
                   d="M 0,0 4.074,4.486 C 3.973,4.859 3.882,5.237 3.792,5.615 L -0.366,1.036 C -0.249,0.688 -0.126,0.345 0,0"
                   style="fill:#231f20;fill-opacity:1;fill-rule:nonzero;stroke:none"
                   id="path186"
                   inkscape:connector-curvature="0" /></g><g
                 transform="translate(25.3047,51.2598)"
                 id="g188"><path
                   d="M 0,0 2.881,5.481 C 2.701,5.838 2.521,6.194 2.354,6.557 L -0.581,0.974 C -0.392,0.647 -0.198,0.322 0,0"
                   style="fill:#231f20;fill-opacity:1;fill-rule:nonzero;stroke:none"
                   id="path190"
                   inkscape:connector-curvature="0" /></g><g
                 transform="translate(30.2134,44.6855)"
                 id="g192"><path
                   d="M 0,0 1.54,6.351 C 1.285,6.687 1.035,7.025 0.792,7.368 L -0.779,0.889 C -0.523,0.589 -0.263,0.293 0,0"
                   style="fill:#231f20;fill-opacity:1;fill-rule:nonzero;stroke:none"
                   id="path194"
                   inkscape:connector-curvature="0" /></g><g
                 transform="translate(77.0938,101.6792)"
                 id="g196"><path
                   d="m 0,0 c 0.134,-0.088 0.266,-0.176 0.395,-0.263 0.118,0.052 0.234,0.107 0.355,0.152 0.142,0.052 0.28,0.097 0.418,0.141 C 0.87,0.227 0.592,0.446 0.325,0.679 0.233,0.459 0.124,0.233 0,0"
                   style="fill:#231f20;fill-opacity:1;fill-rule:nonzero;stroke:none"
                   id="path198"
                   inkscape:connector-curvature="0" /></g></g></g></g><g
           id="g200"><g
             id="g202" /><g
             id="g208"><g
               clip-path="url(#clipPath204)"
               id="g210"
               style="opacity:0.5"><text
                 transform="matrix(1,0,0,-1,130.8535,43.6855)"
                 style="font-variant:normal;font-weight:normal;font-stretch:normal;font-size:18px;font-family:'Myriad Pro';-inkscape-font-specification:BodoniMT;writing-mode:lr-tb;fill:#231f20;fill-opacity:1;fill-rule:nonzero;stroke:none"
                 id="text212"><tspan
                   x="0 15.318 27.108 38.034 44.585999 55.188 64.709999 76.751999 89.622002 101.088 111.546 118.098 123.426 136.29601 146.196 156.168 161.496 171.468 184.14"
                   y="0"
                   sodipodi:role="line"
                   id="tspan214">MAX-PLANCK-INSTITUT</tspan><tspan
                   x="0 9.7919998 22.464001 33.174 38.015999 47.897999 60.768002 71.459999 87.713997 93.042 104.508 115.29 124.164 136.836 149.70599 162.36 172.25999 183.04201 188.37 201.798 210.618 224.04601 236.7 242.028"
                   y="21.6"
                   sodipodi:role="line"
                   id="tspan216">FÜR ENTWICKLUNGSBIOLOGIE</tspan></text>
</g></g></g></g></g><text
       xml:space="preserve"
       style="font-style:normal;font-variant:normal;font-weight:normal;font-stretch:normal;font-size:32px;line-height:102.99999714%;font-family:lato;-inkscape-font-specification:lato;letter-spacing:0px;word-spacing:0px;fill:#242020;fill-opacity:0.50196078;stroke:none;stroke-width:1px;stroke-linecap:butt;stroke-linejoin:miter;stroke-opacity:1"
       x="112.80002"
       y="-88.399994"
       id="text3669"
       sodipodi:linespacing="103%"
       transform="scale(1,-1)"><tspan
         sodipodi:role="line"
         id="tspan3671"
         x="112.80002"
         y="-88.399994"
         style="font-style:normal;font-variant:normal;font-weight:normal;font-stretch:normal;font-size:22px;line-height:102.99999714%;font-family:lato;-inkscape-font-specification:lato;letter-spacing:0px;fill:#242020;fill-opacity:0.50196078"
         dx="0.0099999998">BIOINFORMATICS </tspan><tspan
         sodipodi:role="line"
         x="112.80002"
         y="-65.739998"
         style="font-style:normal;font-variant:normal;font-weight:normal;font-stretch:normal;font-size:22px;line-height:102.99999714%;font-family:lato;-inkscape-font-specification:lato;letter-spacing:0px;fill:#242020;fill-opacity:0.50196078"
         id="tspan3602">TOOLKIT</tspan></text>
<text
       xml:space="preserve"
       style="font-style:normal;font-weight:normal;font-size:32px;line-height:125%;font-family:sans-serif;letter-spacing:0px;word-spacing:0px;fill:#000000;fill-opacity:1;stroke:none;stroke-width:1px;stroke-linecap:butt;stroke-linejoin:miter;stroke-opacity:1"
       x="223.60001"
       y="-78.800003"
       id="text3448"
       sodipodi:linespacing="125%"
       transform="scale(1,-1)"><tspan
         sodipodi:role="line"
         id="tspan3450"
         x="223.60001"
         y="-78.800003" /></text>
<text
       xml:space="preserve"
       style="font-style:normal;font-weight:normal;font-size:32px;line-height:125%;font-family:sans-serif;letter-spacing:0px;word-spacing:0px;fill:#000000;fill-opacity:1;stroke:none;stroke-width:1px;stroke-linecap:butt;stroke-linejoin:miter;stroke-opacity:1"
       x="58.799999"
       y="-103.6"
       id="text3604"
       sodipodi:linespacing="125%"
       transform="scale(1,-1)"><tspan
         sodipodi:role="line"
         id="tspan3606"
         x="58.799999"
         y="-103.6" /></text>
</g></svg>