<?xml version="1.0" encoding="UTF-8" standalone="no"?>
<!-- Created with Inkscape (http://www.inkscape.org/) -->

<svg
   xmlns:dc="http://purl.org/dc/elements/1.1/"
   xmlns:cc="http://creativecommons.org/ns#"
   xmlns:rdf="http://www.w3.org/1999/02/22-rdf-syntax-ns#"
   xmlns:svg="http://www.w3.org/2000/svg"
   xmlns="http://www.w3.org/2000/svg"
   version="1.1"
   width="300"
   height="100"
   viewBox="0 0 300 100"
   id="svg3784">
  <metadata
     id="metadata3925">
    <rdf:RDF>
      <cc:Work
         rdf:about="">
        <dc:format>image/svg+xml</dc:format>
        <dc:type rdf:resource="http://purl.org/dc/dcmitype/StillImage" />
        <dc:title></dc:title>
      </cc:Work>
    </rdf:RDF>
  </metadata>
  <g
     transform="translate(0,24.042595)"
     id="Layer 1">
    <g
       id="g4285">
      <g
         transform="matrix(1.1414683,0,0,1.1440505,0.54830118,-23.747221)"
         id="g3787">
        <path
           d="M 43.35,86.696 C 67.253,86.696 86.698,67.25 86.698,43.347 86.615,28.299 78.698,14.118 65.811,6.284 58.958,2.119 51.328,0.202 43.36,0 L 43.34,0 C 26.831,0.093 11.469,9.662 4.281,24.571 1.424,30.498 0.166,36.804 0,43.347 0,67.25 19.446,86.696 43.35,86.696 z m 0,-1.21 C 20.114,85.486 1.213,66.582 1.213,43.347 1.213,20.114 20.114,1.211 43.35,1.211 c 23.233,0 42.135,18.903 42.135,42.136 0,23.235 -18.902,42.139 -42.135,42.139 z"
           id="path3789"
           style="fill:#006e62" />
        <path
           d="m 55.374,69.419 c -1.052,3.649 -1.553,5.531 0.089,9.291 0.017,0.143 0.174,0.608 0,0.671 -1.816,-0.366 -2.299,-0.521 -4.005,-0.649 -1.576,-0.271 -4.195,0.169 -5.947,0.152 -1.369,0.047 -2.756,0.093 -4.19,0.269 -0.429,-0.222 -0.096,-0.701 -0.062,-1.019 0.158,-0.495 0.174,-0.749 0.223,-1.322 0.222,-0.238 0.494,-0.112 0.764,-0.224 0.923,-0.142 1.705,-0.954 1.927,-1.816 0.288,-0.906 -0.031,-1.91 -0.445,-2.772 -0.08,-0.254 -0.43,-0.446 -0.287,-0.699 1.131,-2.12 0.334,-4.271 -0.047,-6.341 -0.399,-1.468 -1.004,-3.091 -1.245,-4.639 0.049,-0.158 -0.158,-0.525 0.192,-0.556 l 0.129,0.031 c 1.209,1.467 4.675,4.57 5.974,5.578 1.298,1.008 4.651,2.963 6.833,3.488 0.207,0.174 0.175,0.319 0.097,0.557 m -16.13,3.761 c 0,-0.192 0.011,-0.27 0.156,-0.332 l 0.788,0 c 0.699,0.024 1.598,0.253 2.253,-0.423 0.376,0.013 0.41,0.461 0.509,0.806 0.09,0.483 0.068,0.79 0.068,1.224 -0.157,0.344 -0.332,0.867 -0.688,1.085 -0.565,0.267 -1.134,0.215 -1.676,0 -0.822,-0.486 -1.421,-1.262 -1.41,-2.36 m 1.341,4.021 c -0.101,0.95 -1.294,1.788 -1.878,1.957 -0.585,0.166 -2.333,0.085 -2.836,-0.089 -0.501,-0.173 -1.728,-2.569 -1.586,-3.814 0,-1.027 0.277,-2.656 0.689,-2.788 0.412,-0.129 1.502,-0.062 1.502,-0.062 0.456,-0.031 0.802,0.078 1.203,0.125 0.284,0.109 0.084,0.467 0.185,0.67 0.129,0.53 0.158,1.104 0.486,1.634 0.46,0.889 1.304,1.419 2.134,1.73 0.187,0.171 0.085,0.403 0.101,0.637 m -6.803,1.645 c -0.325,0.334 -0.508,0.178 -0.837,0.209 -0.937,-0.254 -1.491,-0.661 -1.757,-1.723 -0.343,-1.48 -0.331,-3.108 0,-4.619 l 0.152,-0.119 c 0.659,-0.075 1.656,-0.209 1.928,-0.06 0.269,0.15 -0.292,2.812 -0.292,2.812 -0.017,0.528 0.241,1.879 0.481,2.581 0.051,0.104 0.59,0.645 0.325,0.919 m 11.092,-31.587 -0.033,0.909 c -0.082,0.827 -0.465,1.783 -1.244,2.245 -0.466,-0.11 -0.299,-0.67 -0.414,-1.051 0.298,-0.827 0.879,-1.513 1.36,-2.246 0.065,-0.048 0.132,-0.079 0.198,-0.048 z m 6.761,-7.331 c -0.484,0.222 -0.981,0.271 -1.515,0.024 -0.136,-0.185 -0.577,-0.334 -0.403,-0.606 0.388,-0.628 1.044,-1.147 1.447,-1.763 l 0.187,-0.1 c 0.817,-0.986 2.104,-1.813 3.324,-2.554 l 0.738,-0.32 c 0.16,-0.161 0.535,-0.495 0.683,-0.15 0.026,1.285 -0.517,2.658 -1.741,3.567 -0.744,0.55 -1.062,0.443 -1.725,0.483 l -0.341,0.617 c -0.081,0.307 -0.348,0.617 -0.654,0.802 m -2.65,12.12 c -0.222,0.129 -2.149,-0.605 -1.924,-0.4 -0.457,-0.495 0.289,-0.661 -1.41,-1.299 l -0.412,0.043 c -0.053,0.049 -0.202,0.124 -0.355,-0.087 -0.016,-0.256 0.32,-0.218 0.426,-0.537 0.609,-1.369 0.274,-2.429 0.215,-3.847 l 0.449,-1.162 c 0.853,-1.029 0.852,-1.176 1.43,-1.734 0.578,-0.813 0.699,-0.876 1.474,-1.544 0.127,-0.109 0.361,-0.195 0.512,-0.066 0.366,0.284 0.385,0.471 0.492,0.837 0.182,1.355 -0.636,2.284 -1.625,3.017 -0.702,0.605 -1.369,1.545 -1.219,2.468 l 0.061,0.064 c 0.32,-0.27 0.724,-0.428 0.859,-0.763 0.534,-1.193 1.973,-1.736 2.779,-2.771 0.35,-0.621 0.135,-1.699 0,-2.416 -0.004,0.02 1.055,-0.5 0.768,-0.314 0.503,0.207 0.441,0.568 0.684,1.028 0.472,1.197 0.431,2.276 -0.299,3.311 l -2.008,2.505 c -0.031,1.276 0.321,2.919 -0.897,3.667 m 8.505,-19.063 0.138,-0.176 c 0.623,-0.296 1.205,-0.525 1.897,-0.725 l 0.83,-0.216 c 0.22,-0.201 0.609,-0.363 0.831,-0.08 0.013,1.075 -0.791,2.366 -1.98,2.862 -0.373,0.163 -0.872,0.217 -1.316,0.326 -0.111,-0.096 -0.472,0.107 -0.58,-0.163 0.069,-0.539 0.276,-1.344 0.18,-1.828 m 8.006,-2.01 c -0.042,0.773 -1.073,1.411 -1.934,1.65 -0.368,0.057 -0.707,0.036 -1.031,0.036 -0.085,-0.061 -0.183,-0.133 -0.17,-0.215 0.056,-0.367 0.114,-0.581 0.14,-0.912 l 0.214,-0.157 c 0.761,-0.153 1.692,-0.317 2.456,-0.521 0.114,0.025 0.254,0.014 0.325,0.119 M 40.923,46.422 c 2.231,-3.999 4.94,-7.472 7.84,-11.041 l 4.062,-4.618 c 2.899,-3.092 6.102,-6.262 9.655,-8.714 0.444,-0.256 0.641,-0.78 1.102,-0.412 l 0.417,0.386 c 0.282,0.317 0.037,1.221 -0.251,1.475 -0.229,0.187 -0.451,0.372 -0.672,0.554 0.693,0.687 1.692,1.991 2.513,2.835 0.362,0.371 0.25,0.757 0.896,1.058 0.323,0.151 0.414,0.502 0.222,0.805 -0.572,0.733 -1.527,0.622 -2.278,0.813 -2.786,0.621 -5.041,1.418 -8.124,2.914 -2.469,1.308 -4.444,2.757 -6.23,5.003 -0.683,0.844 -1.449,1.483 -2.021,2.501 -1.625,2.088 -2.917,4.047 -4.208,6.198 -0.461,0.678 -0.612,1.013 -1.258,1.626 -0.314,0.298 -0.594,-0.325 -0.79,-0.541 -0.023,-0.024 -0.036,-0.052 -0.052,-0.076 -0.067,0.008 -0.135,-0.005 -0.202,-0.048 -0.174,-0.223 -0.717,-0.319 -0.621,-0.718 m 25.851,-14.92 c -0.089,0.093 -0.2,0.21 -0.35,0.17 -0.338,-0.236 -0.21,-0.537 -0.189,-0.822 0.07,-0.069 0.08,-0.109 0.189,-0.109 0.162,-0.027 0.251,0.091 0.31,0.175 0.1,0.186 0.111,0.395 0.04,0.586 M 29.336,77.328 c -0.652,0.015 -1.111,-0.341 -1.414,-1.111 -0.304,-0.98 -0.407,-1.846 -0.196,-2.854 0.067,-0.128 0.212,-0.21 0.305,-0.168 l 0.911,-0.309 c 0.306,-0.124 0.555,-0.167 0.846,-0.098 l 0.185,0.183 c -0.014,0.531 -0.145,0.923 -0.158,1.415 -0.054,1.234 -0.158,1.602 0.197,2.777 -0.13,0.31 -0.393,0.16 -0.676,0.165 m -2.719,-3.443 c -0.142,0.257 -0.122,0.428 -0.187,0.736 -0.077,0.14 -0.476,-0.05 -0.602,-0.127 -0.495,-0.268 -0.462,-0.133 -0.604,-0.59 -0.08,-0.308 -0.071,-0.669 0.438,-0.936 0.319,-0.18 0.955,-0.396 1.163,0 0.064,0.267 -0.254,0.613 -0.208,0.917 M 72.162,47.617 c -1.146,-2.644 -2.435,-4.922 -3.378,-7.583 -0.667,-0.955 -0.285,-1.975 -0.364,-2.995 -0.431,-1.593 -1.101,-2.821 -1.737,-4.365 -0.177,-0.445 0.319,-0.575 0.494,-0.891 0.287,-0.782 0.08,-1.659 -0.272,-2.407 -0.141,-0.429 0.368,-0.732 0.272,-1.178 -0.018,-0.685 -0.621,-1.149 -1.1,-1.514 -0.717,-1.035 -1.05,-1.578 -1.944,-2.518 l 0,-0.175 c 0.446,-0.397 0.813,-1.083 0.797,-1.673 -0.176,-0.667 -0.317,-1.289 -0.957,-1.752 -1.018,-0.574 -2.052,0.318 -2.865,0.781 -0.225,0.158 -0.337,0.319 -0.654,0.288 -0.207,-0.074 -0.421,-0.15 -0.637,-0.228 -0.208,0.237 -0.467,0.488 -0.784,0.739 l 0.99,0.402 c 0.036,0.026 0.049,0.046 0.049,0.08 0,0.018 -0.005,0.049 -0.01,0.075 -0.069,0.06 -2.292,2.008 -2.292,2.008 -0.007,0.005 -4.005,3.957 -4.005,3.957 0,0.002 -1.148,1.165 -1.148,1.165 -0.005,0.007 -3.559,4.101 -3.559,4.101 -1.859,2.155 -4.604,5.693 -6.256,8.282 -0.86,1.185 -1.717,2.5 -2.516,3.745 -0.087,0.138 -0.25,0.127 -0.508,0.096 -0.176,-0.02 -0.356,-0.038 -0.519,0.018 l 0.008,0 -0.036,0.009 c 0.008,-0.003 0.02,-0.005 0.028,-0.009 -0.904,0.099 -1.56,0.401 -2.263,1.036 -0.914,1.076 -1.372,2.379 -1.372,3.784 0,0.965 0.22,1.984 0.664,3.007 -0.188,0.546 -0.618,1.03 -1.003,1.457 l -0.213,0.241 -0.275,0.269 c -0.177,0.169 -0.38,0.36 -0.527,0.547 l -0.014,0.019 -0.009,0.022 c -0.017,0.06 -0.026,0.173 0.15,0.258 l 0.042,0.022 0.047,-0.011 c 0.842,-0.2 1.371,-0.833 1.886,-1.445 0,0 0.322,-0.372 0.369,-0.427 0.076,-0.014 0.138,0.029 0.25,0.123 0.058,0.048 0.125,0.095 0.2,0.131 l 0,0.042 c 0,0 -0.011,0.272 -0.013,0.333 -1.993,1.968 -3.616,3.08 -5.738,4.327 l -0.354,0.207 0.409,0.042 c 0.829,0.083 1.615,-0.382 2.374,-0.833 l 0.913,-0.503 c 0.844,-0.432 1.625,-1.091 2.384,-1.728 0,0 0.686,-0.57 0.76,-0.629 0.071,0.01 0.151,0.102 0.214,0.175 0,0 0.044,0.049 0.073,0.08 0.013,0.024 0.637,1.258 0.675,1.332 -0.143,0.585 -0.206,1.171 -0.206,1.756 0,1.276 0.277,2.546 0.549,3.788 0.266,1.224 0.542,2.489 0.542,3.731 0,0.083 -0.001,0.162 -0.004,0.245 0,0.383 -0.421,0.893 -0.77,1.053 -0.798,0.136 -1.759,0.146 -2.779,0.154 -1.249,0.011 -2.542,0.023 -3.536,0.292 -0.32,0.038 -0.689,0.143 -1.048,0.242 -0.352,0.099 -0.715,0.201 -1.053,0.248 l -0.034,0.004 -0.037,0.029 -0.123,0.085 c -0.114,0.071 -0.253,0.157 -0.288,0.325 -10e-4,0.013 -0.003,0.028 -0.003,0.044 0,0.096 0.044,0.2 0.115,0.274 0.069,0.072 0.156,0.104 0.245,0.096 0.301,0 0.637,-0.122 0.964,-0.241 0.227,-0.082 0.465,-0.169 0.684,-0.206 2.075,-0.355 4.35,-0.284 5.891,-0.159 0.761,-0.013 2.01,-0.038 2.46,-1.118 0.163,-0.438 0.218,-0.846 0.218,-1.238 0,-0.432 -0.066,-0.848 -0.135,-1.275 l -0.136,-1.051 c -0.091,-0.641 -0.227,-1.28 -0.359,-1.9 -0.233,-1.099 -0.474,-2.23 -0.474,-3.375 0,-0.232 0.013,-0.465 0.033,-0.699 0.023,-0.029 0.047,-0.064 0.076,-0.069 0.068,-0.009 0.185,0.084 0.279,0.159 0.106,0.084 0.215,0.164 0.335,0.195 0.138,0.105 0.295,0.134 0.437,0.152 0.198,0.026 0.306,0.051 0.368,0.204 0.089,1.006 0.436,2.046 0.772,3.052 0.232,0.693 0.472,1.411 0.626,2.11 0.274,1.224 0.55,2.466 0.55,3.69 0,0.729 -0.098,1.453 -0.354,2.163 -0.532,0.969 -1.697,0.973 -2.821,0.977 l -0.337,0 -2.756,-0.167 c -2.365,-0.172 -4.809,-0.347 -7.316,0.058 0.018,-0.002 -0.561,0.061 -0.561,0.061 -0.31,0.046 -0.601,0.084 -0.915,0.011 -0.116,-0.094 -0.21,-0.257 -0.21,-0.426 0,-0.054 0.01,-0.109 0.032,-0.163 0.448,-0.988 0.672,-1.881 0.672,-2.671 0,-0.641 -0.147,-1.214 -0.441,-1.717 -0.648,-1.243 -1.36,-2.104 -2.24,-2.706 -1.076,-1.076 -1.996,-2.031 -2.814,-2.96 -0.479,-0.061 -0.772,-0.155 -0.804,-0.166 l -0.106,-0.037 -0.479,0.59 c 0.621,0.59 1.195,1.18 1.897,1.817 1.066,0.574 1.928,1.61 2.691,2.311 0.925,1.082 1.147,2.229 0.956,3.504 -0.128,1.513 -1.512,2.167 -2.453,3.171 -0.381,0.717 -0.622,1.576 -0.097,2.247 0.337,0.89 1.768,0.73 1.944,1.464 0.394,1.619 3.202,2.554 3.75,2.593 0.545,0.037 1.11,0.64 1.11,0.64 1.116,0.813 2.581,0.618 3.351,0.499 0.769,-0.116 2.145,0.506 3.006,0.378 1.289,-0.51 2.343,-0.271 3.681,-0.382 4.205,0.065 8.983,-0.032 13.285,0.51 0.797,-0.097 1.751,0.525 2.503,0.145 0.191,-0.321 0.046,-0.59 0,-0.863 -2.056,-3.232 -2.364,-6.861 -1.199,-10.383 l 0.778,0.044 c 2.788,0.304 5.326,-0.057 8.16,-1.699 1.419,-0.781 2.164,-2.607 2.1,-3.929 -0.048,-0.86 -0.345,-1.875 -0.201,-2.784 0.049,-0.405 0.318,-1.021 0.667,-1.215 0.15,-0.083 0.671,-0.437 0.835,-0.89 0.27,-0.738 -0.308,-1.086 -0.475,-1.186 0.45,-0.184 0.887,-1.104 0.473,-1.821 -0.267,-0.283 -0.577,-1.403 -0.61,-1.77 -0.095,-0.525 -0.111,-1.066 0.383,-1.403 1.116,-0.587 2.167,-0.732 3.329,-1.242 0.797,-0.334 1.211,-1.162 1.18,-1.911 z m -0.332,2.782 c -1.18,1.098 -2.851,1.115 -4.205,2.006 -0.622,0.62 -0.464,1.326 -0.211,2.108 0.5,0.99 0.312,0.888 -0.388,1.122 -1.634,0.544 -1.615,2.332 -3.581,2.032 -0.112,0.033 -0.572,-0.196 -0.299,0.132 0.211,0.252 0.299,0.1 0.715,0.151 0.7,0.033 0.961,-0.256 1.452,-0.589 0.702,-0.59 0.618,-0.812 1.481,-1.227 0.206,-0.048 0.714,-0.2 0.998,-0.1 0.192,0.177 0.197,0.181 0.228,0.339 -0.111,0.478 -0.81,0.877 -1.077,1.044 0.367,0.268 1.055,0.723 0.943,1.105 -0.156,0.25 -0.15,0.292 -0.428,0.427 -0.387,0.189 -1.165,0.16 -1.898,-0.382 -0.112,0.033 -0.233,-0.218 -0.547,0.081 0.713,0.734 1.714,0.568 1.863,0.717 0.15,0.15 -0.533,1.037 -0.564,1.229 -0.48,1.273 0.108,2.446 -0.148,3.769 -0.158,1.035 -0.468,1.527 -1.374,2.18 -1.662,1.151 -2.827,1.484 -4.693,1.784 -4.891,0.334 -7.977,-1.345 -11.5,-3.975 -3.522,-2.631 -4.869,-4.031 -5.969,-5.511 -0.015,-0.605 0.43,-1.066 0.049,-1.721 -0.318,0.112 -0.287,0.526 -0.479,0.766 -0.271,0.383 -0.923,0.668 -1.387,0.621 -1.449,-0.494 -1.529,-2.198 -2.436,-3.17 -1.943,-1.913 -2.487,-4.669 -1.449,-6.978 0.365,-0.718 1.018,-1.402 1.752,-1.657 0.906,-0.144 1.976,-0.144 2.566,0.733 0.698,0.668 1.131,1.753 1.304,2.708 0.288,0.463 -0.063,0.988 0.414,1.371 0.828,0.078 1.545,0.285 2.342,-0.223 0.59,0.078 0.67,0.733 1.116,1.018 l 0.797,0.479 c 0.844,0.349 1.929,0.349 2.645,-0.272 1.338,-1.37 1.046,-2.778 1.507,-4.291 1.276,-1.13 2.124,-2.749 2.109,-4.328 -0.081,-0.97 -0.43,-1.975 -1.004,-2.945 0.095,-0.575 0.414,-1.004 0.605,-1.515 0.161,-0.095 0.368,-0.095 0.542,-0.127 1.418,-0.302 2.708,-1.593 3.265,-2.947 l 0.128,-0.127 c 1.625,-0.111 3.648,-0.686 4.588,-2.391 0.192,-0.733 1.02,-0.192 1.529,-0.366 0.86,-0.049 1.722,-0.525 2.374,-1.084 0.191,-0.064 0.334,0.145 0.448,0.238 0.38,1.277 1.083,2.503 1.48,3.795 0.494,0.971 0.671,1.894 0.494,2.882 0.208,1.512 1.068,2.93 1.673,4.46 0.605,1.61 1.545,3.235 2.23,4.892 0.128,0.668 0.414,1.195 0,1.737"
           id="path3791"
           style="fill:#006e62" />
        <path
           d="m 64.581,37.701 c 0.223,0.287 0.367,0.541 0.191,0.813 -0.414,0.031 -0.479,-0.495 -0.828,-0.671 -0.573,-0.285 -1.084,0.018 -1.656,0.161 -1.45,0.621 -2.661,1.863 -4.063,2.516 -0.174,0 -0.335,-0.016 -0.446,-0.143 0.238,-0.238 0.62,-0.287 0.924,-0.479 1.451,-0.955 2.852,-2.451 4.668,-2.722 0.477,-0.031 0.908,0.142 1.21,0.525"
           id="path3793"
           style="fill:#006e62" />
        <path
           d="m 63.19,42.984 c -0.225,0.332 -0.582,0.043 -0.895,0.083 -0.717,-0.083 -1.929,0.085 -2.72,-0.014 -0.119,-0.069 -0.209,-0.193 -0.135,-0.305 0.121,-0.196 0.45,-0.209 0.659,-0.363 0.866,-0.541 1.776,-1.055 2.762,-1.29 0.179,-0.028 0.329,0.124 0.36,0.248 0.118,0.459 0.044,1.196 -0.031,1.641 m 1.28,-2.83 c -0.112,-0.351 -0.096,-0.923 -0.526,-1.003 -0.096,0.222 0,0.462 -0.096,0.67 -0.126,0.158 -0.349,0.349 -0.605,0.285 -1.753,0.111 -3.059,1.658 -4.556,2.453 -0.509,0.287 -1.084,0.447 -1.624,0.59 -0.05,0.08 -0.032,0.191 0.046,0.238 1.659,0.176 3.298,0.336 4.941,0.51 l 1.829,-0.207 c 0.05,-0.238 -0.237,-0.445 -0.19,-0.717 0.209,-0.748 0.272,-1.561 0.064,-2.262 0.145,-0.38 0.686,-0.096 0.717,-0.557"
           id="path3795"
           style="fill:#006e62" />
        <path
           d="m 65.396,48.367 c 0.059,-0.084 0.124,-0.178 0.203,-0.186 0.105,0.039 0.16,0.088 0.173,0.279 -0.012,0.308 -0.09,0.631 -0.173,0.974 -0.095,0.39 -0.192,0.788 -0.192,1.178 0,0.174 0.019,0.346 0.066,0.514 0.23,0.287 0.586,0.352 1.013,0.206 0.007,-0.004 0.725,-0.416 0.725,-0.416 0.624,-0.374 1.214,-0.726 2.306,-1.004 0.028,-0.006 0.033,10e-4 0.037,0.006 0.018,0.021 0.025,0.061 0.025,0.113 0,0.094 -0.027,0.222 -0.072,0.326 -0.042,0.018 -1.052,0.469 -1.052,0.469 -0.794,0.347 -1.617,0.707 -2.388,1.149 -0.228,0.047 -0.439,-0.077 -0.642,-0.195 l -0.049,-0.03 c -0.294,-0.401 -0.388,-0.79 -0.388,-1.178 0,-0.35 0.075,-0.697 0.154,-1.056 0.073,-0.333 0.146,-0.679 0.164,-1.039 0.025,-0.031 0.09,-0.11 0.09,-0.11"
           id="path3797"
           style="fill:#006e62" />
        <path
           d="m 40.573,48.041 c 0.575,1.177 -0.031,2.293 0,3.519 0.096,0.35 0.782,0.4 0.575,0.813 -0.161,0.112 -0.384,0.143 -0.559,0.016 -0.319,-0.207 -0.43,-0.365 -0.51,-0.733 -0.08,-1.082 0.781,-2.342 0.015,-3.361 -0.222,-0.223 -0.541,-0.445 -0.859,-0.462 -0.686,0.127 -1.036,0.86 -1.274,1.402 -0.367,1.433 -0.462,2.947 0.795,4.094 0.735,0.429 1.626,0.893 1.674,1.816 0.112,0.16 0.334,0.319 0.51,0.223 0.223,-0.016 0.254,-0.652 0.573,-0.35 l 0.096,0.223 c -0.081,0.254 -0.159,0.701 -0.573,0.717 -0.207,0.047 -0.432,-0.065 -0.606,-0.191 -0.447,-0.462 -0.095,-1.163 -0.845,-1.465 -1.243,-0.384 -2.056,-1.691 -2.183,-2.917 -0.08,-1.178 -0.031,-2.469 0.989,-3.504 0.398,-0.304 0.924,-0.495 1.434,-0.335 0.287,0.047 0.621,0.255 0.748,0.495"
           id="path3799"
           style="fill:#006e62" />
        <path
           d="m 25.223,57.144 c 1.657,-0.768 3.549,-0.679 4.262,-0.61 -0.203,0.657 -0.891,2.362 -2.775,3.287 -1.89,0.925 -3.509,0.704 -4.101,0.575 0.218,-0.654 0.951,-2.479 2.614,-3.252 m -0.225,-0.487 c -2.269,1.053 -2.961,3.754 -2.99,3.868 l -0.06,0.239 0.234,0.08 c 0.089,0.029 2.195,0.72 4.765,-0.542 2.592,-1.272 3.123,-3.837 3.146,-3.946 l 0.053,-0.272 -0.275,-0.044 c -0.106,-0.019 -2.647,-0.417 -4.873,0.617"
           id="path3801"
           style="fill:#006e62" />
        <path
           d="m 27.48,52.053 c 1.65,-0.745 3.451,-0.649 4.141,-0.576 -0.212,0.641 -0.915,2.276 -2.796,3.174 -1.875,0.896 -3.483,0.727 -4.097,0.611 0.26,-0.667 1.091,-2.459 2.752,-3.209 m -0.221,-0.489 c -2.273,1.027 -3.112,3.702 -3.145,3.815 l -0.078,0.257 0.253,0.078 c 0.089,0.029 2.189,0.655 4.768,-0.579 2.602,-1.244 3.154,-3.723 3.176,-3.827 l 0.056,-0.272 -0.272,-0.049 c -0.102,-0.018 -2.523,-0.432 -4.758,0.577"
           id="path3803"
           style="fill:#006e62" />
        <path
           d="m 30.427,47.152 c 1.644,-0.724 3.353,-0.621 4.024,-0.543 -0.223,0.626 -0.942,2.187 -2.821,3.061 -1.855,0.862 -3.449,0.743 -4.09,0.644 0.307,-0.68 1.229,-2.434 2.887,-3.162 M 30.211,46.66 c -2.275,0.999 -3.261,3.649 -3.302,3.763 l -0.1,0.272 0.279,0.077 c 0.089,0.024 2.183,0.588 4.766,-0.617 2.614,-1.215 3.187,-3.607 3.211,-3.709 l 0.06,-0.27 -0.272,-0.053 c -0.095,-0.02 -2.395,-0.452 -4.642,0.537"
           id="path3805"
           style="fill:#006e62" />
        <path
           d="m 33.355,42.31 c 1.638,-0.699 3.258,-0.593 3.903,-0.513 -0.232,0.611 -0.967,2.102 -2.844,2.953 -1.834,0.83 -3.417,0.759 -4.081,0.675 0.355,-0.693 1.37,-2.409 3.022,-3.115 m -0.212,-0.494 c -2.277,0.975 -3.409,3.599 -3.455,3.708 l -0.123,0.29 0.306,0.076 c 0.086,0.022 2.175,0.523 4.766,-0.652 2.623,-1.19 3.215,-3.494 3.24,-3.591 l 0.067,-0.27 -0.272,-0.058 c -0.091,-0.02 -2.268,-0.468 -4.529,0.497"
           id="path3807"
           style="fill:#006e62" />
        <path
           d="m 37.407,37.465 c 1.629,-0.677 3.161,-0.566 3.784,-0.479 -0.242,0.592 -0.992,2.013 -2.865,2.839 -1.828,0.806 -3.393,0.773 -4.072,0.706 0.408,-0.704 1.508,-2.383 3.153,-3.066 m -0.205,-0.497 c -2.284,0.949 -3.557,3.549 -3.611,3.658 l -0.149,0.307 0.331,0.072 c 0.089,0.02 2.171,0.457 4.77,-0.688 2.634,-1.162 3.246,-3.38 3.27,-3.474 l 0.072,-0.267 -0.27,-0.065 c -0.084,-0.019 -2.144,-0.485 -4.413,0.457"
           id="path3809"
           style="fill:#006e62" />
        <path
           d="m 41.876,32.789 c 1.618,-0.652 3.064,-0.538 3.663,-0.448 -0.252,0.577 -1.018,1.931 -2.889,2.731 -1.81,0.777 -3.359,0.784 -4.056,0.734 0.456,-0.714 1.643,-2.355 3.282,-3.017 m -0.201,-0.497 c -2.287,0.922 -3.707,3.499 -3.767,3.608 l -0.174,0.322 0.361,0.07 c 0.087,0.015 2.165,0.391 4.767,-0.727 2.647,-1.135 3.279,-3.265 3.303,-3.354 l 0.077,-0.266 -0.266,-0.069 c -0.082,-0.02 -2.021,-0.503 -4.301,0.416"
           id="path3811"
           style="fill:#006e62" />
        <path
           d="m 46.647,28.372 c 1.605,-0.628 2.967,-0.512 3.545,-0.419 -0.266,0.559 -1.047,1.846 -2.912,2.623 -1.784,0.744 -3.322,0.793 -4.042,0.761 0.513,-0.725 1.783,-2.328 3.409,-2.965 m -0.196,-0.501 c -2.291,0.898 -3.854,3.449 -3.919,3.558 l -0.207,0.34 0.395,0.063 c 0.086,0.013 2.157,0.328 4.766,-0.762 2.656,-1.106 3.308,-3.148 3.336,-3.234 L 50.901,27.573 50.639,27.5 c -0.076,-0.023 -1.895,-0.526 -4.188,0.371"
           id="path3813"
           style="fill:#006e62" />
        <path
           d="m 51.612,24.293 c 1.59,-0.603 2.87,-0.485 3.422,-0.387 -0.276,0.541 -1.076,1.761 -2.932,2.513 -1.77,0.715 -3.289,0.8 -4.024,0.787 0.566,-0.733 1.914,-2.298 3.534,-2.913 M 51.42,23.792 c -2.297,0.873 -4.003,3.399 -4.075,3.507 l -0.24,0.36 0.431,0.057 c 0.086,0.01 2.15,0.26 4.766,-0.8 2.667,-1.08 3.341,-3.032 3.366,-3.117 l 0.085,-0.257 -0.259,-0.081 c -0.071,-0.023 -1.769,-0.544 -4.074,0.331"
           id="path3815"
           style="fill:#006e62" />
        <path
           d="m 56.652,20.639 c 1.575,-0.579 2.777,-0.461 3.305,-0.358 -0.29,0.521 -1.103,1.679 -2.957,2.406 -1.746,0.687 -3.243,0.805 -3.996,0.812 0.618,-0.74 2.038,-2.265 3.648,-2.86 m -0.184,-0.503 c -2.302,0.849 -4.15,3.354 -4.229,3.46 l -0.275,0.379 0.465,0.046 c 0.086,0.009 2.146,0.197 4.768,-0.834 2.677,-1.051 3.37,-2.917 3.399,-2.998 l 0.089,-0.254 -0.254,-0.089 c -0.065,-0.024 -1.646,-0.563 -3.963,0.29"
           id="path3817"
           style="fill:#006e62" />
        <path
           d="m 20.094,56.403 c 0,-0.083 0.002,-0.162 0.007,-0.244 0.12,-1.844 1.117,-3.47 1.518,-4.054 0.465,0.478 1.572,1.822 1.572,3.804 0,0.076 -0.002,0.154 -0.007,0.232 -0.091,2.113 -1.066,3.437 -1.467,3.896 -0.454,-0.486 -1.623,-1.902 -1.623,-3.634 m 1.276,-4.875 c -0.067,0.086 -1.643,2.132 -1.806,4.595 -0.162,2.507 1.888,4.422 1.977,4.501 l 0.181,0.167 0.182,-0.167 c 0.069,-0.062 1.692,-1.584 1.817,-4.461 0.127,-2.897 -1.884,-4.604 -1.969,-4.675 l -0.213,-0.179 z"
           id="path3819"
           style="fill:#006e62" />
        <path
           d="m 23.022,50.942 c 0,-0.158 0.009,-0.321 0.029,-0.483 0.033,-0.281 0.085,-0.55 0.153,-0.802 0.392,-1.456 1.205,-2.594 1.57,-3.055 0.385,0.459 1.224,1.651 1.224,3.349 0,0.2 -0.013,0.407 -0.037,0.622 -0.246,2.035 -1.258,3.297 -1.684,3.749 -0.378,-0.501 -1.255,-1.822 -1.255,-3.38 m 1.547,-4.932 c -0.054,0.06 -1.336,1.474 -1.883,3.507 -0.074,0.275 -0.132,0.573 -0.168,0.877 -0.295,2.432 1.461,4.424 1.537,4.509 l 0.173,0.193 0.201,-0.168 c 0.069,-0.06 1.727,-1.499 2.064,-4.291 0.338,-2.823 -1.465,-4.567 -1.541,-4.64 L 24.754,45.81 z"
           id="path3821"
           style="fill:#006e62" />
        <path
           d="m 26.317,45.876 c 0,-0.251 0.02,-0.512 0.069,-0.773 0.051,-0.286 0.113,-0.538 0.191,-0.769 0.486,-1.434 1.348,-2.472 1.737,-2.893 0.307,0.435 0.911,1.468 0.911,2.889 0,0.32 -0.031,0.66 -0.105,1.019 -0.392,1.953 -1.441,3.152 -1.894,3.597 -0.299,-0.505 -0.909,-1.698 -0.909,-3.07 m 1.839,-5.041 c -0.057,0.054 -1.403,1.308 -2.086,3.326 -0.087,0.258 -0.158,0.536 -0.214,0.849 -0.427,2.352 1.035,4.421 1.098,4.509 l 0.162,0.227 0.221,-0.174 c 0.071,-0.055 1.765,-1.409 2.311,-4.118 0.553,-2.746 -1.044,-4.527 -1.113,-4.6 l -0.181,-0.201 z"
           id="path3823"
           style="fill:#006e62" />
        <path
           d="m 29.942,41.225 c 0,-0.369 0.037,-0.754 0.131,-1.137 0.069,-0.287 0.145,-0.53 0.232,-0.742 0.579,-1.407 1.485,-2.346 1.898,-2.727 0.23,0.392 0.64,1.251 0.64,2.413 0,0.437 -0.058,0.918 -0.205,1.428 -0.537,1.867 -1.616,3.007 -2.102,3.448 -0.213,-0.485 -0.594,-1.509 -0.594,-2.683 M 32.099,36 c -0.059,0.046 -1.467,1.14 -2.291,3.143 -0.098,0.237 -0.18,0.504 -0.258,0.818 -0.553,2.273 0.608,4.415 0.656,4.506 l 0.148,0.265 0.245,-0.178 c 0.073,-0.052 1.801,-1.32 2.556,-3.945 0.765,-2.665 -0.622,-4.485 -0.682,-4.56 l -0.162,-0.21 z"
           id="path3825"
           style="fill:#006e62" />
        <path
           d="m 33.849,37.04 c 0,-0.524 0.062,-1.085 0.234,-1.636 0.09,-0.286 0.175,-0.513 0.271,-0.711 0.68,-1.387 1.63,-2.233 2.064,-2.572 0.165,0.341 0.417,1.011 0.417,1.917 0,0.548 -0.091,1.178 -0.354,1.866 -0.672,1.779 -1.786,2.863 -2.307,3.297 -0.129,-0.434 -0.325,-1.233 -0.325,-2.161 m 2.52,-5.542 c -0.062,0.038 -1.525,0.971 -2.495,2.959 -0.109,0.225 -0.207,0.474 -0.303,0.786 -0.682,2.195 0.18,4.409 0.218,4.502 l 0.122,0.305 0.277,-0.18 c 0.073,-0.052 1.834,-1.236 2.796,-3.774 0.98,-2.586 -0.196,-4.44 -0.247,-4.518 l -0.145,-0.22 z"
           id="path3827"
           style="fill:#006e62" />
        <path
           d="m 37.997,33.382 c 0,-0.711 0.091,-1.546 0.394,-2.338 0.107,-0.275 0.205,-0.49 0.314,-0.679 0.775,-1.363 1.766,-2.115 2.224,-2.411 0.101,0.28 0.239,0.765 0.239,1.433 0,0.637 -0.127,1.421 -0.542,2.289 -0.81,1.703 -1.958,2.721 -2.508,3.144 -0.056,-0.329 -0.121,-0.838 -0.121,-1.438 m 2.943,-6.058 c -0.065,0.03 -1.58,0.803 -2.703,2.776 -0.119,0.212 -0.231,0.451 -0.347,0.752 -0.81,2.115 -0.24,4.398 -0.216,4.493 l 0.089,0.35 0.31,-0.187 c 0.075,-0.044 1.869,-1.147 3.037,-3.6 1.191,-2.503 0.229,-4.391 0.186,-4.469 l -0.122,-0.234 z"
           id="path3829"
           style="fill:#006e62" />
        <path
           d="m 42.334,30.343 c 0,-0.84 0.103,-2.162 0.644,-3.335 0.119,-0.259 0.236,-0.471 0.354,-0.651 0.876,-1.338 1.907,-2.001 2.384,-2.255 0.051,0.214 0.105,0.531 0.105,0.953 0,0.705 -0.158,1.66 -0.771,2.716 -0.942,1.626 -2.122,2.58 -2.706,2.989 -0.005,-0.122 -0.01,-0.258 -0.01,-0.417 m 3.459,-6.871 c -0.068,0.026 -1.63,0.641 -2.911,2.589 -0.133,0.205 -0.261,0.441 -0.392,0.721 -0.937,2.035 -0.661,4.386 -0.648,4.484 l 0.047,0.392 0.347,-0.189 c 0.078,-0.042 1.903,-1.06 3.28,-3.429 1.4,-2.417 0.652,-4.337 0.621,-4.418 l -0.1,-0.244 z"
           id="path3831"
           style="fill:#006e62" />
        <path
           d="m 47.822,23.287 c 0.129,-0.239 0.259,-0.441 0.395,-0.624 0.979,-1.312 2.052,-1.888 2.547,-2.099 0.015,0.124 0.028,0.276 0.028,0.47 0,0.719 -0.175,1.872 -1.057,3.148 -1.071,1.547 -2.285,2.444 -2.903,2.839 0.058,-0.787 0.257,-2.398 0.99,-3.734 m 3.079,-3.349 c -0.066,0.02 -1.676,0.479 -3.114,2.405 -0.152,0.2 -0.294,0.427 -0.436,0.685 -1.07,1.956 -1.08,4.376 -1.08,4.478 l 0.002,0.429 0.386,-0.189 c 0.079,-0.04 1.939,-0.975 3.517,-3.259 1.612,-2.331 1.08,-4.282 1.056,-4.362 l -0.074,-0.256 z"
           id="path3833"
           style="fill:#006e62" />
        <path
           d="m 53.313,19.281 c 1.086,-1.284 2.2,-1.776 2.712,-1.948 0.003,0.013 0.003,0.02 0.003,0.036 0,0.618 -0.162,2.015 -1.395,3.537 -1.193,1.475 -2.447,2.314 -3.097,2.691 0.173,-0.956 0.661,-2.999 1.777,-4.316 m 2.912,-2.56 c -0.069,0.011 -1.718,0.318 -3.321,2.213 -1.595,1.882 -1.969,4.992 -1.985,5.123 l -0.053,0.466 0.427,-0.19 c 0.081,-0.036 1.975,-0.889 3.76,-3.09 1.815,-2.245 1.497,-4.222 1.484,-4.303 L 56.49,16.674 z"
           id="path3835"
           style="fill:#006e62" />
        <path
           d="m 6.461,43.347 c 0,-20.339 16.547,-36.888 36.889,-36.888 6.018,0 11.957,1.492 17.239,4.289 -0.772,0.881 -3.827,4.366 -4.297,4.899 -4.061,-1.9 -8.412,-2.874 -12.942,-2.874 -16.859,0 -30.577,13.715 -30.577,30.574 0,7.522 2.552,14.383 7.359,19.892 -0.276,0.638 -0.769,2.039 -0.769,3.893 0,1.535 0.357,3.375 1.437,5.333 C 11.873,65.354 6.461,54.543 6.461,43.347 m -1.211,0 c 0,12.983 7.027,25.473 18.339,32.6 l 0.468,0.294 0.337,-0.439 c 0.095,-0.124 0.133,-0.242 0.133,-0.351 0,-0.278 -0.238,-0.497 -0.372,-0.622 l -0.654,-0.627 c -2.332,-2.648 -2.957,-5.159 -2.957,-7.09 0,-2.134 0.763,-3.559 0.827,-3.669 l 0.208,-0.376 -0.288,-0.323 c -4.779,-5.332 -7.304,-12.039 -7.304,-19.397 0,-16.191 13.172,-29.362 29.363,-29.362 4.501,0 8.821,0.991 12.837,2.945 l 0.416,0.203 5.903,-6.733 -0.655,-0.366 C 56.225,6.902 49.826,5.248 43.35,5.248 22.341,5.248 5.25,22.341 5.25,43.347"
           id="path3837"
           style="fill:#006e62" />
        <path
           d="m 56.714,15.841 c -4.182,-2.037 -8.678,-3.068 -13.365,-3.068 -16.859,0 -30.576,13.715 -30.576,30.574 0,7.662 2.634,14.649 7.617,20.205 l 0.523,0.585 2.325,-3.514 -0.124,-0.144 c -0.208,-0.025 -0.38,-0.055 -0.505,-0.083 0.033,-0.095 0.078,-0.22 0.133,-0.361 -0.182,-0.218 -0.366,-0.436 -0.54,-0.657 -0.187,0.298 -0.363,0.52 -0.485,0.66 -0.454,-0.486 -1.623,-1.903 -1.623,-3.634 0,-0.057 0.002,-0.111 0.005,-0.167 -2.176,-3.828 -3.278,-8.144 -3.278,-12.89 0,-14.628 11.9,-26.528 26.528,-26.528 3.592,0 7.054,0.699 10.311,2.08 0.35,-0.362 0.694,-0.646 1.015,-0.868 -3.567,-1.6 -7.369,-2.424 -11.326,-2.424 -15.295,0 -27.741,12.444 -27.741,27.74 0,6.633 2.07,12.464 6.124,17.354 -0.235,0.358 -0.565,0.857 -0.943,1.427 -4.44,-5.231 -6.802,-11.696 -6.802,-18.781 0,-16.19 13.171,-29.362 29.362,-29.362 4.302,0 8.431,0.914 12.295,2.7 -0.161,0.35 -0.319,0.693 -0.478,1.037 0.354,-0.2 0.654,-0.32 0.858,-0.39 0.004,0.015 0.004,0.021 0.004,0.036 0,0.452 -0.089,1.317 -0.614,2.343 l 0.139,0.067 1.696,-3.678 z"
           id="path3839"
           style="fill:#006e62" />
        <path
           d="m 56.444,9.848 -2.924,3.696 c 0.268,0.093 0.535,0.188 0.8,0.288 l 2.902,-3.671 C 56.964,10.054 56.703,9.95 56.444,9.848"
           id="path3841"
           style="fill:#006e62" />
        <path
           d="m 50.722,8.145 -1.704,4.221 c 0.268,0.049 0.536,0.101 0.804,0.158 L 51.519,8.32 C 51.254,8.258 50.987,8.201 50.722,8.145"
           id="path3843"
           style="fill:#006e62" />
        <path
           d="m 43.917,7.385 -0.419,4.473 c 0.269,10e-4 0.539,0.005 0.808,0.014 L 44.724,7.406 C 44.454,7.396 44.186,7.389 43.917,7.385"
           id="path3845"
           style="fill:#006e62" />
        <path
           d="m 37.286,7.89 0.85,4.4 c 0.265,-0.044 0.53,-0.085 0.797,-0.123 L 38.082,7.764 C 37.816,7.803 37.55,7.845 37.286,7.89"
           id="path3847"
           style="fill:#006e62" />
        <path
           d="m 30.852,9.617 2.011,4.036 c 0.256,-0.09 0.513,-0.177 0.771,-0.261 L 31.616,9.343 c -0.256,0.089 -0.511,0.18 -0.764,0.274"
           id="path3849"
           style="fill:#006e62" />
        <path
           d="m 24.749,12.569 3.003,3.429 c 0.238,-0.136 0.478,-0.269 0.72,-0.399 l -3.019,-3.447 c -0.237,0.136 -0.471,0.275 -0.704,0.417"
           id="path3851"
           style="fill:#006e62" />
        <path
           d="m 19.203,16.707 3.791,2.633 c 0.213,-0.18 0.428,-0.358 0.645,-0.534 l -3.815,-2.649 c -0.209,0.18 -0.416,0.364 -0.621,0.55"
           id="path3853"
           style="fill:#006e62" />
        <path
           d="m 14.486,21.903 4.354,1.694 c 0.179,-0.22 0.359,-0.437 0.542,-0.653 l -4.388,-1.707 c -0.172,0.22 -0.341,0.441 -0.508,0.666"
           id="path3855"
           style="fill:#006e62" />
        <path
           d="m 10.843,27.952 4.686,0.654 c 0.135,-0.254 0.273,-0.506 0.415,-0.755 l -4.729,-0.659 c -0.127,0.252 -0.251,0.505 -0.372,0.76"
           id="path3857"
           style="fill:#006e62" />
        <path
           d="m 8.457,34.59 4.778,-0.457 c 0.085,-0.28 0.174,-0.558 0.268,-0.835 L 8.676,33.759 C 8.6,34.035 8.527,34.312 8.457,34.59"
           id="path3859"
           style="fill:#006e62" />
        <path
           d="m 7.422,41.542 4.621,-1.607 c 0.033,-0.297 0.069,-0.595 0.11,-0.89 l -4.677,1.626 c -0.021,0.29 -0.04,0.58 -0.054,0.871"
           id="path3861"
           style="fill:#006e62" />
        <path
           d="m 7.78,48.563 4.175,-2.741 C 11.932,45.514 11.91,45.207 11.896,44.897 l -4.24,2.785 c 0.037,0.294 0.079,0.588 0.124,0.881"
           id="path3863"
           style="fill:#006e62" />
        <path
           d="m 9.56,55.434 3.39,-3.733 c -0.084,-0.31 -0.16,-0.625 -0.235,-0.94 l -3.46,3.811 c 0.098,0.289 0.2,0.575 0.305,0.862"
           id="path3865"
           style="fill:#006e62" />
        <path
           d="m 12.749,61.999 2.397,-4.561 c -0.15,-0.297 -0.3,-0.593 -0.439,-0.895 l -2.442,4.646 c 0.157,0.272 0.319,0.542 0.484,0.81"
           id="path3867"
           style="fill:#006e62" />
        <path
           d="m 16.833,67.47 1.282,-5.285 c -0.212,-0.28 -0.421,-0.561 -0.623,-0.846 l -1.307,5.391 c 0.213,0.25 0.429,0.496 0.648,0.74"
           id="path3869"
           style="fill:#006e62" />
        <path
           d="m 55.844,20.043 c 0.111,0.074 0.221,0.147 0.329,0.219 0.098,-0.043 0.194,-0.089 0.295,-0.126 0.118,-0.043 0.233,-0.081 0.348,-0.118 -0.248,-0.163 -0.479,-0.346 -0.702,-0.54 -0.076,0.183 -0.167,0.372 -0.27,0.565"
           id="path3871"
           style="fill:#006e62" />
      </g>
    </g>
  </g>
  <defs
     id="defs3921" />
  <text x="112" y="25" style="fill:#006e62; font-family: 'Noto Sans', 'Lucida Grande', 'Lucida Sans Unicode', Geneva, Verdana, sans-serif; font-size: 1.3em;">
    MPI<tspan x="112" y="58.5">Bioinformatics</tspan><tspan x="112" y="92">Toolkit</tspan>
  </text>
</svg>
