<?xml version="1.0" encoding="UTF-8" standalone="no"?>
<!-- Generator: Adobe Illustrator 17.0.0, SVG Export Plug-In . SVG Version: 6.00 Build 0)  -->

<svg
   xmlns:dc="http://purl.org/dc/elements/1.1/"
   xmlns:cc="http://creativecommons.org/ns#"
   xmlns:rdf="http://www.w3.org/1999/02/22-rdf-syntax-ns#"
   xmlns:svg="http://www.w3.org/2000/svg"
   xmlns="http://www.w3.org/2000/svg"
   xmlns:sodipodi="http://sodipodi.sourceforge.net/DTD/sodipodi-0.dtd"
   xmlns:inkscape="http://www.inkscape.org/namespaces/inkscape"
   version="1.1"
   id="Layer_1"
   x="0px"
   y="0px"
   width="100px"
   height="100px"
   viewBox="0 0 100 100"
   enable-background="new 0 0 100 100"
   xml:space="preserve"
   inkscape:version="0.48.4 r9939"
   sodipodi:docname="fi-arrow-up.svg"><metadata
     id="metadata3043"><rdf:RDF><cc:Work
         rdf:about=""><dc:format>image/svg+xml</dc:format><dc:type
           rdf:resource="http://purl.org/dc/dcmitype/StillImage" /></cc:Work></rdf:RDF></metadata><defs
     id="defs3041" /><sodipodi:namedview
     pagecolor="#ffffff"
     bordercolor="#666666"
     borderopacity="1"
     objecttolerance="10"
     gridtolerance="10"
     guidetolerance="10"
     inkscape:pageopacity="0"
     inkscape:pageshadow="2"
     inkscape:window-width="1680"
     inkscape:window-height="1001"
     id="namedview3039"
     showgrid="false"
     inkscape:zoom="2.4"
     inkscape:cx="50.833333"
     inkscape:cy="66.666667"
     inkscape:window-x="0"
     inkscape:window-y="25"
     inkscape:window-maximized="1"
     inkscape:current-layer="g3035" /><g
     id="g3035"><path
       d="M78.016,49.132L51.961,12.714c-0.471-0.66-1.233-1.049-2.043-1.051c-0.006,0-0.006,0-0.006,0   c-0.815,0.002-1.575,0.396-2.048,1.059L21.977,49.14c-0.546,0.767-0.616,1.776-0.183,2.612c0.426,0.835,1.292,1.361,2.236,1.361   h12.183l-0.001,32.709c0,1.39,1.125,2.515,2.516,2.515l22.541-0.001c1.389,0.001,2.515-1.124,2.516-2.517l0-32.705h12.187   c0.94,0,1.803-0.53,2.237-1.367C78.641,50.911,78.566,49.9,78.016,49.132z"
       id="path3037" /><path
       style="fill:#ffffff"
       d="M 37.25,87.333333 C 36.444102,86.527433 36.416667,85.944446 36.416667,69.625 l 0,-16.875 -6.602089,0 c -6.126705,0 -6.657752,-0.06151 -7.375136,-0.854208 -0.62719,-0.693037 -0.692085,-1.066464 -0.343941,-1.979167 0.429049,-1.124809 24.498277,-35.274746 26.135359,-37.081408 1.944551,-2.145982 1.964712,-2.123819 16.410723,18.039783 9.169367,12.798518 13.434596,19.087251 13.4375,19.8125 0.0077,1.922095 -0.522441,2.0625 -7.787416,2.0625 l -6.791667,0 0,17.059708 0,17.059705 -0.926044,0.648629 c -0.78514,0.549933 -2.718803,0.648625 -12.708334,0.648625 -11.226733,0 -11.821582,-0.03929 -12.615622,-0.833334 z"
       id="path3062"
       inkscape:connector-curvature="0" /></g></svg>