<?xml version="1.0" encoding="iso-8859-1"?>
<!-- Generator: Adobe Illustrator 19.0.0, SVG Export Plug-In . SVG Version: 6.00 Build 0)  -->
<svg xmlns="http://www.w3.org/2000/svg" xmlns:xlink="http://www.w3.org/1999/xlink" version="1.1" id="Layer_1" x="0px" y="0px" viewBox="0 0 180.679 180.679" style="enable-background:new 0 0 180.679 180.679;" xml:space="preserve" width="512px" height="512px">
<g>
	<g>
		<path d="M180.638,100.565c-0.013-0.229-0.076-0.447-0.136-0.674c-0.061-0.23-0.115-0.453-0.22-0.662    c-0.03-0.061-0.028-0.129-0.063-0.189L136.56,22.598c-0.618-1.082-1.77-1.751-3.017-1.751h-86.41    c-1.247,0-2.399,0.669-3.017,1.751L0.458,99.04c-0.034,0.06-0.032,0.128-0.063,0.189c-0.105,0.209-0.158,0.432-0.22,0.662    c-0.06,0.227-0.123,0.444-0.136,0.674C0.036,100.633,0,100.693,0,100.764v55.593c0,1.92,1.556,3.475,3.475,3.475h173.729    c1.919,0,3.475-1.554,3.475-3.475v-55.593C180.678,100.693,180.642,100.633,180.638,100.565z M49.151,27.798h82.375l39.691,69.492    h-45.702c-1.524,0-2.869,0.991-3.319,2.446l-6.779,21.876H65.26l-6.78-21.876c-0.449-1.455-1.795-2.446-3.318-2.446H9.46    L49.151,27.798z M173.729,152.881H6.949v-48.644h45.653l6.78,21.876c0.449,1.455,1.795,2.446,3.318,2.446h55.278    c1.524,0,2.869-0.991,3.319-2.446l6.779-21.876h45.653V152.881z" fill="#FFFFFF"/>
	</g>
</g>
<g>
</g>
<g>
</g>
<g>
</g>
<g>
</g>
<g>
</g>
<g>
</g>
<g>
</g>
<g>
</g>
<g>
</g>
<g>
</g>
<g>
</g>
<g>
</g>
<g>
</g>
<g>
</g>
<g>
</g>
</svg>
