<?xml version="1.0" encoding="iso-8859-1"?>
<!-- Generator: Adobe Illustrator 19.0.0, SVG Export Plug-In . SVG Version: 6.00 Build 0)  -->
<svg version="1.1" id="Capa_1" xmlns="http://www.w3.org/2000/svg" xmlns:xlink="http://www.w3.org/1999/xlink" x="0px" y="0px"
	 viewBox="0 0 60 60" style="enable-background:new 0 0 60 60;" xml:space="preserve">
<g>
	<g>
		<path d="M2,7H0v52c0,0.6,0.4,1,1,1h34v-2H2V7z"/>
		<path d="M6,2h31v8c0,0.6,0.4,1,1,1h8v3h2v-4l0,0c0-0.1,0-0.2-0.1-0.3V9.6c-0.1-0.1-0.1-0.2-0.2-0.3l-9-9c-0.1-0.1-0.2-0.1-0.3-0.2
			h-0.1C38.2,0.1,38.1,0,38,0l0,0H5C4.4,0,4,0.4,4,1v54c0,0.6,0.4,1,1,1h34v-2H6V2z M44.6,9H39V3.4L44.6,9z"/>
		<rect x="23" y="27" width="2" height="2"/>
		<rect x="19" y="27" width="2" height="2"/>
		<rect x="15" y="27" width="2" height="2"/>
		<rect x="11" y="27" width="2" height="2"/>
		<rect x="27" y="27" width="2" height="2"/>
		<rect x="9" y="5" width="2" height="2"/>
		<rect x="13" y="5" width="2" height="2"/>
		<rect x="13" y="9" width="2" height="2"/>
		<rect x="9" y="9" width="2" height="2"/>
		<rect x="17" y="5" width="8" height="2"/>
		<rect x="17" y="9" width="8" height="2"/>
		<rect x="9" y="16" width="26" height="2"/>
		<rect x="9" y="21" width="34" height="2"/>
		<rect x="9" y="33" width="34" height="2"/>
		<rect x="9" y="38" width="34" height="2"/>
		<rect x="9" y="43" width="22" height="2"/>
		<rect x="33" y="43" width="2" height="2"/>
		<rect x="37" y="43" width="2" height="2"/>
		<rect x="41" y="43" width="2" height="2"/>
		<path d="M56,33c-1.9,0-3.4,1.3-3.9,3H48v-7h6c0.6,0,1-0.4,1-1V11.9c1.7-0.4,3-2,3-3.9c0-2.2-1.8-4-4-4s-4,1.8-4,4
			c0,1.9,1.3,3.4,3,3.9V27H31v2h15v19.1c-1.7,0.4-3,2-3,3.9c0,2.2,1.8,4,4,4s4-1.8,4-4c0-1.9-1.3-3.4-3-3.9V38h4.1
			c0.4,1.7,2,3,3.9,3c2.2,0,4-1.8,4-4S58.2,33,56,33z M52,8c0-1.1,0.9-2,2-2s2,0.9,2,2s-0.9,2-2,2S52,9.1,52,8z M49,52
			c0,1.1-0.9,2-2,2s-2-0.9-2-2s0.9-2,2-2S49,50.9,49,52z M56,39c-1.1,0-2-0.9-2-2s0.9-2,2-2s2,0.9,2,2S57.1,39,56,39z"/>
		<rect x="9" y="48" width="12" height="2"/>
	</g>
</g>
<g>
</g>
<g>
</g>
<g>
</g>
<g>
</g>
<g>
</g>
<g>
</g>
<g>
</g>
<g>
</g>
<g>
</g>
<g>
</g>
<g>
</g>
<g>
</g>
<g>
</g>
<g>
</g>
<g>
</g>
</svg>
