<?xml version="1.0" encoding="UTF-8" standalone="no"?>
<svg
   xmlns:dc="http://purl.org/dc/elements/1.1/"
   xmlns:cc="http://creativecommons.org/ns#"
   xmlns:rdf="http://www.w3.org/1999/02/22-rdf-syntax-ns#"
   xmlns:svg="http://www.w3.org/2000/svg"
   xmlns="http://www.w3.org/2000/svg"
   xmlns:sodipodi="http://sodipodi.sourceforge.net/DTD/sodipodi-0.dtd"
   xmlns:inkscape="http://www.inkscape.org/namespaces/inkscape"
   version="1.0"
   width="700.000000pt"
   height="700.000000pt"
   viewBox="0 0 700.000000 700.000000"
   preserveAspectRatio="xMidYMid meet"
   id="svg2"
   inkscape:version="0.91 r13725"
   sodipodi:docname="favicon-green.svg">
  <defs
     id="defs52" />
  <sodipodi:namedview
     pagecolor="#ffffff"
     bordercolor="#666666"
     borderopacity="1"
     objecttolerance="10"
     gridtolerance="10"
     guidetolerance="10"
     inkscape:pageopacity="0"
     inkscape:pageshadow="2"
     inkscape:window-width="1920"
     inkscape:window-height="1146"
     id="namedview50"
     showgrid="false"
     inkscape:zoom="0.26971429"
     inkscape:cx="433.79237"
     inkscape:cy="437.5"
     inkscape:window-x="0"
     inkscape:window-y="25"
     inkscape:window-maximized="1"
     inkscape:current-layer="svg2" />
  <metadata
     id="metadata4">
Created by potrace 1.11, written by Peter Selinger 2001-2013
<rdf:RDF>
  <cc:Work
     rdf:about="">
    <dc:format>image/svg+xml</dc:format>
    <dc:type
       rdf:resource="http://purl.org/dc/dcmitype/StillImage" />
    <dc:title></dc:title>
  </cc:Work>
</rdf:RDF>
</metadata>
  <g
     transform="translate(0.000000,700.000000) scale(0.100000,-0.100000)"
     fill="#000000"
     stroke="none"
     id="g6"
     style="fill:#006e62;fill-opacity:1">
    <path
       d="M3315 6994 c-340 -25 -630 -83 -925 -182 -994 -337 -1796 -1104 -2159 -2067 -94 -247 -150 -470 -190 -752 -68 -476 -48 -896 65 -1344 314 -1249 1295 -2229 2544 -2543 301 -76 512 -101 850 -101 427 0 743 52 1137 186 1011 344 1828 1162 2173 2175 82 241 135 475 172 759 19 147 16 595 -6 765 -185 1486 -1247 2683 -2671 3009 -161 37 -272 56 -440 76 -129 15 -455 26 -550 19z m605 -119 c324 -44 588 -114 862 -226 1068 -439 1838 -1379 2057 -2509 46 -237 55 -343 55 -640 0 -296 -9 -405 -55 -640 -265 -1381 -1366 -2466 -2749 -2709 -215 -38 -320 -46 -590 -46 -330 0 -539 24 -825 96 -1197 302 -2147 1237 -2460 2424 -85 322 -109 514 -109 875 0 297 9 403 55 640 251 1299 1232 2336 2514 2659 179 45 328 69 590 95 92 9 545 -4 655 -19z"
       id="path8"
       style="fill:#006e62;fill-opacity:1" />
    <path
       d="M3355 6574 c-688 -40 -1317 -287 -1835 -722 -181 -152 -399 -391 -543 -594 -248 -350 -442 -823 -510 -1248 -55 -335 -55 -686 -1 -1005 70 -417 244 -848 487 -1210 115 -172 223 -301 397 -476 176 -176 314 -291 489 -409 101 -67 117 -69 135 -17 8 23 3 32 -47 86 -174 189 -267 398 -267 602 0 125 52 291 119 378 l19 25 72 -60 c284 -233 320 -283 320 -444 0 -103 -26 -155 -121 -240 -82 -73 -114 -131 -106 -191 7 -57 40 -95 106 -124 48 -22 62 -34 76 -66 37 -82 141 -154 280 -194 33 -9 74 -27 90 -39 74 -56 92 -61 230 -62 72 0 163 -7 203 -14 60 -12 82 -12 130 -1 31 7 131 15 222 18 219 7 857 -13 1045 -33 289 -30 273 -30 281 0 5 21 -4 47 -39 114 -122 235 -148 466 -80 716 l16 59 111 -7 c134 -9 270 6 381 41 113 36 248 106 296 154 75 75 114 199 98 311 -12 86 -10 186 5 222 8 18 31 46 51 62 62 47 76 102 36 147 -10 12 -12 21 -5 25 37 24 44 94 15 150 -24 48 -44 138 -39 181 4 46 31 64 177 116 135 48 163 63 187 100 50 76 34 138 -115 460 -57 121 -113 247 -126 280 -12 33 -33 83 -45 110 -19 41 -24 69 -26 150 -2 111 -8 132 -94 332 l-52 123 26 31 c22 25 26 41 26 90 0 32 -7 77 -16 99 -13 33 -14 46 -5 66 24 54 14 90 -42 152 -29 31 -63 73 -77 92 -13 19 -43 58 -67 86 -24 28 -43 54 -43 58 0 4 11 22 25 41 47 60 42 152 -11 214 -48 57 -110 57 -207 -1 -93 -55 -97 -57 -127 -47 l-28 10 34 51 c38 57 39 69 3 79 -39 11 -171 10 -231 -2 -50 -10 -59 -9 -82 7 -16 12 -23 25 -19 34 3 8 13 49 22 90 10 41 23 85 30 98 7 12 111 135 232 273 120 137 219 254 219 258 0 11 -211 119 -333 171 -276 116 -563 192 -853 224 -135 15 -397 26 -499 20z m320 -104 c320 -20 653 -94 930 -207 103 -42 275 -126 275 -135 0 -17 -334 -389 -344 -384 -202 90 -414 155 -626 193 -129 23 -172 26 -395 27 -280 1 -390 -11 -620 -69 -177 -45 -300 -91 -490 -185 -493 -243 -871 -621 -1115 -1115 -126 -255 -194 -469 -236 -740 -23 -149 -26 -529 -6 -675 39 -273 111 -519 220 -743 99 -205 167 -311 344 -534 6 -7 2 -36 -11 -78 -60 -192 -41 -437 45 -607 13 -26 24 -50 24 -53 0 -15 -157 125 -271 242 -891 912 -1122 2204 -599 3348 82 179 222 405 369 595 84 110 371 397 481 481 546 421 1115 624 1810 647 30 1 127 -3 215 -8z m154 -625 c194 -28 444 -98 606 -170 66 -29 65 -35 -18 -79 l-53 -28 -97 36 c-213 80 -435 123 -687 133 -513 20 -1009 -137 -1430 -451 -123 -91 -346 -315 -437 -436 -364 -490 -515 -1084 -428 -1689 39 -273 134 -548 262 -762 27 -46 64 -111 82 -145 17 -33 52 -83 76 -111 l44 -50 -36 -53 c-29 -44 -38 -51 -47 -39 -6 8 -32 42 -57 74 -189 244 -336 554 -409 860 -47 197 -62 337 -63 570 0 226 12 338 60 540 72 308 220 622 416 884 92 123 335 366 457 457 362 270 776 430 1223 474 122 12 406 4 536 -15z m-118 -215 c143 -15 326 -53 455 -95 59 -19 110 -37 112 -40 3 -2 -12 -29 -33 -59 -20 -30 -52 -92 -71 -137 l-34 -84 0 80 c0 44 -4 86 -8 93 -6 9 -24 5 -73 -20 -91 -45 -205 -161 -248 -252 -37 -79 -68 -210 -73 -307 -3 -65 -4 -67 -41 -87 -21 -12 -37 -18 -35 -14 32 65 61 135 70 169 12 51 6 209 -9 224 -28 28 -172 -82 -244 -184 -53 -76 -86 -164 -96 -262 l-7 -60 -7 50 c-8 57 -25 124 -38 143 -7 12 -13 11 -38 -1 -81 -42 -192 -173 -232 -275 -15 -38 -34 -135 -42 -210 0 -4 -7 17 -15 47 -8 29 -21 69 -30 87 -14 30 -18 32 -37 22 -35 -18 -121 -109 -160 -169 -51 -75 -78 -158 -87 -259 -4 -47 -8 -78 -9 -70 -3 32 -61 140 -75 140 -21 0 -115 -107 -159 -182 -52 -87 -71 -157 -71 -256 l0 -84 -24 49 c-28 56 -50 83 -68 83 -19 0 -110 -126 -149 -205 -42 -87 -60 -177 -51 -257 l6 -61 -41 57 c-22 31 -46 55 -52 53 -21 -7 -106 -140 -139 -217 -30 -70 -32 -82 -33 -192 l0 -117 -37 40 c-21 23 -43 39 -50 37 -22 -8 -90 -130 -124 -223 l-32 -90 -37 80 c-178 385 -231 882 -140 1317 85 412 284 777 585 1078 248 248 534 424 861 528 279 89 575 120 860 92z m809 -57 c0 -24 -24 -110 -44 -154 -18 -44 -73 -118 -130 -177 -38 -40 -167 -142 -179 -142 -14 0 37 161 78 246 25 53 52 88 104 137 96 90 171 130 171 90z m5 -214 c-4 -5 -13 -9 -22 -9 -13 0 -13 3 -3 15 13 15 35 11 25 -6z m303 3 c9 -6 2 -21 -28 -55 -94 -107 -246 -175 -410 -184 l-95 -5 55 57 c97 100 211 164 330 185 62 11 132 11 148 2z m-747 -172 c-35 -115 -152 -267 -268 -348 l-33 -23 6 33 c39 232 105 354 247 448 l62 42 3 -42 c2 -23 -6 -73 -17 -110z m1074 39 c14 -18 24 -38 21 -46 -4 -8 -6 -23 -6 -34 0 -10 -18 -35 -39 -56 l-39 -36 90 -101 c50 -56 108 -124 130 -153 21 -29 47 -57 58 -63 28 -15 25 -54 -6 -79 -14 -11 -51 -25 -82 -32 -235 -49 -386 -96 -589 -184 -195 -84 -353 -180 -479 -292 -79 -70 -274 -292 -350 -398 -142 -199 -177 -249 -269 -395 -100 -156 -149 -220 -167 -220 -5 0 -30 18 -55 40 -25 22 -50 40 -54 40 -47 0 145 312 385 625 330 432 742 881 1051 1146 137 118 336 268 357 269 9 0 28 -14 43 -31z m-1018 -41 c-3 -8 -6 -5 -6 6 -1 11 2 17 5 13 3 -3 4 -12 1 -19z m673 6 c22 -9 40 -19 39 -23 0 -3 -30 -31 -67 -61 -134 -112 -519 -501 -691 -699 -301 -347 -459 -555 -715 -936 -140 -208 -128 -195 -179 -195 -148 0 -270 -112 -307 -281 -17 -76 -8 -219 18 -294 25 -73 21 -82 -79 -192 -39 -44 -66 -80 -61 -85 20 -20 70 8 135 74 56 57 71 67 83 57 8 -6 14 -17 14 -25 0 -32 -220 -213 -375 -309 -53 -33 -99 -63 -101 -67 -8 -13 61 -9 102 6 76 26 240 126 339 205 55 44 103 77 107 74 5 -2 22 -31 38 -63 28 -55 29 -61 19 -121 -14 -84 -5 -177 37 -384 19 -93 38 -209 41 -256 6 -84 5 -86 -24 -119 -27 -31 -34 -33 -104 -37 -333 -16 -421 -25 -509 -46 -135 -33 -165 -54 -125 -87 12 -10 28 -8 83 9 96 29 281 44 442 37 170 -9 227 2 269 50 17 18 33 50 37 70 11 61 -4 209 -41 402 -30 156 -46 332 -31 332 2 0 28 -11 59 -24 53 -24 55 -26 62 -73 4 -26 27 -110 51 -186 87 -271 115 -496 78 -623 -31 -109 -94 -123 -452 -100 -305 20 -431 20 -592 1 -177 -21 -183 -17 -142 91 20 54 26 88 26 154 0 77 -3 91 -34 155 -29 58 -65 100 -212 250 -98 99 -178 183 -178 188 0 4 22 7 48 7 138 0 292 62 384 155 61 62 119 164 121 216 l2 34 -105 3 c-164 4 -299 -34 -384 -109 l-39 -33 8 34 c10 44 10 151 1 210 l-8 45 26 -37 c14 -20 25 -47 23 -59 -3 -29 23 -37 133 -38 248 -3 461 145 524 365 8 28 -12 34 -129 34 l-90 1 71 19 c178 46 306 155 364 308 19 51 19 51 -1 57 -31 10 -210 8 -259 -4 -73 -16 -129 -39 -174 -69 l-42 -29 22 61 c17 47 26 60 41 58 10 -1 59 -3 108 -4 242 -3 458 126 531 319 23 59 16 63 -111 63 -108 0 -202 -18 -265 -50 l-38 -20 23 58 c13 31 26 80 30 107 15 114 16 116 35 55 16 -53 16 -56 -3 -88 -10 -18 -17 -35 -14 -38 3 -3 41 -8 84 -11 157 -11 352 53 460 151 53 48 116 140 128 187 8 32 -9 38 -100 40 l-60 0 85 19 c140 29 227 71 314 151 55 50 122 160 112 185 -3 8 -19 14 -38 15 -26 0 -14 7 52 28 116 37 205 86 265 146 54 54 110 148 102 169 -4 9 14 19 51 31 73 22 178 77 219 115 40 36 102 116 113 146 6 15 29 28 81 45 41 13 101 41 134 61 33 20 61 37 62 38 2 0 21 -7 43 -16z m-691 -83 c-7 -34 -18 -55 -31 -62 -11 -6 -19 -7 -17 -2 16 41 55 121 57 119 1 -2 -3 -26 -9 -55z m304 -72 c-50 -87 -189 -172 -338 -208 -77 -18 -195 -33 -195 -23 0 14 91 108 143 148 113 86 172 103 375 113 l33 1 -18 -31z m-723 -51 c0 -132 -88 -302 -217 -418 l-58 -51 -3 46 c-4 66 22 194 54 259 47 97 196 244 216 214 4 -7 8 -30 8 -50z m338 -246 c9 -6 5 -18 -16 -48 -67 -91 -168 -156 -302 -193 -84 -24 -220 -38 -220 -24 0 17 100 121 160 167 65 48 143 82 223 95 69 11 139 13 155 3z m-720 -143 c-3 -58 -12 -91 -36 -144 -55 -116 -175 -267 -201 -251 -14 9 -14 150 0 218 22 104 101 229 183 288 l41 31 8 -33 c5 -18 7 -67 5 -109z m67 -147 c2 -2 13 2 25 8 20 11 21 10 15 -9 -5 -18 -2 -21 22 -22 21 0 15 -4 -27 -18 -30 -10 -74 -27 -97 -39 l-43 -22 31 59 c16 33 35 86 42 118 l12 57 8 -64 c4 -35 10 -66 12 -68z m2005 28 c0 -15 -6 -30 -14 -33 -19 -8 -26 1 -26 33 0 32 7 41 26 33 8 -3 14 -18 14 -33z m-108 5 c-5 -34 -80 -94 -138 -111 -76 -22 -98 -17 -102 23 -5 56 8 66 115 90 114 25 129 25 125 -2z m-343 -67 c-1 -35 -21 -82 -55 -131 -39 -54 -117 -96 -198 -104 l-56 -6 6 79 c4 43 12 84 18 91 13 14 232 91 264 92 17 1 22 -4 21 -21z m-1980 -67 c15 -47 14 -157 -4 -214 -23 -76 -82 -179 -137 -241 -60 -67 -64 -65 -77 41 -12 98 3 192 41 271 34 68 146 199 158 185 4 -4 12 -23 19 -42z m711 30 c0 -24 -73 -111 -128 -153 -79 -60 -219 -108 -341 -116 l-84 -5 30 44 c45 65 142 153 201 183 29 15 78 33 110 40 64 16 212 21 212 7z m1647 -13 c6 -7 45 -101 88 -208 72 -181 78 -201 81 -278 2 -46 10 -108 19 -139 17 -58 154 -375 245 -568 62 -130 76 -211 44 -246 -24 -26 -87 -59 -181 -93 -102 -36 -150 -62 -169 -91 -20 -31 -20 -101 1 -151 22 -54 19 -63 -32 -85 -25 -11 -79 -50 -118 -88 -77 -72 -116 -89 -178 -75 -28 6 -30 5 -18 -10 17 -20 82 -21 121 -1 16 8 57 40 91 70 83 74 161 94 177 46 2 -7 -14 -29 -37 -50 l-40 -37 35 -36 c44 -43 40 -71 -10 -88 -38 -12 -73 -6 -129 23 -27 14 -41 17 -49 9 -14 -14 24 -38 87 -53 28 -6 51 -13 53 -14 1 -1 -12 -32 -29 -69 -31 -66 -31 -70 -26 -174 5 -110 -5 -198 -28 -242 -43 -83 -189 -171 -360 -216 -83 -22 -312 -25 -410 -5 -225 46 -425 152 -725 386 -114 89 -333 297 -363 345 -13 20 -14 33 -6 67 7 27 8 52 2 70 l-10 28 -18 -30 c-33 -53 -58 -75 -93 -81 -67 -13 -112 28 -180 162 -16 32 -49 80 -72 107 -126 142 -169 337 -111 503 26 72 55 111 109 145 38 24 57 29 107 29 69 0 107 -17 152 -70 54 -63 74 -113 117 -292 5 -24 11 -27 69 -33 45 -5 73 -3 98 8 42 17 57 12 98 -35 89 -102 246 -117 321 -31 44 50 66 107 87 220 16 91 20 100 70 162 131 162 151 295 72 470 -16 35 -29 69 -29 75 0 6 11 34 23 61 22 46 28 51 73 63 27 7 71 27 97 44 47 30 147 142 147 164 0 22 36 41 85 47 113 13 233 75 285 149 16 24 34 48 39 54 5 6 41 11 79 12 73 0 138 21 189 62 30 23 46 25 60 8z m-2272 -238 c4 -6 11 -7 17 -4 8 5 9 1 5 -9 -4 -10 -10 -24 -13 -32 -5 -11 1 -15 22 -16 16 0 38 -4 49 -9 19 -8 19 -9 -2 -9 -19 -1 -105 -30 -165 -55 -14 -6 -13 2 9 46 14 29 33 91 42 138 l16 85 7 -63 c4 -34 10 -67 13 -72z m1477 45 c-9 -138 -113 -266 -228 -282 -38 -5 -50 -11 -63 -36 -45 -82 -94 -108 -162 -88 -67 20 -67 40 -2 118 105 124 217 216 373 304 36 20 70 36 75 34 6 -1 9 -24 7 -50z m-1901 -181 c12 -25 23 -78 26 -119 9 -121 -48 -272 -141 -373 l-40 -44 -19 54 c-57 165 -21 325 111 485 19 24 36 43 39 43 2 0 13 -21 24 -46z m689 16 c12 -7 7 -19 -25 -65 -49 -71 -104 -117 -188 -155 -87 -39 -175 -60 -260 -60 l-69 0 19 30 c105 166 259 253 458 258 28 1 57 -2 65 -8z m-613 -122 c-3 -7 -5 -2 -5 12 0 14 2 19 5 13 2 -7 2 -19 0 -25z m1307 -250 c24 -34 30 -84 15 -136 -10 -37 -31 -66 -100 -137 -98 -102 -121 -140 -117 -193 l3 -37 38 42 c80 86 144 150 202 199 l60 51 0 97 c0 95 1 98 26 112 24 12 28 11 47 -9 29 -32 54 -113 55 -182 2 -76 -18 -116 -122 -245 l-76 -95 -6 -105 c-6 -115 -24 -169 -64 -190 -20 -11 -35 -10 -96 6 -63 16 -73 22 -85 50 -15 35 -81 70 -126 65 -20 -2 -28 2 -28 13 0 9 4 16 10 16 5 0 17 17 27 38 13 29 16 64 15 167 -2 157 9 196 78 280 27 33 66 80 87 105 43 53 110 110 129 110 7 0 20 -10 28 -22z m-1675 -73 c29 -78 35 -150 17 -232 -25 -122 -128 -295 -157 -266 -5 5 -21 43 -34 82 -53 155 -19 315 98 465 28 36 31 37 44 20 7 -10 22 -41 32 -69z m671 51 c0 -28 -82 -136 -129 -171 -98 -71 -236 -115 -362 -115 l-60 0 23 41 c33 59 123 155 172 184 81 48 177 72 294 74 47 1 62 -2 62 -13z m-580 -244 l-19 -37 0 80 -1 80 20 -43 c20 -43 20 -44 0 -80z m360 -139 c0 -5 -14 -32 -31 -61 -69 -120 -196 -202 -357 -229 -87 -14 -162 -12 -162 6 0 18 80 129 121 167 94 87 185 119 357 123 39 0 72 -2 72 -6z m-738 -59 c15 -28 35 -81 45 -119 28 -115 -2 -252 -84 -382 -18 -29 -37 -53 -41 -53 -14 0 -68 109 -87 174 -21 72 -16 152 15 241 25 74 98 197 112 193 6 -2 24 -27 40 -54z m1578 -28 c0 -65 -26 -138 -65 -182 -34 -38 -35 -38 -50 -20 -20 26 -19 69 1 109 32 62 95 147 105 142 5 -4 9 -25 9 -49z m-1434 -153 c11 -4 11 -10 -1 -33 -31 -60 -14 -69 124 -71 l76 -1 -63 -13 c-68 -15 -165 -56 -196 -83 -18 -16 -19 -16 -12 3 19 52 28 126 24 200 l-4 83 19 -40 c11 -22 26 -42 33 -45z m347 -151 c17 -7 16 -11 -8 -57 -60 -113 -150 -187 -271 -225 -75 -23 -200 -35 -232 -23 l-22 9 27 53 c54 105 140 181 245 217 76 25 224 40 261 26z m-733 -123 c52 -81 74 -168 67 -266 -6 -88 -40 -193 -82 -254 l-28 -40 -23 22 c-12 12 -39 52 -59 90 -45 86 -58 175 -39 269 16 75 100 254 116 244 5 -4 27 -33 48 -65z m574 -287 c9 -14 -49 -116 -96 -167 -85 -94 -215 -145 -366 -145 -95 0 -93 -3 -47 90 58 115 164 189 306 215 83 15 195 19 203 7z m1185 -395 c176 -172 333 -306 440 -376 112 -72 312 -174 401 -202 83 -27 82 -20 41 -174 -67 -252 -64 -385 14 -583 14 -34 25 -73 25 -87 0 -21 -4 -25 -22 -20 -219 51 -349 60 -625 46 -131 -6 -296 -16 -367 -21 -75 -6 -134 -6 -139 -1 -5 5 0 46 10 96 l19 88 53 14 c154 39 206 188 126 358 l-27 57 21 66 c40 121 24 285 -55 559 -67 231 -82 313 -57 313 3 0 67 -60 142 -133z m-880 -896 c13 -8 13 -22 1 -103 -8 -51 -13 -120 -12 -152 3 -68 27 -171 48 -200 50 -72 -58 -92 -139 -25 -56 46 -72 110 -71 284 0 169 8 192 61 198 72 7 98 7 112 -2z m357 1 c6 -4 19 -40 28 -81 27 -121 69 -176 174 -230 28 -14 42 -28 42 -42 0 -52 -59 -132 -124 -167 -39 -21 -205 -23 -253 -3 -35 14 -86 101 -118 200 -27 83 -11 269 28 319 10 13 203 17 223 4z m414 -7 c18 -22 25 -139 10 -175 -19 -46 -56 -70 -107 -70 -24 0 -57 7 -72 14 -63 33 -118 128 -109 189 3 21 8 22 104 22 78 0 105 4 125 17 30 21 34 21 49 3z m-1290 -32 c0 -20 -26 -123 -33 -129 -11 -11 -78 32 -83 53 -14 56 18 91 84 92 24 1 32 -3 32 -16z m250 -63 c-7 -109 -6 -189 3 -237 l9 -43 -47 0 c-83 0 -129 66 -141 205 -8 92 3 115 62 136 27 10 65 17 84 16 l35 -2 -5 -75z"
       id="path10"
       style="fill:#006e62;fill-opacity:1" />
    <path
       d="M3531 6258 c-7 -79 -15 -160 -18 -180 -6 -38 -6 -38 31 -38 27 0 36 4 36 18 0 9 7 82 15 162 19 195 21 180 -18 180 l-34 0 -12 -142z"
       id="path12"
       style="fill:#006e62;fill-opacity:1" />
    <path
       d="M3016 6362 c-2 -4 10 -84 28 -177 30 -158 34 -170 55 -173 45 -7 45 9 10 187 l-33 171 -28 0 c-15 0 -29 -4 -32 -8z"
       id="path14"
       style="fill:#006e62;fill-opacity:1" />
    <path
       d="M4027 6175 c-38 -92 -67 -169 -64 -171 2 -2 17 -6 33 -9 l29 -6 67 168 c37 92 66 168 64 170 -1 1 -16 5 -32 9 l-30 6 -67 -167z"
       id="path16"
       style="fill:#006e62;fill-opacity:1" />
    <path
       d="M2508 6233 c-10 -2 -18 -6 -18 -9 0 -2 36 -77 81 -165 78 -157 81 -161 107 -154 15 4 29 9 32 11 2 3 -32 77 -75 164 -79 159 -84 165 -127 153z"
       id="path18"
       style="fill:#006e62;fill-opacity:1" />
    <path
       d="M4442 6061 c-62 -78 -112 -145 -112 -150 0 -5 13 -13 28 -19 28 -10 31 -7 144 137 64 80 113 149 110 153 -4 4 -19 9 -33 13 -23 6 -35 -6 -137 -134z"
       id="path20"
       style="fill:#006e62;fill-opacity:1" />
    <path
       d="M2028 6004 c-16 -8 -28 -17 -28 -19 0 -3 53 -64 117 -137 64 -73 117 -134 119 -136 1 -2 16 4 33 13 l32 16 -107 122 c-153 174 -134 158 -166 141z"
       id="path22"
       style="fill:#006e62;fill-opacity:1" />
    <path
       d="M1572 5670 l-22 -18 127 -90 c195 -136 180 -128 203 -107 11 10 20 22 20 26 0 9 -286 209 -297 209 -5 -1 -18 -9 -31 -20z"
       id="path24"
       style="fill:#006e62;fill-opacity:1" />
    <path
       d="M1186 5255 c-16 -24 -16 -26 1 -32 10 -3 85 -33 168 -65 82 -32 155 -58 161 -58 18 0 49 39 38 49 -12 11 -322 131 -339 131 -7 0 -20 -11 -29 -25z"
       id="path26"
       style="fill:#006e62;fill-opacity:1" />
    <path
       d="M891 4774 c-6 -15 -10 -28 -9 -29 3 -3 352 -55 368 -55 11 0 32 52 23 60 -7 7 -319 51 -354 50 -9 0 -21 -12 -28 -26z"
       id="path28"
       style="fill:#006e62;fill-opacity:1" />
    <path
       d="M857 4292 l-157 -15 -9 -31 c-4 -17 -7 -33 -5 -35 2 -2 89 4 193 14 l190 18 11 30 c5 16 10 32 10 33 0 6 -64 2 -233 -14z"
       id="path30"
       style="fill:#006e62;fill-opacity:1" />
    <path
       d="M788 3782 l-188 -66 0 -33 c0 -18 3 -33 7 -33 4 0 87 28 185 62 150 52 179 65 184 84 14 54 7 54 -188 -14z"
       id="path32"
       style="fill:#006e62;fill-opacity:1" />
    <path
       d="M783 3262 c-152 -101 -162 -109 -162 -139 -1 -17 2 -34 7 -36 10 -7 337 210 336 222 -1 6 -2 22 -2 36 -1 14 -5 25 -9 24 -5 0 -81 -49 -170 -107z"
       id="path34"
       style="fill:#006e62;fill-opacity:1" />
    <path
       d="M887 2749 c-121 -134 -137 -156 -132 -178 4 -14 10 -30 14 -34 5 -4 67 57 140 136 131 145 141 162 123 210 -6 14 -34 -12 -145 -134z"
       id="path36"
       style="fill:#006e62;fill-opacity:1" />
    <path
       d="M1086 2244 l-97 -184 18 -30 c9 -17 20 -30 23 -30 3 0 47 81 98 181 89 170 93 182 82 210 -7 16 -16 31 -19 34 -4 2 -51 -79 -105 -181z"
       id="path38"
       style="fill:#006e62;fill-opacity:1" />
    <path
       d="M1402 2007 c-6 -21 -30 -119 -53 -218 l-43 -180 27 -26 c20 -20 27 -23 31 -12 10 30 96 391 96 402 0 7 -11 25 -24 42 l-24 30 -10 -38z"
       id="path40"
       style="fill:#006e62;fill-opacity:1" />
    <path
       d="M5063 3985 c-56 -17 -119 -54 -229 -136 -50 -38 -108 -76 -128 -85 -38 -18 -47 -34 -21 -34 24 0 69 25 180 100 128 87 175 110 236 117 47 6 52 4 85 -28 24 -24 37 -30 45 -22 16 16 -15 69 -51 88 -35 18 -61 18 -117 0z"
       id="path42"
       style="fill:#006e62;fill-opacity:1" />
    <path
       d="M5160 3819 c0 -33 -29 -59 -63 -59 -48 0 -120 -35 -248 -121 -75 -51 -148 -92 -182 -103 -33 -10 -56 -23 -54 -30 2 -6 67 -18 163 -28 173 -18 265 -22 338 -12 42 6 46 9 39 28 -3 12 -6 28 -5 36 1 8 3 55 5 104 3 81 5 90 25 97 28 11 30 58 2 90 l-19 24 -1 -26z m-56 -171 c6 -17 6 -45 0 -75 l-9 -48 -144 0 c-99 0 -146 4 -148 11 -5 15 169 113 237 135 38 12 54 6 64 -23z"
       id="path44"
       style="fill:#006e62;fill-opacity:1" />
    <path
       d="M3130 3148 c-34 -18 -52 -36 -75 -78 -28 -52 -30 -62 -30 -165 0 -94 3 -116 22 -151 34 -63 69 -100 118 -124 48 -23 75 -53 75 -83 0 -27 47 -69 72 -65 30 4 58 52 41 69 -10 10 -17 8 -33 -6 -25 -23 -53 -11 -58 24 -4 26 -52 76 -115 119 -36 24 -55 47 -74 89 -23 50 -25 64 -21 142 5 89 21 135 62 179 35 39 52 44 86 27 48 -25 64 -67 55 -144 -5 -37 -9 -92 -9 -125 -1 -53 2 -61 26 -79 23 -17 30 -18 43 -7 14 12 13 16 -11 41 l-27 28 10 108 c12 122 4 165 -37 194 -42 30 -71 32 -120 7z"
       id="path46"
       style="fill:#006e62;fill-opacity:1" />
    <path
       d="M5283 3098 c-13 -16 -33 -130 -33 -184 0 -44 29 -99 58 -108 27 -9 312 128 312 150 0 24 -39 12 -162 -51 -60 -30 -117 -55 -128 -55 -11 0 -27 11 -36 25 -15 24 -15 32 1 121 12 63 15 98 8 105 -7 7 -13 6 -20 -3z"
       id="path48"
       style="fill:#006e62;fill-opacity:1" />
  </g>
</svg>
